<?xml version="1.0" standalone="no"?>
<!DOCTYPE svg PUBLIC "-//W3C//DTD SVG 1.1//EN" "http://www.w3.org/Graphics/SVG/1.1/DTD/svg11.dtd" >
<svg>
<metadata>
Created by FontForge 20110222 at Sun Jun 29 14:34:20 2014
 By Orthosie Webhosting
Copyright Copr. 2001, Design: Norm, published by www.lineto.com. All rights reserved.
</metadata>
<defs>
<font id="SimpleRegular" horiz-adv-x="550" >
  <font-face 
    font-family="SimpleRegular"
    font-weight="500"
    font-stretch="normal"
    units-per-em="1000"
    panose-1="0 0 0 0 0 0 0 0 0 0"
    ascent="800"
    descent="-200"
    x-height="517"
    cap-height="742"
    bbox="14.9333 -236 534 956"
    underline-thickness="20"
    underline-position="-123"
    unicode-range="U+0020-FB02"
  />
<missing-glyph 
d="M33 0v666h265v-666h-265zM66 33h199v600h-199v-600z" />
    <glyph glyph-name=".notdef" 
d="M33 0v666h265v-666h-265zM66 33h199v600h-199v-600z" />
    <glyph glyph-name=".null" horiz-adv-x="0" 
 />
    <glyph glyph-name="nonmarkingreturn" 
 />
    <glyph glyph-name="space" unicode=" " 
 />
    <glyph glyph-name="exclam" unicode="!" 
d="M309 236q0 -11 -12 -11h-44q-12 0 -12 11v495q0 11 12 11h44q12 0 12 -11v-495zM342 11q0 -11 -11 -11h-112q-11 0 -11 11v113q0 11 11 11h112q11 0 11 -11v-113z" />
    <glyph glyph-name="quotedbl" unicode="&#x22;" 
d="M444 596q0 -51 -36.5 -87.5t-87.5 -36.5q-11 0 -11 12v45q0 11 11 11q23 0 39.5 16.5t16.5 39.5v11h-56q-11 0 -11 12v112q0 11 11 11h112q12 0 12 -11v-135zM241 596q0 -51 -36 -87.5t-87 -36.5q-4 0 -8 4t-4 8v45q0 11 12 11q23 0 39.5 16.5t16.5 39.5v11h-56
q-4 0 -8 3.5t-4 8.5v112q0 11 12 11h112q11 0 11 -11v-135z" />
    <glyph glyph-name="numbersign" unicode="#" 
d="M522 461q0 -11 -11 -11h-94l-28 -158h83q11 0 11 -11v-45q0 -11 -11 -11h-95l-38 -216q-2 -9 -11 -9h-46q-13 0 -11 13l38 212h-121l-38 -216q-2 -9 -12 -9h-45q-6 0 -9.5 4t-1.5 9l37 212h-80q-11 0 -11 11v45q0 11 11 11h92l28 158h-81q-11 0 -11 11v45q0 11 11 11h92
h1l38 216q2 9 11 9h45q14 0 12 -13l-38 -212h121l38 216q2 9 11 9h46q14 0 11 -13l-37 -212h82q11 0 11 -11v-45zM348 450h-121l-28 -158h122z" />
    <glyph glyph-name="dollar" unicode="$" 
d="M466 157q0 -67 -45.5 -115t-111.5 -53v-68q0 -11 -12 -11h-44q-12 0 -12 11v68q-66 5 -111.5 53t-45.5 115v23q0 11 11 11h45q11 0 11 -11v-23q0 -41 30 -71t72 -30h44q42 0 72 30t30 71v34q0 48 -31.5 83t-76 58t-89 48t-76 68t-31.5 103v34q0 64 42 111.5t104 55.5v69
q0 11 12 11h44q12 0 12 -11v-69q62 -8 104 -55.5t42 -111.5v-23q0 -11 -11 -11h-45q-4 0 -8 3.5t-4 7.5v23q0 42 -29.5 71.5t-71.5 29.5h-22q-42 0 -71.5 -29.5t-29.5 -71.5v-34q0 -33 16.5 -59t43.5 -44.5t59 -35.5t64.5 -36.5t59.5 -42.5t43.5 -59.5t16.5 -82.5v-34z" />
    <glyph glyph-name="percent" unicode="%" 
d="M258 534q0 -34 -25 -59t-59 -25h-23q-35 0 -59.5 25t-24.5 59v135q0 35 24.5 60t59.5 25h23q35 0 59.5 -25t24.5 -60v-135zM441 490l-286 -285q-7 -7 -15 0l-32 32q-7 7 0 16l285 285q8 8 16 0l32 -32q7 -7 0 -16zM483 73q0 -35 -24.5 -59.5t-59.5 -24.5h-23
q-34 0 -59 24.5t-25 59.5v135q0 35 24.5 59.5t59.5 24.5h23q35 0 59.5 -24.5t24.5 -59.5v-135zM202 534v135q0 12 -8.5 20t-19.5 8h-23q-11 0 -19.5 -8t-8.5 -20v-135q0 -11 8.5 -19.5t19.5 -8.5h23q11 0 19.5 8.5t8.5 19.5zM427 73v135q0 12 -8.5 20t-19.5 8h-23
q-11 0 -19.5 -8t-8.5 -20v-135q0 -11 8.5 -19.5t19.5 -8.5h23q11 0 19.5 8.5t8.5 19.5z" />
    <glyph glyph-name="ampersand" unicode="&#x26;" 
d="M487 28q7 -9 -3 -15l-38 -24q-10 -6 -16 3l-23 37q-48 -40 -110 -40h-44q-70 0 -119.5 49t-49.5 119v124q0 100 75 141q-3 5 -14.5 23t-15.5 25t-12.5 23t-12 26.5t-6.5 25.5t-3 29v11q0 70 49.5 119.5t119.5 49.5h22q70 0 119.5 -49.5t49.5 -119.5v-101q0 -12 -11 -12
h-45q-5 0 -8.5 4t-3.5 8v101q0 42 -29.5 71.5t-71.5 29.5h-22q-42 0 -71.5 -29.5t-29.5 -71.5v-11q0 -29 13 -51l223 -355v158q0 11 11 11h45q11 0 11 -11v-169q0 -38 -15 -71zM370 87l-176 280q-43 -23 -43 -86v-124q0 -41 30 -71t72 -30h44q44 0 73 31z" />
    <glyph glyph-name="quotesingle" unicode="'" 
d="M342 596q0 -51 -36 -87.5t-87 -36.5q-11 0 -11 12v45q0 11 11 11q23 0 39.5 16.5t16.5 39.5v11h-56q-11 0 -11 12v112q0 11 11 11h112q11 0 11 -11v-135z" />
    <glyph glyph-name="parenleft" unicode="(" 
d="M376 -214q0 -11 -11 -11h-23q-70 0 -119 49.5t-49 119.5v630q0 70 49 119t119 49h23q11 0 11 -11v-45q0 -11 -11 -11h-23q-41 0 -71 -29.5t-30 -71.5v-630q0 -42 30 -72t71 -30h23q11 0 11 -11v-45z" />
    <glyph glyph-name="parenright" unicode=")" 
d="M376 -56q0 -70 -49 -119.5t-119 -49.5h-23q-11 0 -11 11v45q0 11 11 11h23q41 0 71 30t30 72v630q0 42 -30 71.5t-71 29.5h-23q-11 0 -11 11v45q0 11 11 11h23q70 0 119 -49t49 -119v-630z" />
    <glyph glyph-name="asterisk" unicode="*" 
d="M466 529q0 -12 -11 -12l-127 4l66 -109q6 -9 -4 -15l-39 -23q-9 -6 -15 4l-61 112l-61 -112q-6 -10 -15 -4l-39 23q-10 6 -4 15l66 109l-127 -4q-11 0 -11 12v45q0 11 11 11l127 -3l-66 108q-6 10 4 16l39 22q9 6 15 -4l61 -112l61 112q6 10 15 4l39 -22q10 -6 4 -16
l-66 -108l127 3q11 0 11 -11v-45z" />
    <glyph glyph-name="plus" unicode="+" 
d="M432 247q0 -11 -11 -11h-112v-112q0 -4 -3.5 -8t-8.5 -4h-44q-5 0 -8.5 4t-3.5 8v112h-112q-11 0 -11 11v45q0 12 11 12h112v112q0 11 12 11h44q12 0 12 -11v-112h112q11 0 11 -12v-45z" />
    <glyph glyph-name="comma" unicode="," 
d="M342 -11q0 -52 -36 -88t-87 -36q-11 0 -11 11v45q0 12 11 12q23 0 39.5 16.5t16.5 39.5v11h-56q-11 0 -11 11v113q0 11 11 11h112q11 0 11 -11v-135z" />
    <glyph glyph-name="hyphen" unicode="-" 
d="M432 247q0 -11 -11 -11h-292q-11 0 -11 11v45q0 12 11 12h292q11 0 11 -12v-45z" />
    <glyph glyph-name="period" unicode="." 
d="M342 11q0 -11 -11 -11h-112q-11 0 -11 11v113q0 11 11 11h112q11 0 11 -11v-113z" />
    <glyph glyph-name="slash" unicode="/" 
d="M456 727l-293 -720q-2 -7 -10 -7h-49q-7 0 -9.5 4.5t-0.5 10.5l293 720q2 7 10 7h49q15 0 10 -15z" />
    <glyph glyph-name="zero" unicode="0" 
d="M455 157q0 -70 -49.5 -119t-119.5 -49h-22q-70 0 -119.5 49t-49.5 119v428q0 70 49.5 119.5t119.5 49.5h22q70 0 119.5 -49.5t49.5 -119.5v-428zM387 157v428q0 42 -29.5 71.5t-71.5 29.5h-22q-42 0 -71.5 -29.5t-29.5 -71.5v-428q0 -41 29.5 -71t71.5 -30h22
q42 0 71.5 30t29.5 71z" />
    <glyph glyph-name="one" unicode="1" 
d="M489 11q0 -11 -12 -11h-382q-11 0 -11 11v45q0 11 11 11h169v577l-98 -115q-7 -7 -16 -1l-34 29q-10 8 -2 16l142 166q3 3 9 3h55q11 0 11 -11v-664h146q12 0 12 -11v-45z" />
    <glyph glyph-name="two" unicode="2" 
d="M466 11q0 -11 -11 -11h-360q-11 0 -11 11v45q0 113 37 187t134 144q132 96 132 164v34q0 42 -29.5 71.5t-71.5 29.5h-22q-42 0 -71.5 -29.5t-29.5 -71.5v-34q0 -11 -12 -11h-45q-11 0 -11 11v34q0 70 49.5 119.5t119.5 49.5h22q70 0 119.5 -49.5t49.5 -119.5v-34
q0 -50 -35.5 -101.5t-124.5 -116.5q-82 -60 -112 -117.5t-32 -148.5h304q11 0 11 -11v-45z" />
    <glyph glyph-name="three" unicode="3" 
d="M466 157q0 -70 -49.5 -119t-119.5 -49h-44q-70 0 -119.5 49t-49.5 119v34q0 11 11 11h45q11 0 11 -11v-34q0 -41 30 -71t72 -30h44q42 0 72 30t30 71v147q0 42 -30 71.5t-72 29.5h-78q-11 0 -11 11v53q0 7 2 7q143 177 162 199h-243q-11 0 -11 11v45q0 11 11 11h315
q11 0 11 -11v-53q-2 -6 -2 -7l-160 -199h4q70 0 119.5 -49t49.5 -119v-147z" />
    <glyph glyph-name="four" unicode="4" 
d="M477 146q0 -11 -11 -11h-56v-124q0 -11 -11 -11h-45q-12 0 -12 11v124h-258q-11 0 -11 11v73l1 5l256 512q2 6 10 6h50q8 0 11 -4.5t-1 -11.5l-260 -520v-4h202v169q0 11 12 11h45q11 0 11 -11v-169h56q11 0 11 -11v-45z" />
    <glyph glyph-name="five" unicode="5" 
d="M455 157q0 -70 -49.5 -119t-119.5 -49h-22q-70 0 -119.5 49t-49.5 119v34q0 11 11 11h45q12 0 12 -11v-34q0 -41 29.5 -71t71.5 -30h22q42 0 71.5 30t29.5 71v169q0 42 -29.5 71.5t-71.5 29.5h-22q-31 0 -52.5 -14t-29 -30.5t-15.5 -30.5t-15 -14h-41q-12 0 -12 11
l20 383q0 10 11 10h302q12 0 12 -11v-45q0 -11 -12 -11h-249l-10 -207q41 27 91 27h22q70 0 119.5 -49.5t49.5 -119.5v-169z" />
    <glyph glyph-name="six" unicode="6" 
d="M455 157q0 -70 -49.5 -119t-119.5 -49h-22q-70 0 -119.5 49t-49.5 119v428q0 70 49.5 119.5t119.5 49.5h22q70 0 119.5 -49.5t49.5 -119.5v-11q0 -12 -11 -12h-45q-5 0 -8.5 4t-3.5 8v11q0 42 -29.5 71.5t-71.5 29.5h-22q-42 0 -71.5 -29.5t-29.5 -71.5v-124
q45 34 101 34h22q70 0 119.5 -49.5t49.5 -119.5v-169zM387 157v169q0 42 -29.5 71.5t-71.5 29.5h-22q-42 0 -71.5 -29.5t-29.5 -71.5v-169q0 -41 29.5 -71t71.5 -30h22q42 0 71.5 30t29.5 71z" />
    <glyph glyph-name="seven" unicode="7" 
d="M466 675q0 -31 -5.5 -59.5t-22 -63.5t-23.5 -49t-35 -59t-31 -50q-52 -85 -87.5 -173.5t-51.5 -210.5q0 -4 -3.5 -7t-7.5 -3h-45q-13 0 -11 13q17 132 54.5 228t93.5 189q7 11 27.5 43.5t30.5 50t24 45.5t20 54t6 52h-304q-11 0 -11 11v45q0 11 11 11h360q11 0 11 -11
v-56z" />
    <glyph glyph-name="eight" unicode="8" 
d="M466 157q0 -70 -49.5 -119t-119.5 -49h-44q-70 0 -119.5 49t-49.5 119v79q0 89 73 139q-62 51 -62 131v79q0 70 49.5 119.5t119.5 49.5h22q70 0 119.5 -49.5t49.5 -119.5v-79q0 -80 -62 -131q73 -50 73 -139v-79zM387 506v79q0 42 -29.5 71.5t-71.5 29.5h-22
q-42 0 -71.5 -29.5t-29.5 -71.5v-79q0 -42 29.5 -71.5t71.5 -29.5h22q42 0 71.5 29.5t29.5 71.5zM399 157v79q0 42 -30 71.5t-72 29.5h-44q-42 0 -72 -29.5t-30 -71.5v-79q0 -41 30 -71t72 -30h44q42 0 72 30t30 71z" />
    <glyph glyph-name="nine" unicode="9" 
d="M455 157q0 -70 -49.5 -119t-119.5 -49h-11q-70 0 -119.5 49t-49.5 119v12q0 11 12 11h45q4 0 7.5 -3.5t3.5 -7.5v-12q0 -41 29.5 -71t71.5 -30h11q42 0 71.5 30t29.5 71v124q-45 -34 -101 -34h-22q-70 0 -119.5 49.5t-49.5 119.5v169q0 70 49.5 119.5t119.5 49.5h22
q70 0 119.5 -49.5t49.5 -119.5v-428zM387 416v169q0 42 -29.5 71.5t-71.5 29.5h-22q-42 0 -71.5 -29.5t-29.5 -71.5v-169q0 -42 29.5 -71.5t71.5 -29.5h22q42 0 71.5 29.5t29.5 71.5z" />
    <glyph glyph-name="colon" unicode=":" 
d="M342 371q0 -11 -11 -11h-112q-11 0 -11 11v113q0 11 11 11h112q11 0 11 -11v-113zM342 11q0 -11 -11 -11h-112q-11 0 -11 11v113q0 11 11 11h112q11 0 11 -11v-113z" />
    <glyph glyph-name="semicolon" unicode=";" 
d="M342 371q0 -11 -11 -11h-112q-11 0 -11 11v113q0 11 11 11h112q11 0 11 -11v-113zM342 -11q0 -52 -36 -88t-87 -36q-11 0 -11 11v45q0 12 11 12q23 0 39.5 16.5t16.5 39.5v11h-56q-11 0 -11 11v113q0 11 11 11h112q11 0 11 -11v-135z" />
    <glyph glyph-name="less" unicode="&#x3c;" 
d="M426 65q7 -7 4.5 -13.5t-12.5 -6.5h-68q-5 0 -8 3l-209 181q-4 4 -4 8v43q0 5 4 9l209 181l4 1l4 1h68q10 0 12.5 -6.5t-4.5 -12.5l-224 -194z" />
    <glyph glyph-name="equal" unicode="=" 
d="M432 315q0 -11 -11 -11h-292q-11 0 -11 11v45q0 11 11 11h292q11 0 11 -11v-45zM432 180q0 -11 -11 -11h-292q-11 0 -11 11v45q0 11 11 11h292q11 0 11 -11v-45z" />
    <glyph glyph-name="greater" unicode="&#x3e;" 
d="M421 237q0 -4 -4 -8l-209 -181q-3 -3 -8 -3h-68q-10 0 -12.5 6.5t4.5 13.5l224 194l-224 194q-7 6 -4.5 12.5t12.5 6.5h68l4 -1l4 -1l209 -181q4 -4 4 -9v-43z" />
    <glyph glyph-name="question" unicode="?" 
d="M455 562q0 -109 -115 -195q-36 -28 -45 -51.5t-9 -68.5v-11q0 -11 -11 -11h-45q-11 0 -11 11v11q0 38 3.5 61t22 54.5t55.5 58.5q54 41 70.5 74t16.5 67v23q0 42 -29.5 71.5t-71.5 29.5h-22q-42 0 -71.5 -29.5t-29.5 -71.5v-34q0 -11 -12 -11h-45q-11 0 -11 11v34
q0 70 49.5 119.5t119.5 49.5h22q70 0 119.5 -49.5t49.5 -119.5v-23zM320 11q0 -11 -11 -11h-113q-11 0 -11 11v113q0 11 11 11h113q11 0 11 -11v-113z" />
    <glyph glyph-name="at" unicode="@" 
d="M478 90q0 -42 -30 -71.5t-72 -29.5q-46 0 -77 36q-38 -36 -91 -36q-56 0 -95.5 39.5t-39.5 95.5v270q0 56 39.5 95.5t95.5 39.5q36 0 68 -19q2 7 10 7h45q12 0 12 -11v-416q0 -14 9.5 -24t23.5 -10t24 10t10 24v495q0 42 -29.5 71.5t-71.5 29.5h-56q-42 0 -72 -29.5
t-30 -71.5v-11q0 -12 -11 -12h-45q-11 0 -11 12v11q0 70 49.5 119.5t119.5 49.5h56q70 0 119.5 -49.5t49.5 -119.5v-495zM275 124v270q0 28 -19.5 47.5t-47.5 19.5t-48 -19.5t-20 -47.5v-270q0 -28 20 -48t48 -20t47.5 20t19.5 48z" />
    <glyph glyph-name="A" unicode="A" 
d="M455 11q0 -11 -11 -11h-45q-12 0 -12 11v236h-224v-236q0 -11 -12 -11h-45q-11 0 -11 11v273v3l118 447q2 8 11 8h102q9 0 11 -8l118 -447v-3v-273zM377 315l-94 360h-16l-94 -360h204z" />
    <glyph glyph-name="B" unicode="B" 
d="M475 169q0 -70 -49.5 -119.5t-119.5 -49.5h-191q-11 0 -11 11v720q0 11 11 11h180q70 0 119.5 -49t49.5 -119v-68q0 -80 -62 -131q73 -50 73 -139v-67zM396 506v68q0 42 -29.5 71.5t-71.5 29.5h-123v-270h123q42 0 71.5 29.5t29.5 71.5zM408 169v67q0 42 -30 71.5
t-72 29.5h-134v-270h134q42 0 72 30t30 72z" />
    <glyph glyph-name="C" unicode="C" 
d="M466 157q0 -70 -49.5 -119t-119.5 -49h-33q-70 0 -119.5 49t-49.5 119v428q0 70 49.5 119.5t119.5 49.5h33q70 0 119.5 -49.5t49.5 -119.5v-23q0 -11 -11 -11h-45q-11 0 -11 11v23q0 42 -30 71.5t-72 29.5h-33q-42 0 -71.5 -29.5t-29.5 -71.5v-428q0 -41 29.5 -71
t71.5 -30h33q42 0 72 30t30 71v34q0 11 11 11h45q11 0 11 -11v-34z" />
    <glyph glyph-name="D" unicode="D" 
d="M464 169q0 -70 -49.5 -119.5t-119.5 -49.5h-180q-11 0 -11 11v720q0 11 11 11h180q70 0 119.5 -49t49.5 -119v-405zM396 169v405q0 42 -29.5 71.5t-71.5 29.5h-123v-608h123q42 0 71.5 30t29.5 72z" />
    <glyph glyph-name="E" unicode="E" 
d="M466 11q0 -11 -11 -11h-337q-12 0 -12 11v720q0 11 12 11h337q11 0 11 -11v-45q0 -11 -11 -11h-281v-270h258q12 0 12 -11v-45q0 -5 -4 -8.5t-8 -3.5h-258v-270h281q11 0 11 -11v-45z" />
    <glyph glyph-name="F" unicode="F" 
d="M477 686q0 -11 -11 -11h-281v-270h259q11 0 11 -11v-45q0 -12 -11 -12h-259v-326q0 -11 -11 -11h-45q-11 0 -11 11v720q0 11 11 11h337q11 0 11 -11v-45z" />
    <glyph glyph-name="G" unicode="G" 
d="M461 157q0 -70 -49.5 -119t-119.5 -49h-34q-70 0 -119.5 49t-49.5 119v428q0 70 49.5 119t119.5 49h34q70 0 119.5 -49t49.5 -119v-23q0 -11 -12 -11h-45q-11 0 -11 11v23q0 41 -29.5 71t-71.5 30h-34q-42 0 -71.5 -30t-29.5 -71v-428q0 -41 29.5 -71t71.5 -30h34
q42 0 71.5 30t29.5 71v180h-112q-5 0 -8.5 3.5t-3.5 8.5v45q0 11 12 11h168q12 0 12 -11v-237z" />
    <glyph glyph-name="H" unicode="H" 
d="M455 11q0 -11 -11 -11h-45q-12 0 -12 11v326h-224v-326q0 -11 -12 -11h-45q-11 0 -11 11v720q0 11 11 11h45q12 0 12 -11v-326h224v326q0 11 12 11h45q11 0 11 -11v-720z" />
    <glyph glyph-name="I" unicode="I" 
d="M466 11q0 -11 -11 -11h-360q-11 0 -11 11v45q0 11 11 11h146v608h-135q-11 0 -11 11v45q0 11 11 11h338q11 0 11 -11v-45q0 -11 -11 -11h-135v-608h146q11 0 11 -11v-45z" />
    <glyph glyph-name="J" unicode="J" 
d="M444 157q0 -70 -49.5 -119t-119.5 -49h-22q-70 0 -119.5 49t-49.5 119v68q0 11 11 11h45q11 0 11 -11v-68q0 -41 30 -71t72 -30h22q42 0 71.5 30t29.5 71v518h-236q-11 0 -11 11v45q0 11 11 11h292q12 0 12 -11v-574z" />
    <glyph glyph-name="K" unicode="K" 
d="M510 18q4 -8 1.5 -13t-10.5 -5h-55q-5 0 -10 5l-228 329l-45 -64v-259q0 -11 -12 -11h-45q-11 0 -11 11v720q0 11 11 11h45q12 0 12 -11v-344l250 351q4 4 10 4h55q8 0 11 -5t-2 -12l-237 -333z" />
    <glyph glyph-name="L" unicode="L" 
d="M477 11q0 -11 -11 -11h-315q-11 0 -11 11v720q0 11 11 11h45q12 0 12 -11v-664h258q11 0 11 -11v-45z" />
    <glyph glyph-name="M" unicode="M" 
d="M500 11q0 -11 -11 -11h-45q-11 0 -11 11v563l6 82h-20q-8 -56 -17 -82l-90 -252q-2 -7 -10 -7h-54q-8 0 -10 7l-90 252q-4 12 -8 32.5t-6 35.5l-3 14h-20q6 -56 6 -82v-563q0 -11 -11 -11h-45q-11 0 -11 11v720q0 11 11 11h93q9 0 11 -7l101 -296l9 -55q3 36 9 55
l101 296q2 7 11 7h93q11 0 11 -11v-720z" />
    <glyph glyph-name="N" unicode="N" 
d="M471 11q0 -11 -12 -11h-96q-9 0 -11 7l-177 567l-15 82h-20q7 -60 7 -82v-563q0 -4 -3.5 -7.5t-7.5 -3.5h-45q-12 0 -12 11v720q0 11 12 11h96q9 0 11 -7l177 -566l15 -83h20q-7 60 -7 83v562q0 4 3.5 7.5t7.5 3.5h45q12 0 12 -11v-720z" />
    <glyph glyph-name="O" unicode="O" 
d="M461 157q0 -70 -49.5 -119t-119.5 -49h-34q-70 0 -119.5 49t-49.5 119v428q0 70 49.5 119.5t119.5 49.5h34q70 0 119.5 -49.5t49.5 -119.5v-428zM393 157v428q0 42 -29.5 71.5t-71.5 29.5h-34q-42 0 -71.5 -29.5t-29.5 -71.5v-428q0 -41 29.5 -71t71.5 -30h34
q42 0 71.5 30t29.5 71z" />
    <glyph glyph-name="P" unicode="P" 
d="M464 416q0 -70 -49.5 -119.5t-119.5 -49.5h-123v-236q0 -11 -12 -11h-45q-11 0 -11 11v720q0 11 11 11h180q70 0 119.5 -49t49.5 -119v-158zM396 416v158q0 42 -29.5 71.5t-71.5 29.5h-123v-360h123q42 0 71.5 29.5t29.5 71.5z" />
    <glyph glyph-name="Q" unicode="Q" 
d="M480 1l-31 -32q-9 -7 -16 0l-48 48q-42 -28 -93 -28h-34q-70 0 -119.5 49t-49.5 119v428q0 70 49.5 119.5t119.5 49.5h34q70 0 119.5 -49.5t49.5 -119.5v-428q0 -49 -28 -93l47 -47q9 -9 0 -16zM393 157v428q0 42 -29.5 71.5t-71.5 29.5h-34q-42 0 -71.5 -29.5
t-29.5 -71.5v-428q0 -41 29.5 -71t71.5 -30h34q21 0 44 10l-74 73q-8 8 0 16l32 32q8 8 16 0l73 -73q10 19 10 43z" />
    <glyph glyph-name="R" unicode="R" 
d="M467 16q5 -16 -11 -16h-48q-9 0 -11 7l-102 240h-123v-236q0 -11 -12 -11h-45q-11 0 -11 11v720q0 11 11 11h180q70 0 119.5 -49t49.5 -119v-158q0 -51 -28 -92.5t-73 -61.5zM396 416v158q0 42 -29.5 71.5t-71.5 29.5h-123v-360h123q42 0 71.5 29.5t29.5 71.5z" />
    <glyph glyph-name="S" unicode="S" 
d="M466 157q0 -70 -49.5 -119t-119.5 -49h-44q-70 0 -119.5 49t-49.5 119v23q0 11 11 11h45q11 0 11 -11v-23q0 -41 30 -71t72 -30h44q42 0 72 30t30 71v34q0 48 -31.5 83t-76 58t-89 48t-76 68t-31.5 103v34q0 70 49.5 119.5t119.5 49.5h22q70 0 119.5 -49.5t49.5 -119.5
v-23q0 -11 -11 -11h-45q-4 0 -8 3.5t-4 7.5v23q0 42 -29.5 71.5t-71.5 29.5h-22q-42 0 -71.5 -29.5t-29.5 -71.5v-34q0 -33 16.5 -59t43.5 -44.5t59 -35.5t64.5 -36.5t59.5 -42.5t43.5 -59.5t16.5 -82.5v-34z" />
    <glyph glyph-name="T" unicode="T" 
d="M477 686q0 -11 -11 -11h-157v-664q0 -11 -12 -11h-44q-12 0 -12 11v664h-157q-11 0 -11 11v45q0 11 11 11h382q11 0 11 -11v-45z" />
    <glyph glyph-name="U" unicode="U" 
d="M455 157q0 -70 -49.5 -119t-119.5 -49h-22q-70 0 -119.5 49t-49.5 119v574q0 11 11 11h45q12 0 12 -11v-574q0 -41 29.5 -71t71.5 -30h22q42 0 71.5 30t29.5 71v574q0 11 12 11h45q11 0 11 -11v-574z" />
    <glyph glyph-name="V" unicode="V" 
d="M472 729l-157 -720q-2 -9 -11 -9h-59q-9 0 -11 9l-156 720q-2 5 1.5 9t9.5 4h46q9 0 11 -8l129 -618l129 618q2 8 11 8h46q6 0 9.5 -4t1.5 -9z" />
    <glyph glyph-name="W" unicode="W" 
d="M518 731l-11 -340l-42 -381q-2 -10 -11 -10h-91q-9 0 -11 9l-58 272l-9 78h-19q-5 -55 -10 -78l-59 -272q-2 -9 -11 -9h-90q-10 0 -12 10l-42 381l-10 340q0 11 11 11h45q10 0 12 -10l9 -336l22 -216l4 -111h21q7 77 14 111l50 239q2 8 11 8h88q10 0 10 -8l50 -239
l15 -111h21q0 77 3 111l22 216l10 336q2 10 12 10h45q11 0 11 -11z" />
    <glyph glyph-name="X" unicode="X" 
d="M479 16q7 -16 -10 -16h-49q-6 0 -11 7l-134 295l-134 -295q-5 -7 -11 -7h-49q-17 0 -10 16l167 368l-156 343q-3 6 0 10.5t10 4.5h50q8 0 10 -6l123 -271l123 271q2 6 10 6h50q7 0 10 -4.5t0 -10.5l-156 -343z" />
    <glyph glyph-name="Y" unicode="Y" 
d="M466 727l-157 -402v-314q0 -11 -12 -11h-44q-12 0 -12 11v314l-157 402q-3 7 0 11t10 4h48q9 0 11 -7l122 -320l122 320q2 7 10 7h49q7 0 10 -4t0 -11z" />
    <glyph glyph-name="Z" unicode="Z" 
d="M466 11q0 -11 -11 -11h-349q-11 0 -11 11v40q0 14 7 28l277 596h-261q-12 0 -12 11v45q0 11 12 11h326q11 0 11 -11v-45q0 -10 -6 -22l-278 -597h284q11 0 11 -11v-45z" />
    <glyph glyph-name="bracketleft" unicode="[" 
d="M376 -214q0 -11 -11 -11h-180q-11 0 -11 11v945q0 11 11 11h180q11 0 11 -11v-45q0 -11 -11 -11h-124v-832h124q11 0 11 -12v-45z" />
    <glyph glyph-name="backslash" unicode="\" 
d="M456 15q2 -6 -0.5 -10.5t-9.5 -4.5h-49q-8 0 -10 7l-293 720q-5 15 10 15h49q8 0 10 -7z" />
    <glyph glyph-name="bracketright" unicode="]" 
d="M376 -214q0 -11 -11 -11h-180q-11 0 -11 11v45q0 11 11 11h124v833h-124q-11 0 -11 11v45q0 11 11 11h180q11 0 11 -11v-945z" />
    <glyph glyph-name="asciicircum" unicode="^" 
d="M470 353q5 -16 -11 -16h-48q-7 0 -10 8l-126 328l-126 -328q-3 -8 -10 -8h-48q-16 0 -11 16l147 382q2 7 10 7h76q8 0 10 -7z" />
    <glyph glyph-name="underscore" unicode="_" 
d="M455 11q0 -11 -11 -11h-338q-11 0 -11 11v45q0 11 11 11h338q11 0 11 -11v-45z" />
    <glyph glyph-name="grave" unicode="`" 
d="M318 603q5 -7 2 -12.5t-11 -5.5h-45q-5 0 -8 3l-113 113q-7 7 -4 13t12 6h68q5 0 9 -4z" />
    <glyph glyph-name="a" unicode="a" 
d="M500 11q0 -11 -11 -11h-23q-46 0 -69 41q-58 -52 -133 -52h-23q-62 0 -104 38.5t-42 96.5v22q0 52 30 86.5t73 49.5t86 25t73 25t30 39q0 39 -28 64.5t-73 25.5h-11q-42 0 -71.5 -29.5t-29.5 -71.5v-23q0 -4 -3.5 -7.5t-7.5 -3.5h-45q-4 0 -8 3.5t-4 7.5v23
q0 70 49.5 119.5t119.5 49.5h11q69 0 119 -44t50 -114v-292q0 -12 11 -12h23q11 0 11 -11v-45zM387 157v117q-18 -9 -58 -21q-3 -1 -36.5 -9.5t-47.5 -14t-37.5 -17.5t-34 -28.5t-10.5 -37.5v-22q0 -29 20.5 -48.5t57.5 -19.5h23q46 0 84.5 32t38.5 69z" />
    <glyph glyph-name="b" unicode="b" 
d="M464 157q0 -70 -49.5 -119t-119.5 -49h-22q-57 0 -101 33v-11q0 -11 -12 -11h-45q-11 0 -11 11v720q0 11 11 11h45q12 0 12 -11v-236q45 34 101 34h22q70 0 119.5 -49.5t49.5 -119.5v-203zM396 157v203q0 42 -29.5 71.5t-71.5 29.5h-22q-42 0 -71.5 -29.5t-29.5 -71.5
v-203q0 -41 29.5 -71t71.5 -30h22q42 0 71.5 30t29.5 71z" />
    <glyph glyph-name="c" unicode="c" 
d="M455 157q0 -70 -49.5 -119t-119.5 -49h-22q-70 0 -119.5 49t-49.5 119v203q0 70 49.5 119.5t119.5 49.5h22q70 0 119.5 -49.5t49.5 -119.5q0 -11 -11 -11h-45q-12 0 -12 11q0 42 -29.5 71.5t-71.5 29.5h-22q-42 0 -71.5 -29.5t-29.5 -71.5v-203q0 -41 29.5 -71t71.5 -30
h22q42 0 71.5 30t29.5 71q0 5 3.5 8.5t8.5 3.5h45q11 0 11 -12z" />
    <glyph glyph-name="d" unicode="d" 
d="M446 11q0 -11 -11 -11h-45q-12 0 -12 11v11q-44 -33 -101 -33h-22q-70 0 -119.5 49t-49.5 119v203q0 70 49.5 119.5t119.5 49.5h22q56 0 101 -34v236q0 11 12 11h45q11 0 11 -11v-720zM378 157v203q0 42 -29.5 71.5t-71.5 29.5h-22q-42 0 -71.5 -29.5t-29.5 -71.5v-203
q0 -41 29.5 -71t71.5 -30h22q42 0 71.5 30t29.5 71z" />
    <glyph glyph-name="e" unicode="e" 
d="M455 236q0 -11 -11 -11h-282v-68q0 -41 30 -71t72 -30h22q35 0 62 21t36 54q3 10 14 8l43 -12q12 -2 8 -14q-14 -54 -59.5 -89t-103.5 -35h-22q-70 0 -119.5 49t-49.5 119v203q0 70 49.5 119.5t119.5 49.5h22q70 0 119.5 -49.5t49.5 -119.5v-124zM387 292v68
q0 42 -29.5 71.5t-71.5 29.5h-22q-42 0 -72 -29.5t-30 -71.5v-68h225z" />
    <glyph glyph-name="f" unicode="f" 
d="M523 540q0 -11 -12 -11h-45q-11 0 -11 11v45q0 45 -25.5 73t-64.5 28h-34q-39 0 -64.5 -28t-25.5 -73v-90h124q11 0 11 -11v-45q0 -12 -11 -12h-124v-360h191q12 0 12 -11v-45q0 -11 -12 -11h-348q-11 0 -11 11v45q0 11 11 11h90v360h-79q-11 0 -11 12v45q0 11 11 11h79
v90q0 70 43.5 119.5t113.5 49.5h34q70 0 114 -50t44 -119v-45z" />
    <glyph glyph-name="g" unicode="g" 
d="M446 -67q0 -70 -49.5 -119.5t-119.5 -49.5h-22q-70 0 -119 49q-9 9 0 16l31 32q9 7 16 0q31 -29 72 -29h22q42 0 71.5 29.5t29.5 71.5v90q-45 -34 -101 -34h-22q-70 0 -119.5 49.5t-49.5 119.5v202q0 70 49.5 119.5t119.5 49.5h22q58 0 101 -34v11q0 11 12 11h45
q11 0 11 -11v-573zM378 158v202q0 42 -29.5 72t-71.5 30h-22q-42 0 -71.5 -30t-29.5 -72v-202q0 -42 29.5 -71.5t71.5 -29.5h22q42 0 71.5 29.5t29.5 71.5z" />
    <glyph glyph-name="h" unicode="h" 
d="M464 11q0 -11 -11 -11h-45q-12 0 -12 11v349q0 42 -29.5 71.5t-71.5 29.5h-22q-42 0 -71.5 -29.5t-29.5 -71.5v-349q0 -11 -12 -11h-45q-11 0 -11 11v720q0 11 11 11h45q12 0 12 -11v-236q45 34 101 34h22q70 0 119.5 -49.5t49.5 -119.5v-349z" />
    <glyph glyph-name="i" unicode="i" 
d="M354 630q0 -11 -12 -11h-89q-12 0 -12 11v90q0 11 12 11h89q12 0 12 -11v-90zM500 11q0 -11 -11 -11h-405q-11 0 -11 11v45q0 11 11 11h191v383h-146q-11 0 -11 11v45q0 11 11 11h202q11 0 11 -11v-439h147q11 0 11 -11v-45z" />
    <glyph glyph-name="j" unicode="j" 
d="M410 630q0 -11 -11 -11h-90q-12 0 -12 11v90q0 11 12 11h90q11 0 11 -11v-90zM399 -67q0 -70 -49.5 -119.5t-119.5 -49.5t-119.5 49.5t-49.5 119.5v56q0 11 12 11h45q4 0 7.5 -3.5t3.5 -7.5v-56q0 -42 29.5 -72t71.5 -30t71.5 30t29.5 72v517h-191q-11 0 -11 11v45
q0 11 11 11h247q12 0 12 -11v-573z" />
    <glyph glyph-name="k" unicode="k" 
d="M490 18q6 -7 3 -12.5t-11 -5.5h-58q-5 0 -9 4l-199 249l-53 -53v-189q0 -11 -12 -11h-45q-11 0 -11 11v720q0 11 11 11h45q12 0 12 -11v-436l218 219q3 3 8 3h64q10 0 12.5 -6t-4.5 -13l-197 -197z" />
    <glyph glyph-name="l" unicode="l" 
d="M500 11q0 -11 -11 -11h-416q-12 0 -12 11v45q0 11 12 11h191v608h-146q-12 0 -12 11v45q0 11 12 11h202q11 0 11 -11v-664h158q11 0 11 -11v-45z" />
    <glyph glyph-name="m" unicode="m" 
d="M489 11q0 -11 -12 -11h-45q-4 0 -7.5 3.5t-3.5 7.5v394q0 23 -16.5 39.5t-39.5 16.5t-39.5 -16.5t-16.5 -39.5v-394q0 -11 -12 -11h-44q-12 0 -12 11v394q0 23 -16.5 39.5t-39.5 16.5t-39.5 -16.5t-16.5 -39.5v-394q0 -4 -3.5 -7.5t-7.5 -3.5h-45q-12 0 -12 11v495
q0 11 12 11h45q5 0 8 -3q28 15 59 15q53 0 90 -39q37 39 90 39q51 0 87.5 -36t36.5 -88v-394z" />
    <glyph glyph-name="n" unicode="n" 
d="M459 11q0 -11 -11 -11h-45q-11 0 -11 11v349q0 42 -29.5 71.5t-71.5 29.5h-23q-42 0 -71.5 -29.5t-29.5 -71.5v-349q0 -11 -11 -11h-45q-11 0 -11 11v495q0 11 11 11h45q11 0 11 -11v-11q45 34 101 34h23q70 0 119 -49.5t49 -119.5v-349z" />
    <glyph glyph-name="o" unicode="o" 
d="M455 157q0 -70 -49.5 -119t-119.5 -49h-22q-70 0 -119.5 49t-49.5 119v203q0 70 49.5 119.5t119.5 49.5h22q70 0 119.5 -49.5t49.5 -119.5v-203zM387 157v203q0 42 -29.5 71.5t-71.5 29.5h-22q-42 0 -71.5 -29.5t-29.5 -71.5v-203q0 -41 29.5 -71t71.5 -30h22
q42 0 71.5 30t29.5 71z" />
    <glyph glyph-name="p" unicode="p" 
d="M464 157q0 -70 -49.5 -119t-119.5 -49h-22q-57 0 -101 33v-236q0 -11 -12 -11h-45q-11 0 -11 11v720q0 11 11 11h45q12 0 12 -11v-11q45 34 101 34h22q70 0 119.5 -49.5t49.5 -119.5v-203zM396 157v203q0 42 -29.5 71.5t-71.5 29.5h-22q-42 0 -71.5 -29.5t-29.5 -71.5
v-203q0 -41 29.5 -71t71.5 -30h22q42 0 71.5 30t29.5 71z" />
    <glyph glyph-name="q" unicode="q" 
d="M446 -214q0 -11 -11 -11h-45q-12 0 -12 11v236q-44 -33 -101 -33h-22q-70 0 -119.5 49t-49.5 119v203q0 70 49.5 119.5t119.5 49.5h22q56 0 101 -34v11q0 11 12 11h45q11 0 11 -11v-720zM378 157v203q0 42 -29.5 71.5t-71.5 29.5h-22q-42 0 -71.5 -29.5t-29.5 -71.5v-203
q0 -41 29.5 -71t71.5 -30h22q42 0 71.5 30t29.5 71z" />
    <glyph glyph-name="r" unicode="r" 
d="M477 270q0 -11 -11 -11h-45q-11 0 -11 11v90q0 44 -30.5 72.5t-70.5 28.5h-23q-40 0 -70.5 -28.5t-30.5 -72.5v-293h191q11 0 11 -11v-45q0 -11 -11 -11h-337q-11 0 -11 11v45q0 11 11 11h79v293q0 68 48.5 118.5t119.5 50.5h23q71 0 119.5 -50.5t48.5 -118.5v-90z" />
    <glyph glyph-name="s" unicode="s" 
d="M466 146q0 -70 -49.5 -113.5t-119.5 -43.5h-33q-70 0 -119.5 43.5t-49.5 113.5v23q0 11 11 11h45q12 0 12 -11v-23q0 -39 28 -64.5t73 -25.5h33q45 0 73.5 25.5t28.5 64.5q0 30 -30 48.5t-73.5 29.5t-86.5 25t-73 45.5t-30 81.5q0 70 49.5 111.5t119.5 41.5h11
q69 0 119 -44t50 -114v-11q0 -11 -11 -11h-45q-12 0 -12 11v11q0 39 -28 64.5t-73 25.5h-11q-46 0 -73.5 -23.5t-27.5 -61.5q0 -30 30 -48.5t73 -29.5t86 -25t73 -45.5t30 -81.5z" />
    <glyph glyph-name="t" unicode="t" 
d="M477 157q0 -70 -49 -119t-119 -49t-119.5 49t-49.5 119v270h-79q-11 0 -11 12v45q0 11 11 11h79v236q0 11 11 11h45q12 0 12 -11v-236h213q11 0 11 -11v-45q0 -12 -11 -12h-213v-270q0 -41 29.5 -71t71.5 -30t71.5 30t29.5 71v23q0 11 11 11h45q11 0 11 -11v-23z" />
    <glyph glyph-name="u" unicode="u" 
d="M450 11q0 -11 -11 -11h-45q-11 0 -11 11v11q-44 -33 -101 -33h-23q-70 0 -119 49t-49 119v349q0 11 11 11h45q11 0 11 -11v-349q0 -41 29.5 -71t71.5 -30h23q42 0 71.5 30t29.5 71v349q0 11 11 11h45q11 0 11 -11v-495z" />
    <glyph glyph-name="v" unicode="v" 
d="M486 503l-173 -495q-2 -8 -11 -8h-54q-9 0 -11 8l-173 495q-5 14 10 14h48q9 0 11 -7l142 -416l142 416q2 7 11 7h48q15 0 10 -14z" />
    <glyph glyph-name="w" unicode="w" 
d="M507 506l-12 -228v-1l-43 -268q-2 -9 -11 -9h-90q-3 0 -6.5 3t-3.5 6l-47 227l-9 78h-19q-5 -55 -10 -78l-47 -227q0 -3 -3.5 -6t-6.5 -3h-90q-9 0 -11 9l-43 268v1l-12 228q0 11 11 11h46q9 0 11 -10l11 -222l16 -116l7 -100h21q5 54 14 100l41 205q2 8 11 8h86
q9 0 11 -8l41 -205l14 -100h21q1 54 7 100l16 116l11 222q2 10 11 10h46q11 0 11 -11z" />
    <glyph glyph-name="x" unicode="x" 
d="M479 17q5 -7 2 -12t-11 -5h-54q-6 0 -9 5l-132 201l-132 -201q-3 -5 -9 -5h-54q-8 0 -11 5t2 12l164 250l-154 233q-4 7 -1 12t11 5h53q8 0 10 -5l121 -184l121 184q2 5 10 5h53q8 0 11 -5t-1 -12l-154 -233z" />
    <glyph glyph-name="y" unicode="y" 
d="M455 503q-128 -463 -159 -569q-11 -38 -29.5 -62t-46 -35t-52 -14t-62.5 -3h-22q-11 0 -11 11v45q0 12 11 12h22q77 0 96.5 16.5t42.5 94.5q3 10 5 16l-148 488q-4 14 11 14h47q9 0 11 -8l111 -385l107 385q2 8 11 8h45q15 0 10 -14z" />
    <glyph glyph-name="z" unicode="z" 
d="M466 11q0 -11 -11 -11h-349q-11 0 -11 11v53l2 6l279 380h-258q-12 0 -12 11v45q0 11 12 11h326q11 0 11 -11v-52l-1 -3q-1 -3 -1 -4l-274 -380h276q11 0 11 -11v-45z" />
    <glyph glyph-name="braceleft" unicode="{" 
d="M432 -214q0 -11 -11 -11h-22q-70 0 -119.5 49.5t-49.5 119.5v180q0 42 -29.5 71.5t-71.5 29.5q-11 0 -11 11v45q0 11 11 11q42 0 71.5 30t29.5 72v180q0 70 49.5 119t119.5 49h22q11 0 11 -11v-45q0 -11 -11 -11h-22q-42 0 -72 -29.5t-30 -71.5v-180q0 -84 -67 -135
q67 -51 67 -135v-180q0 -42 30 -71.5t72 -29.5h22q11 0 11 -12v-45z" />
    <glyph glyph-name="bar" unicode="|" 
d="M309 -214q0 -11 -12 -11h-44q-12 0 -12 11v945q0 11 12 11h44q12 0 12 -11v-945z" />
    <glyph glyph-name="braceright" unicode="}" 
d="M432 236q0 -11 -11 -11q-42 0 -71.5 -29.5t-29.5 -71.5v-180q0 -70 -49.5 -119.5t-119.5 -49.5h-22q-11 0 -11 11v45q0 12 11 12h22q42 0 72 29.5t30 71.5v180q0 84 67 135q-67 51 -67 135v180q0 42 -30 71.5t-72 29.5h-22q-11 0 -11 11v45q5 11 11 11h22q70 0 119.5 -49
t49.5 -119v-180q0 -42 29.5 -72t71.5 -30q11 0 11 -11v-45z" />
    <glyph glyph-name="asciitilde" unicode="~" 
d="M466 292q0 -29 -18.5 -54.5t-47.5 -38.5t-69.5 -2.5t-79.5 49.5q-19 20 -36.5 28.5t-28.5 6.5t-19.5 -8.5t-12 -13.5t-3.5 -12v-22q0 -11 -11 -11h-45q-11 0 -11 11v22q0 40 30 71t82 29t103 -53q19 -20 36.5 -28.5t28.5 -6.5t19.5 8t12 13t3.5 12v23q0 11 11 11h45
q11 0 11 -11v-23z" />
    <glyph glyph-name="nbspace" unicode="&#xa0;" 
 />
    <glyph glyph-name="exclamdown" unicode="&#xa1;" 
d="M342 394q0 -12 -11 -12h-112q-11 0 -11 12v112q0 11 11 11h112q11 0 11 -11v-112zM309 -214q0 -11 -12 -11h-44q-12 0 -12 11v495q0 11 12 11h44q12 0 12 -11v-495z" />
    <glyph glyph-name="cent" unicode="&#xa2;" 
d="M455 157q0 -70 -49.5 -119t-119.5 -49h-22q-27 0 -49 7l-16 -45q-4 -11 -14 -7l-43 16q-10 4 -6 14l19 54q-60 50 -60 129v203q0 70 49.5 119.5t119.5 49.5h22q21 0 49 -7l16 44q4 11 14 7l43 -15q10 -4 6 -15l-19 -54q60 -50 60 -129q0 -11 -11 -11h-45q-12 0 -12 11
q0 34 -18 58l-131 -359q12 -3 26 -3h22q42 0 71.5 30t29.5 71q0 5 3.5 8.5t8.5 3.5h45q11 0 11 -12zM312 458q-12 3 -26 3h-22q-42 0 -71.5 -29.5t-29.5 -71.5v-203q0 -33 18 -58z" />
    <glyph glyph-name="sterling" unicode="&#xa3;" 
d="M489 11q0 -11 -12 -11h-449q-12 0 -12 11v45q0 11 12 11q41 0 71 30t30 72v168h-56q-5 0 -8.5 3.5t-3.5 8.5v45q0 11 12 11h56v180q0 70 49 119.5t119 49.5h23q70 0 119.5 -49.5t49.5 -119.5v-90q0 -11 -12 -11h-45q-4 0 -7.5 3.5t-3.5 7.5v90q0 42 -29.5 71.5
t-71.5 29.5h-23q-41 0 -71 -29.5t-30 -71.5v-180h191q12 0 12 -11v-45q0 -5 -3.5 -8.5t-8.5 -3.5h-191v-168q0 -56 -33 -102h314q12 0 12 -11v-45z" />
    <glyph glyph-name="yen" unicode="&#xa5;" 
d="M466 727l-140 -356h95q11 0 11 -11v-45q0 -11 -11 -11h-112v-45h112q11 0 11 -12v-45q0 -11 -11 -11h-112v-180q0 -11 -12 -11h-44q-12 0 -12 11v180h-112q-11 0 -11 11v45q0 12 11 12h112v45h-112q-11 0 -11 11v45q0 11 11 11h94l-139 356q-3 7 0 11t10 4h48q9 0 11 -7
l122 -320l122 320q2 7 10 7h49q7 0 10 -4t0 -11z" />
    <glyph glyph-name="brokenbar" unicode="&#xa6;" 
d="M309 461q0 -11 -12 -11h-44q-12 0 -12 11v270q0 11 12 11h44q12 0 12 -11v-270zM309 11q0 -11 -12 -11h-44q-12 0 -12 11v270q0 11 12 11h44q12 0 12 -11v-270z" />
    <glyph glyph-name="section" unicode="&#xa7;" 
d="M500 202q0 -60 -25 -102.5t-64 -61.5q44 -51 44 -117q0 -70 -49.5 -113.5t-119.5 -43.5h-33q-71 0 -120 49t-49 120v22q0 11 11 11h45q11 0 11 -11v-22q0 -42 30 -72t72 -30h33q45 0 73 25.5t28 64.5q0 38 -25 69t-62.5 51t-81 46t-81 52.5t-62.5 72t-25 103.5
q0 60 25 102.5t64 62.5q-44 49 -44 116q0 70 50 114t119 44h22q70 0 119.5 -49.5t49.5 -119.5q0 -11 -11 -11h-45q-12 0 -12 11q0 42 -29.5 71.5t-71.5 29.5h-22q-45 0 -73 -25.5t-28 -64.5q0 -33 18.5 -60t48.5 -46.5t66 -39t71.5 -42t65.5 -49t48.5 -67t18.5 -90.5z
M432 202q0 35 -13.5 64t-40.5 51.5t-51.5 37.5t-64 36.5t-60.5 35.5h-6q-25 0 -51.5 -28t-26.5 -84q0 -35 13.5 -63.5t40.5 -51t51.5 -38t64 -37t60.5 -35.5h6q25 0 51.5 28t26.5 84z" />
    <glyph glyph-name="dieresis" unicode="&#xa8;" 
d="M421 596q0 -11 -11 -11h-79q-11 0 -11 11v90q0 11 11 11h79q11 0 11 -11v-90zM230 596q0 -11 -11 -11h-79q-11 0 -11 11v90q0 11 11 11h79q11 0 11 -11v-90z" />
    <glyph glyph-name="copyright" unicode="&#xa9;" 
d="M477 506q0 -84 -59 -143t-143 -59t-143 59t-59 143v45q0 84 59 143.5t143 59.5t143 -59.5t59 -143.5v-45zM432 506v45q0 65 -46 111.5t-111 46.5t-111 -46.5t-46 -111.5v-45q0 -65 46 -111t111 -46t111 46t46 111zM376 484q0 -33 -23 -56t-56 -23h-44q-33 0 -56 23
t-23 56v90q0 32 23 55t56 23h44q33 0 56 -23t23 -55q0 -12 -11 -12h-23q-4 0 -7.5 4t-3.5 8q0 14 -10 23.5t-24 9.5h-44q-14 0 -24 -9.5t-10 -23.5v-90q0 -14 10 -24t24 -10h44q14 0 24 10t10 24q0 4 3.5 7.5t7.5 3.5h23q11 0 11 -11z" />
    <glyph glyph-name="ordfeminine" unicode="&#xaa;" 
d="M432 450q0 -11 -11 -11h-22q-38 0 -62 30q-36 -30 -84 -30h-12q-56 0 -95.5 39.5t-39.5 95.5v45q0 55 40 95t95 40h12q36 0 68 -19q2 7 10 7h45q11 0 11 -11v-214q0 -11 12 -11h22q11 0 11 -11v-45zM421 337q0 -11 -11 -11h-281q-11 0 -11 11v45q0 12 11 12h281
q11 0 11 -12v-45zM320 574v45q0 28 -19.5 47.5t-47.5 19.5h-12q-28 0 -47.5 -19.5t-19.5 -47.5v-45q0 -28 19.5 -48t47.5 -20h12q28 0 47.5 20t19.5 48z" />
    <glyph glyph-name="guillemotleft" unicode="&#xab;" 
d="M432 107q5 -7 2 -12t-11 -5h-52q-7 0 -9 5l-94 141l-2 6v33l2 6l94 141q2 5 9 5h52q8 0 11 -5t-2 -12l-99 -149v-5zM284 107q5 -7 2 -12t-11 -5h-52q-5 0 -10 5l-94 141l-1 6v33l1 6l94 141q5 5 10 5h52q8 0 11 -5t-2 -12l-99 -149v-5z" />
    <glyph glyph-name="logicalnot" unicode="&#xac;" 
d="M432 157q0 -11 -11 -11h-45q-11 0 -11 11v79h-236q-11 0 -11 11v45q0 12 11 12h292q11 0 11 -12v-135z" />
    <glyph glyph-name="registered" unicode="&#xae;" 
d="M477 506q0 -84 -59 -143t-143 -59t-143 59t-59 143v45q0 84 59 143.5t143 59.5t143 -59.5t59 -143.5v-45zM432 506v45q0 65 -46 111.5t-111 46.5t-111 -46.5t-46 -111.5v-45q0 -65 46 -111t111 -46t111 46t46 111zM376 422q4 -7 1.5 -12t-10.5 -5h-27q-4 0 -9 5l-44 74
h-57v-68q0 -11 -11 -11h-23q-11 0 -11 11v225q0 11 11 11h101q33 0 56 -23t23 -55v-12q0 -47 -42 -69zM331 562v12q0 14 -10 23.5t-24 9.5h-67v-78h67q14 0 24 9.5t10 23.5z" />
    <glyph glyph-name="macron" unicode="&#xaf;" 
d="M432 630q0 -11 -11 -11h-292q-11 0 -11 11v45q0 11 11 11h292q11 0 11 -11v-45z" />
    <glyph glyph-name="degree" unicode="&#xb0;" 
d="M432 540q0 -70 -49 -119.5t-119 -49.5t-119.5 49.5t-49.5 119.5v45q0 70 49.5 119.5t119.5 49.5t119 -49.5t49 -119.5v-45zM365 540v45q0 42 -29.5 71.5t-71.5 29.5t-71.5 -29.5t-29.5 -71.5v-45q0 -42 29.5 -71.5t71.5 -29.5t71.5 29.5t29.5 71.5z" />
    <glyph glyph-name="plusminus" unicode="&#xb1;" 
d="M432 349q0 -12 -11 -12h-112v-67q0 -11 -12 -11h-44q-12 0 -12 11v67h-112q-11 0 -11 12v45q0 11 11 11h112v67q0 4 3.5 8t8.5 4h44q5 0 8.5 -4t3.5 -8v-67h112q11 0 11 -11v-45zM432 146q0 -11 -11 -11h-292q-11 0 -11 11v45q0 11 11 11h292q11 0 11 -11v-45z" />
    <glyph glyph-name="twosuperior" unicode="&#xb2;" 
d="M247 461q0 -11 -11 -11h-163q-12 0 -12 11v46q0 26 19.5 51t42.5 41.5t42.5 35.5t19.5 34q0 12 -8.5 20t-19.5 8h-11q-12 0 -20.5 -8t-8.5 -20q0 -11 -11 -11h-34q-4 0 -7.5 3.5t-3.5 7.5q0 35 25 60t60 25h11q35 0 59.5 -25t24.5 -60q0 -27 -19.5 -53.5t-42.5 -43.5
t-42 -35t-19 -30v-1h118q11 0 11 -11v-34z" />
    <glyph glyph-name="threesuperior" unicode="&#xb3;" 
d="M253 523q0 -35 -25 -59.5t-60 -24.5h-22q-35 0 -60 24.5t-25 59.5q0 11 12 11h33q12 0 12 -11t8 -19.5t20 -8.5h22q12 0 20 8.5t8 19.5v23q0 11 -8 19.5t-20 8.5h-39q-11 0 -11 11v46q0 5 3 8l47 47h-79q-11 0 -11 11v34q0 11 11 11h141q11 0 11 -11v-46q0 -5 -3 -8
l-49 -49q28 -8 46 -30.5t18 -51.5v-23z" />
    <glyph glyph-name="acute" unicode="&#xb4;" 
d="M407 701l-113 -113q-3 -3 -8 -3h-45q-8 0 -11 5.5t2 12.5l90 113q4 4 9 4h68q9 0 12 -6t-4 -13z" />
    <glyph glyph-name="mu" unicode="&#xb5;" 
d="M455 11q0 -11 -11 -11h-45q-12 0 -12 11v11q-44 -33 -101 -33h-22q-57 0 -101 33v-236q0 -11 -12 -11h-45q-11 0 -11 11v720q0 11 11 11h45q12 0 12 -11v-349q0 -41 29.5 -71t71.5 -30h22q42 0 71.5 30t29.5 71v349q0 11 12 11h45q11 0 11 -11v-495z" />
    <glyph glyph-name="paragraph" unicode="&#xb6;" 
d="M444 -214q0 -11 -12 -11h-45q-4 0 -7.5 3.5t-3.5 7.5v889h-67v-889q0 -11 -12 -11h-44q-12 0 -12 11v563h-11q-70 0 -119.5 49t-49.5 119v57q0 70 49.5 119t119.5 49h202q12 0 12 -11v-945z" />
    <glyph glyph-name="periodcentered" unicode="&#xb7;" 
d="M342 259q0 -28 -19.5 -48t-47.5 -20t-47.5 20t-19.5 48t19.5 47.5t47.5 19.5t47.5 -19.5t19.5 -47.5z" />
    <glyph glyph-name="cedilla" unicode="&#xb8;" 
d="M331 11l-38 -116q-5 -7 -11 -7h-48q-16 0 -8 21l34 102h71z" />
    <glyph glyph-name="onesuperior" unicode="&#xb9;" 
d="M253 450q0 -11 -12 -11h-168q-12 0 -12 11v34q0 11 12 11h61v178l-31 -31q-7 -7 -16 0l-23 24q-10 8 0 16l57 57q5 3 8 3h50q12 0 12 -11v-236h50q12 0 12 -11v-34z" />
    <glyph glyph-name="ordmasculine" unicode="&#xba;" 
d="M399 574q0 -56 -39.5 -95.5t-95.5 -39.5h-23q-56 0 -95.5 39.5t-39.5 95.5v45q0 55 40 95t95 40h23q56 0 95.5 -40t39.5 -95v-45zM387 337q0 -11 -11 -11h-247q-11 0 -11 11v45q0 12 11 12h247q11 0 11 -12v-45zM331 574v45q0 28 -19.5 47.5t-47.5 19.5h-23
q-28 0 -47.5 -19.5t-19.5 -47.5v-45q0 -28 19.5 -48t47.5 -20h23q28 0 47.5 20t19.5 48z" />
    <glyph glyph-name="guillemotright" unicode="&#xbb;" 
d="M432 242q-1 -5 -1 -6l-94 -141q-5 -5 -10 -5h-52q-8 0 -11 5t2 12l99 149v5l-99 149q-5 7 -2 12t11 5h52q5 0 10 -5l94 -141q1 -5 1 -6v-33zM284 242q-2 -5 -2 -6l-94 -141q-2 -5 -9 -5h-52q-8 0 -11 5t2 12l99 149v5l-99 149q-5 7 -2 12t11 5h52q7 0 9 -5l94 -141
q2 -5 2 -6v-33z" />
    <glyph glyph-name="onequarter" unicode="&#xbc;" 
d="M253 450q0 -11 -12 -11h-168q-12 0 -12 11v34q0 11 12 11h61v178l-31 -31q-7 -7 -16 0l-23 24q-10 8 0 16l57 57q5 3 8 3h50q12 0 12 -11v-236h50q12 0 12 -11v-34zM441 490l-286 -285q-7 -7 -15 0l-32 32q-7 7 0 16l285 285q8 8 16 0l32 -32q7 -7 0 -16zM477 62
q0 -11 -11 -11h-28v-40q0 -11 -11 -11h-34q-11 0 -11 11v40h-101q-11 0 -11 11v54q0 3 1 5l83 176q2 7 10 7h37q8 0 11 -4.5t0 -11.5l-86 -181h56v39q0 11 11 11h34q11 0 11 -11v-39h28q11 0 11 -11v-34z" />
    <glyph glyph-name="onehalf" unicode="&#xbd;" 
d="M253 450q0 -11 -12 -11h-168q-12 0 -12 11v34q0 11 12 11h61v178l-31 -31q-7 -7 -16 0l-23 24q-10 8 0 16l57 57q5 3 8 3h50q12 0 12 -11v-236h50q12 0 12 -11v-34zM441 490l-286 -285q-7 -7 -15 0l-32 32q-7 7 0 16l285 285q8 8 16 0l32 -32q7 -7 0 -16zM489 11
q0 -11 -12 -11h-163q-11 0 -11 11v46q0 26 19.5 51t42.5 41.5t42.5 35.5t19.5 34q0 12 -8.5 20t-19.5 8h-12q-11 0 -19.5 -8t-8.5 -20q0 -11 -11 -11h-34q-11 0 -11 11q0 35 24.5 60t59.5 25h12q35 0 59.5 -25t24.5 -60q0 -27 -19.5 -53.5t-42.5 -43.5t-42.5 -35t-19.5 -30
v-1h118q12 0 12 -11v-34z" />
    <glyph glyph-name="threequarters" unicode="&#xbe;" 
d="M253 523q0 -35 -25 -59.5t-60 -24.5h-22q-35 0 -60 24.5t-25 59.5q0 11 12 11h33q12 0 12 -11t8 -19.5t20 -8.5h22q12 0 20 8.5t8 19.5v23q0 11 -8 19.5t-20 8.5h-39q-11 0 -11 11v46q0 5 3 8l47 47h-79q-11 0 -11 11v34q0 11 11 11h141q11 0 11 -11v-46q0 -5 -3 -8
l-49 -49q28 -8 46 -30.5t18 -51.5v-23zM441 490l-286 -285q-7 -7 -15 0l-32 32q-7 7 0 16l285 285q8 8 16 0l32 -32q7 -7 0 -16zM477 62q0 -11 -11 -11h-28v-40q0 -11 -11 -11h-34q-11 0 -11 11v40h-101q-11 0 -11 11v54q0 3 1 5l83 176q2 7 10 7h37q8 0 11 -4.5t0 -11.5
l-86 -181h56v39q0 11 11 11h34q11 0 11 -11v-39h28q11 0 11 -11v-34z" />
    <glyph glyph-name="questiondown" unicode="&#xbf;" 
d="M365 394q0 -12 -11 -12h-113q-11 0 -11 12v112q0 11 11 11h113q11 0 11 -11v-112zM455 -68q0 -70 -49.5 -119t-119.5 -49h-22q-70 0 -119.5 49t-49.5 119v23q0 110 115 196q36 27 45 51t9 68v11q0 11 11 11h45q11 0 11 -11v-11q0 -38 -3.5 -60.5t-22 -54t-55.5 -58.5
q-54 -41 -70.5 -74.5t-16.5 -67.5v-23q0 -41 29.5 -71t71.5 -30h22q42 0 71.5 30t29.5 71v34q0 11 12 11h45q11 0 11 -11v-34z" />
    <glyph glyph-name="Agrave" unicode="&#xc0;" 
d="M455 11q0 -11 -11 -11h-45q-12 0 -12 11v236h-225v-236q0 -11 -11 -11h-45q-11 0 -11 11v273v3l118 447q2 8 11 8h102q9 0 11 -8l118 -447v-3v-273zM377 315l-94 360h-16l-94 -360h204zM318 828q5 -7 2 -12.5t-11 -5.5h-45q-5 0 -8 3l-113 113q-7 7 -4 13t12 6h68
q5 0 9 -4z" />
    <glyph glyph-name="Aacute" unicode="&#xc1;" 
d="M455 11q0 -11 -11 -11h-45q-12 0 -12 11v236h-225v-236q0 -11 -11 -11h-45q-11 0 -11 11v273v3l118 447q2 8 11 8h102q9 0 11 -8l118 -447v-3v-273zM377 315l-94 360h-16l-94 -360h204zM407 926l-113 -113q-3 -3 -8 -3h-45q-8 0 -11 5.5t2 12.5l90 113q4 4 9 4h68
q9 0 12 -6t-4 -13z" />
    <glyph glyph-name="Acircumflex" unicode="&#xc2;" 
d="M455 11q0 -11 -11 -11h-45q-12 0 -12 11v236h-225v-236q0 -11 -11 -11h-45q-11 0 -11 11v273v3l118 447q2 8 11 8h102q9 0 11 -8l118 -447v-3v-273zM377 315l-94 360h-16l-94 -360h204zM413 828q5 -7 2.5 -12.5t-11.5 -5.5h-45q-5 0 -8 3l-76 77l-76 -77q-3 -3 -8 -3h-45
q-9 0 -11.5 5.5t2.5 12.5l90 113q4 4 9 4h78q5 0 9 -4z" />
    <glyph glyph-name="Atilde" unicode="&#xc3;" 
d="M455 11q0 -11 -11 -11h-45q-12 0 -12 11v236h-225v-236q0 -11 -11 -11h-45q-11 0 -11 11v273v3l118 447q2 8 11 8h102q9 0 11 -8l118 -447v-3v-273zM377 315l-94 360h-16l-94 -360h204zM416 889q0 -58 -48.5 -77t-108.5 20q-25 16 -41.5 16t-21.5 -8t-5 -19t-12 -11h-33
q-12 0 -12 11q0 58 48.5 77t108.5 -20q25 -16 41.5 -16t21.5 8t5 19t12 11h33q12 0 12 -11z" />
    <glyph glyph-name="Adieresis" unicode="&#xc4;" 
d="M455 11q0 -11 -11 -11h-45q-12 0 -12 11v236h-225v-236q0 -11 -11 -11h-45q-11 0 -11 11v273v3l118 447q2 8 11 8h102q9 0 11 -8l118 -447v-3v-273zM377 315l-94 360h-16l-94 -360h204zM421 844q0 -12 -11 -12h-79q-11 0 -11 12v90q0 11 11 11h79q11 0 11 -11v-90z
M230 844q0 -12 -11 -12h-79q-11 0 -11 12v90q0 11 11 11h79q11 0 11 -11v-90z" />
    <glyph glyph-name="Aring" unicode="&#xc5;" 
d="M455 11q0 -11 -11 -11h-45q-12 0 -12 11v236h-225v-236q0 -11 -11 -11h-45q-11 0 -11 11v273v3l118 447q2 8 11 8h102q9 0 11 -8l118 -447v-3v-273zM377 315l-94 360h-16l-94 -360h204zM365 866q0 -37 -26.5 -63.5t-63.5 -26.5t-63.5 26.5t-26.5 63.5q0 38 26.5 64
t63.5 26t63.5 -26t26.5 -64zM309 866q0 14 -10 24t-24 10t-24 -10t-10 -24t10 -24t24 -10t24 10t10 24z" />
    <glyph glyph-name="AE" unicode="&#xc6;" 
d="M489 11q0 -11 -12 -11h-202q-11 0 -11 11v236h-135v-236q0 -4 -3.5 -7.5t-7.5 -3.5h-45q-12 0 -12 11v273l1 3l117 447q2 8 11 8h287q12 0 12 -11v-45q0 -11 -12 -11h-146v-270h124q11 0 11 -11v-45q0 -12 -11 -12h-124v-270h146q12 0 12 -11v-45zM264 315v360h-30
l-95 -360h125z" />
    <glyph glyph-name="Ccedilla" unicode="&#xc7;" 
d="M466 157q0 -66 -44 -114t-109 -54l-32 -94q-2 -7 -10 -7h-48q-16 0 -8 21l27 81q-63 8 -105 56t-42 111v428q0 70 49.5 119.5t119.5 49.5h33q70 0 119.5 -49.5t49.5 -119.5v-23q0 -11 -11 -11h-45q-11 0 -11 11v23q0 42 -30 71.5t-72 29.5h-33q-42 0 -71.5 -29.5
t-29.5 -71.5v-428q0 -41 29.5 -71t71.5 -30h33q42 0 72 30t30 71v34q0 11 11 11h45q11 0 11 -11v-34z" />
    <glyph glyph-name="Egrave" unicode="&#xc8;" 
d="M466 11q0 -11 -11 -11h-338q-4 0 -7.5 3.5t-3.5 7.5v720q0 4 3.5 7.5t7.5 3.5h338q11 0 11 -11v-45q0 -11 -11 -11h-281v-270h258q12 0 12 -11v-45q0 -5 -4 -8.5t-8 -3.5h-258v-270h281q11 0 11 -11v-45zM318 828q5 -7 2 -12.5t-11 -5.5h-45q-5 0 -8 3l-113 113
q-7 7 -4 13t12 6h68q5 0 9 -4z" />
    <glyph glyph-name="Eacute" unicode="&#xc9;" 
d="M466 11q0 -11 -11 -11h-338q-4 0 -7.5 3.5t-3.5 7.5v720q0 4 3.5 7.5t7.5 3.5h338q11 0 11 -11v-45q0 -11 -11 -11h-281v-270h258q12 0 12 -11v-45q0 -5 -4 -8.5t-8 -3.5h-258v-270h281q11 0 11 -11v-45zM407 926l-113 -113q-3 -3 -8 -3h-45q-8 0 -11 5.5t2 12.5l90 113
q4 4 9 4h68q9 0 12 -6t-4 -13z" />
    <glyph glyph-name="Ecircumflex" unicode="&#xca;" 
d="M466 11q0 -11 -11 -11h-338q-4 0 -7.5 3.5t-3.5 7.5v720q0 4 3.5 7.5t7.5 3.5h338q11 0 11 -11v-45q0 -11 -11 -11h-281v-270h258q12 0 12 -11v-45q0 -5 -4 -8.5t-8 -3.5h-258v-270h281q11 0 11 -11v-45zM424 828q6 -7 3 -12.5t-11 -5.5h-45q-8 0 -8 3l-77 77l-76 -77
q-3 -3 -8 -3h-45q-9 0 -11.5 5.5t2.5 12.5l90 113q4 4 9 4h79q4 0 8 -4z" />
    <glyph glyph-name="Edieresis" unicode="&#xcb;" 
d="M466 11q0 -11 -11 -11h-338q-4 0 -7.5 3.5t-3.5 7.5v720q0 4 3.5 7.5t7.5 3.5h338q11 0 11 -11v-45q0 -11 -11 -11h-281v-270h258q12 0 12 -11v-45q0 -5 -4 -8.5t-8 -3.5h-258v-270h281q11 0 11 -11v-45zM421 844q0 -12 -11 -12h-79q-11 0 -11 12v90q0 11 11 11h79
q11 0 11 -11v-90zM230 844q0 -12 -11 -12h-79q-11 0 -11 12v90q0 11 11 11h79q11 0 11 -11v-90z" />
    <glyph glyph-name="Igrave" unicode="&#xcc;" 
d="M466 11q0 -11 -11 -11h-360q-11 0 -11 11v45q0 11 11 11h146v608h-135q-11 0 -11 11v45q0 11 11 11h338q11 0 11 -11v-45q0 -11 -11 -11h-135v-608h146q11 0 11 -11v-45zM318 828q5 -7 2 -12.5t-11 -5.5h-45q-5 0 -8 3l-113 113q-7 7 -4 13t12 6h68q5 0 9 -4z" />
    <glyph glyph-name="Iacute" unicode="&#xcd;" 
d="M466 11q0 -11 -11 -11h-360q-11 0 -11 11v45q0 11 11 11h146v608h-135q-11 0 -11 11v45q0 11 11 11h338q11 0 11 -11v-45q0 -11 -11 -11h-135v-608h146q11 0 11 -11v-45zM407 926l-113 -113q-3 -3 -8 -3h-45q-8 0 -11 5.5t2 12.5l90 113q4 4 9 4h68q9 0 12 -6t-4 -13z
" />
    <glyph glyph-name="Icircumflex" unicode="&#xce;" 
d="M466 11q0 -11 -11 -11h-360q-11 0 -11 11v45q0 11 11 11h146v608h-135q-11 0 -11 11v45q0 11 11 11h338q11 0 11 -11v-45q0 -11 -11 -11h-135v-608h146q11 0 11 -11v-45zM413 828q5 -7 2.5 -12.5t-11.5 -5.5h-45q-5 0 -8 3l-76 77l-76 -77q-3 -3 -8 -3h-45
q-9 0 -11.5 5.5t2.5 12.5l90 113q4 4 9 4h78q5 0 9 -4z" />
    <glyph glyph-name="Idieresis" unicode="&#xcf;" 
d="M466 11q0 -11 -11 -11h-360q-11 0 -11 11v45q0 11 11 11h146v608h-135q-11 0 -11 11v45q0 11 11 11h338q11 0 11 -11v-45q0 -11 -11 -11h-135v-608h146q11 0 11 -11v-45zM421 844q0 -12 -11 -12h-79q-11 0 -11 12v90q0 11 11 11h79q11 0 11 -11v-90zM230 844
q0 -12 -11 -12h-79q-11 0 -11 12v90q0 11 11 11h79q11 0 11 -11v-90z" />
    <glyph glyph-name="Eth" unicode="&#xd0;" 
d="M464 169q0 -70 -49.5 -119.5t-119.5 -49.5h-180q-11 0 -11 11v326h-67q-5 0 -8.5 3.5t-3.5 8.5v45q0 11 12 11h67v326q0 11 11 11h180q70 0 119.5 -49t49.5 -119v-405zM396 169v405q0 42 -29.5 71.5t-71.5 29.5h-123v-270h112q11 0 11 -11v-45q0 -12 -11 -12h-112v-270
h123q42 0 71.5 30t29.5 72z" />
    <glyph glyph-name="Ntilde" unicode="&#xd1;" 
d="M471 11q0 -11 -12 -11h-96q-9 0 -11 7l-177 567l-15 82h-20q7 -60 7 -82v-563q0 -11 -12 -11h-45q-4 0 -7.5 3.5t-3.5 7.5v720q0 4 3.5 7.5t7.5 3.5h97q9 0 11 -7l177 -566l15 -83h20q-7 60 -7 83v562q0 4 3.5 7.5t7.5 3.5h45q12 0 12 -11v-720zM416 889q0 -58 -48.5 -77
t-108.5 20q-25 16 -41.5 16t-21.5 -8t-5 -19t-12 -11h-33q-12 0 -12 11q0 58 48.5 77t108.5 -20q25 -16 41.5 -16t21.5 8t5 19t12 11h33q12 0 12 -11z" />
    <glyph glyph-name="Ograve" unicode="&#xd2;" 
d="M461 157q0 -70 -49.5 -119t-119.5 -49h-34q-70 0 -119.5 49t-49.5 119v428q0 70 49.5 119.5t119.5 49.5h34q70 0 119.5 -49.5t49.5 -119.5v-428zM393 157v428q0 42 -29.5 71.5t-71.5 29.5h-34q-42 0 -71.5 -29.5t-29.5 -71.5v-428q0 -41 29.5 -71t71.5 -30h34
q42 0 71.5 30t29.5 71zM318 828q5 -7 2 -12.5t-11 -5.5h-45q-5 0 -8 3l-113 113q-7 7 -4 13t12 6h68q5 0 9 -4z" />
    <glyph glyph-name="Oacute" unicode="&#xd3;" 
d="M461 157q0 -70 -49.5 -119t-119.5 -49h-34q-70 0 -119.5 49t-49.5 119v428q0 70 49.5 119.5t119.5 49.5h34q70 0 119.5 -49.5t49.5 -119.5v-428zM393 157v428q0 42 -29.5 71.5t-71.5 29.5h-34q-42 0 -71.5 -29.5t-29.5 -71.5v-428q0 -41 29.5 -71t71.5 -30h34
q42 0 71.5 30t29.5 71zM407 926l-113 -113q-3 -3 -8 -3h-45q-8 0 -11 5.5t2 12.5l90 113q4 4 9 4h68q9 0 12 -6t-4 -13z" />
    <glyph glyph-name="Ocircumflex" unicode="&#xd4;" 
d="M461 157q0 -70 -49.5 -119t-119.5 -49h-34q-70 0 -119.5 49t-49.5 119v428q0 70 49.5 119.5t119.5 49.5h34q70 0 119.5 -49.5t49.5 -119.5v-428zM393 157v428q0 42 -29.5 71.5t-71.5 29.5h-34q-42 0 -71.5 -29.5t-29.5 -71.5v-428q0 -41 29.5 -71t71.5 -30h34
q42 0 71.5 30t29.5 71zM413 828q5 -7 2.5 -12.5t-11.5 -5.5h-45q-5 0 -8 3l-76 77l-76 -77q-3 -3 -8 -3h-45q-9 0 -11.5 5.5t2.5 12.5l90 113q4 4 9 4h78q5 0 9 -4z" />
    <glyph glyph-name="Otilde" unicode="&#xd5;" 
d="M461 157q0 -70 -49.5 -119t-119.5 -49h-34q-70 0 -119.5 49t-49.5 119v428q0 70 49.5 119.5t119.5 49.5h34q70 0 119.5 -49.5t49.5 -119.5v-428zM393 157v428q0 42 -29.5 71.5t-71.5 29.5h-34q-42 0 -71.5 -29.5t-29.5 -71.5v-428q0 -41 29.5 -71t71.5 -30h34
q42 0 71.5 30t29.5 71zM416 889q0 -58 -48.5 -77t-108.5 20q-25 16 -41.5 16t-21.5 -8t-5 -19t-12 -11h-33q-12 0 -12 11q0 58 48.5 77t108.5 -20q25 -16 41.5 -16t21.5 8t5 19t12 11h33q12 0 12 -11z" />
    <glyph glyph-name="Odieresis" unicode="&#xd6;" 
d="M461 157q0 -70 -49.5 -119t-119.5 -49h-34q-70 0 -119.5 49t-49.5 119v428q0 70 49.5 119.5t119.5 49.5h34q70 0 119.5 -49.5t49.5 -119.5v-428zM393 157v428q0 42 -29.5 71.5t-71.5 29.5h-34q-42 0 -71.5 -29.5t-29.5 -71.5v-428q0 -41 29.5 -71t71.5 -30h34
q42 0 71.5 30t29.5 71zM421 844q0 -12 -11 -12h-79q-11 0 -11 12v90q0 11 11 11h79q11 0 11 -11v-90zM230 844q0 -12 -11 -12h-79q-11 0 -11 12v90q0 11 11 11h79q11 0 11 -11v-90z" />
    <glyph glyph-name="multiply" unicode="&#xd7;" 
d="M418 175q7 -9 0 -16l-32 -32q-7 -7 -16 0l-95 95l-95 -95q-9 -7 -16 0l-32 32q-7 7 0 16l95 95l-95 95q-7 9 0 16l32 32q7 7 16 0l95 -95l95 95q9 7 16 0l32 -32q7 -7 0 -16l-95 -95z" />
    <glyph glyph-name="Oslash" unicode="&#xd8;" 
d="M461 157q0 -70 -49.5 -119t-119.5 -49h-34q-41 0 -79 19l-19 -50q-4 -10 -14 -7l-42 16q-10 3 -7 14l27 74q-35 45 -35 102v428q0 70 49.5 119.5t119.5 49.5h34q42 0 79 -20l19 51q4 9 14 6l42 -15q11 -4 7 -15l-27 -74q35 -45 35 -102v-428zM348 670q-26 16 -56 16h-34
q-42 0 -71.5 -29.5t-29.5 -71.5v-428v-10zM393 157v428v11l-191 -523q25 -17 56 -17h34q42 0 71.5 30t29.5 71z" />
    <glyph glyph-name="Ugrave" unicode="&#xd9;" 
d="M455 157q0 -70 -49.5 -119t-119.5 -49h-22q-70 0 -119.5 49t-49.5 119v574q0 11 11 11h45q11 0 11 -11v-574q0 -41 30 -71t72 -30h22q42 0 71.5 30t29.5 71v574q0 11 12 11h45q11 0 11 -11v-574zM318 828q5 -7 2 -12.5t-11 -5.5h-45q-5 0 -8 3l-113 113q-7 7 -4 13t12 6
h68q5 0 9 -4z" />
    <glyph glyph-name="Uacute" unicode="&#xda;" 
d="M455 157q0 -70 -49.5 -119t-119.5 -49h-22q-70 0 -119.5 49t-49.5 119v574q0 11 11 11h45q11 0 11 -11v-574q0 -41 30 -71t72 -30h22q42 0 71.5 30t29.5 71v574q0 11 12 11h45q11 0 11 -11v-574zM407 926l-113 -113q-3 -3 -8 -3h-45q-8 0 -11 5.5t2 12.5l90 113q4 4 9 4
h68q9 0 12 -6t-4 -13z" />
    <glyph glyph-name="Ucircumflex" unicode="&#xdb;" 
d="M455 157q0 -70 -49.5 -119t-119.5 -49h-22q-70 0 -119.5 49t-49.5 119v574q0 11 11 11h45q11 0 11 -11v-574q0 -41 30 -71t72 -30h22q42 0 71.5 30t29.5 71v574q0 11 12 11h45q11 0 11 -11v-574zM413 828q5 -7 2.5 -12.5t-11.5 -5.5h-45q-5 0 -8 3l-76 77l-76 -77
q-3 -3 -8 -3h-45q-9 0 -11.5 5.5t2.5 12.5l90 113q4 4 9 4h78q5 0 9 -4z" />
    <glyph glyph-name="Udieresis" unicode="&#xdc;" 
d="M455 157q0 -70 -49.5 -119t-119.5 -49h-22q-70 0 -119.5 49t-49.5 119v574q0 11 11 11h45q11 0 11 -11v-574q0 -41 30 -71t72 -30h22q42 0 71.5 30t29.5 71v574q0 11 12 11h45q11 0 11 -11v-574zM421 844q0 -12 -11 -12h-79q-11 0 -11 12v90q0 11 11 11h79q11 0 11 -11
v-90zM230 844q0 -12 -11 -12h-79q-11 0 -11 12v90q0 11 11 11h79q11 0 11 -11v-90z" />
    <glyph glyph-name="Yacute" unicode="&#xdd;" 
d="M466 727l-157 -402v-314q0 -11 -12 -11h-45q-4 0 -7.5 3.5t-3.5 7.5v314l-157 402q-3 7 0 11t10 4h48q9 0 11 -7l122 -320l122 320q2 7 10 7h49q7 0 10 -4t0 -11zM407 926l-113 -113q-3 -3 -8 -3h-45q-8 0 -11 5.5t2 12.5l90 113q4 4 9 4h68q9 0 12 -6.5t-4 -12.5z" />
    <glyph glyph-name="Thorn" unicode="&#xde;" 
d="M464 315q0 -70 -49.5 -119.5t-119.5 -49.5h-22q-56 0 -101 34v-169q0 -11 -12 -11h-45q-11 0 -11 11v720q0 11 11 11h45q12 0 12 -11v-168q44 33 101 33h22q70 0 119.5 -49.5t49.5 -119.5v-112zM396 315v112q0 42 -29.5 72t-71.5 30h-22q-42 0 -71.5 -30t-29.5 -72v-112
q0 -42 29.5 -71.5t71.5 -29.5h22q42 0 71.5 29.5t29.5 71.5z" />
    <glyph glyph-name="germandbls" unicode="&#xdf;" 
d="M475 169q0 -70 -49.5 -119.5t-119.5 -49.5h-78q-11 0 -11 11v45q0 11 11 11h78q42 0 72 30t30 72v67q0 42 -30 71.5t-72 29.5h-56q-11 0 -11 12v45q0 11 11 11h45q42 0 71.5 29.5t29.5 71.5v79q0 42 -29.5 71.5t-71.5 29.5h-22q-42 0 -71.5 -29.5t-29.5 -71.5v-574
q0 -11 -12 -11h-45q-11 0 -11 11v574q0 70 49.5 119.5t119.5 49.5h22q70 0 119.5 -49.5t49.5 -119.5v-79q0 -80 -62 -131q73 -50 73 -139v-67z" />
    <glyph glyph-name="agrave" unicode="&#xe0;" 
d="M500 11q0 -11 -11 -11h-23q-46 0 -69 41q-58 -52 -133 -52h-23q-62 0 -104 38.5t-42 96.5v22q0 52 30 86.5t73 49.5t86 25t73 25t30 39q0 39 -28 64.5t-73 25.5h-11q-42 0 -71.5 -29.5t-29.5 -71.5v-23q0 -4 -4 -7.5t-8 -3.5h-45q-4 0 -7.5 3.5t-3.5 7.5v23
q0 70 49.5 119.5t119.5 49.5h11q69 0 119 -44t50 -114v-292q0 -12 11 -12h23q11 0 11 -11v-45zM387 157v117q-18 -9 -58 -21q-4 -1 -37 -9.5t-47.5 -14t-38 -17.5t-34 -28.5t-10.5 -37.5v-22q0 -28 21 -48t58 -20h23q46 0 84.5 32t38.5 69zM329 603q5 -7 2.5 -12.5
t-11.5 -5.5h-45q-5 0 -8 3l-112 113q-7 7 -4.5 13t11.5 6h68q5 0 9 -4z" />
    <glyph glyph-name="aacute" unicode="&#xe1;" 
d="M500 11q0 -11 -11 -11h-23q-46 0 -69 41q-58 -52 -133 -52h-23q-62 0 -104 38.5t-42 96.5v22q0 52 30 86.5t73 49.5t86 25t73 25t30 39q0 39 -28 64.5t-73 25.5h-11q-42 0 -71.5 -29.5t-29.5 -71.5v-23q0 -4 -4 -7.5t-8 -3.5h-45q-4 0 -7.5 3.5t-3.5 7.5v23
q0 70 49.5 119.5t119.5 49.5h11q69 0 119 -44t50 -114v-292q0 -12 11 -12h23q11 0 11 -11v-45zM387 157v117q-18 -9 -58 -21q-4 -1 -37 -9.5t-47.5 -14t-38 -17.5t-34 -28.5t-10.5 -37.5v-22q0 -28 21 -48t58 -20h23q46 0 84.5 32t38.5 69zM395 701l-112 -113q-3 -3 -8 -3
h-45q-9 0 -11.5 5.5t2.5 12.5l90 113q4 4 9 4h67q10 0 12.5 -6t-4.5 -13z" />
    <glyph glyph-name="acircumflex" unicode="&#xe2;" 
d="M500 11q0 -11 -11 -11h-23q-46 0 -69 41q-58 -52 -133 -52h-23q-62 0 -104 38.5t-42 96.5v22q0 52 30 86.5t73 49.5t86 25t73 25t30 39q0 39 -28 64.5t-73 25.5h-11q-42 0 -71.5 -29.5t-29.5 -71.5v-23q0 -4 -4 -7.5t-8 -3.5h-45q-4 0 -7.5 3.5t-3.5 7.5v23
q0 70 49.5 119.5t119.5 49.5h11q69 0 119 -44t50 -114v-292q0 -12 11 -12h23q11 0 11 -11v-45zM387 157v117q-18 -9 -58 -21q-4 -1 -37 -9.5t-47.5 -14t-38 -17.5t-34 -28.5t-10.5 -37.5v-22q0 -28 21 -48t58 -20h23q46 0 84.5 32t38.5 69zM424 603q6 -7 3 -12.5t-11 -5.5
h-45q-8 0 -8 3l-77 77l-76 -77q-3 -3 -8 -3h-45q-9 0 -11.5 5.5t2.5 12.5l90 113q4 4 9 4h79q4 0 8 -4z" />
    <glyph glyph-name="atilde" unicode="&#xe3;" 
d="M500 11q0 -11 -11 -11h-23q-46 0 -69 41q-58 -52 -133 -52h-23q-62 0 -104 38.5t-42 96.5v22q0 52 30 86.5t73 49.5t86 25t73 25t30 39q0 39 -28 64.5t-73 25.5h-11q-42 0 -71.5 -29.5t-29.5 -71.5v-23q0 -4 -4 -7.5t-8 -3.5h-45q-4 0 -7.5 3.5t-3.5 7.5v23
q0 70 49.5 119.5t119.5 49.5h11q69 0 119 -44t50 -114v-292q0 -12 11 -12h23q11 0 11 -11v-45zM387 157v117q-18 -9 -58 -21q-4 -1 -37 -9.5t-47.5 -14t-38 -17.5t-34 -28.5t-10.5 -37.5v-22q0 -28 21 -48t58 -20h23q46 0 84.5 32t38.5 69zM427 664q0 -58 -48 -77t-108 20
q-25 16 -41.5 16t-22 -8t-5.5 -19t-11 -11h-34q-11 0 -11 11q0 58 48 77t108 -20q25 -16 41.5 -16t22 8t5.5 19t11 11h34q11 0 11 -11z" />
    <glyph glyph-name="adieresis" unicode="&#xe4;" 
d="M500 11q0 -11 -11 -11h-23q-46 0 -69 41q-58 -52 -133 -52h-23q-62 0 -104 38.5t-42 96.5v22q0 52 30 86.5t73 49.5t86 25t73 25t30 39q0 39 -28 64.5t-73 25.5h-11q-42 0 -71.5 -29.5t-29.5 -71.5v-23q0 -4 -4 -7.5t-8 -3.5h-45q-4 0 -7.5 3.5t-3.5 7.5v23
q0 70 49.5 119.5t119.5 49.5h11q69 0 119 -44t50 -114v-292q0 -12 11 -12h23q11 0 11 -11v-45zM387 157v117q-18 -9 -58 -21q-4 -1 -37 -9.5t-47.5 -14t-38 -17.5t-34 -28.5t-10.5 -37.5v-22q0 -28 21 -48t58 -20h23q46 0 84.5 32t38.5 69zM421 619q0 -12 -11 -12h-79
q-11 0 -11 12v90q0 11 11 11h79q11 0 11 -11v-90zM230 619q0 -12 -11 -12h-79q-11 0 -11 12v90q0 11 11 11h79q11 0 11 -11v-90z" />
    <glyph glyph-name="aring" unicode="&#xe5;" 
d="M500 11q0 -11 -11 -11h-23q-46 0 -69 41q-58 -52 -133 -52h-23q-62 0 -104 38.5t-42 96.5v22q0 52 30 86.5t73 49.5t86 25t73 25t30 39q0 39 -28 64.5t-73 25.5h-11q-42 0 -71.5 -29.5t-29.5 -71.5v-23q0 -4 -4 -7.5t-8 -3.5h-45q-4 0 -7.5 3.5t-3.5 7.5v23
q0 70 49.5 119.5t119.5 49.5h11q69 0 119 -44t50 -114v-292q0 -12 11 -12h23q11 0 11 -11v-45zM387 157v117q-18 -9 -58 -21q-4 -1 -37 -9.5t-47.5 -14t-38 -17.5t-34 -28.5t-10.5 -37.5v-22q0 -28 21 -48t58 -20h23q46 0 84.5 32t38.5 69zM376 664q0 -38 -26 -64t-64 -26
q-37 0 -63.5 26.5t-26.5 63.5t26.5 63.5t63.5 26.5t63.5 -26.5t26.5 -63.5zM320 664q0 14 -10 23.5t-24 9.5t-24 -10t-10 -23q0 -14 10 -24t24 -10t24 10t10 24z" />
    <glyph glyph-name="ae" unicode="&#xe6;" 
d="M511 124q0 -56 -39.5 -95.5t-95.5 -39.5q-61 0 -101 45q-40 -45 -101 -45q-66 0 -100.5 31.5t-34.5 103.5v22q0 26 6.5 47t13 33t26 25t27 17t36.5 15.5t36 14.5q29 12 43 28t14 45v23q0 28 -19.5 47.5t-47.5 19.5t-48 -19.5t-20 -47.5v-41q0 -11 -11 -11h-45
q-11 0 -11 11v41q0 56 39.5 95.5t95.5 39.5q60 0 101 -46q41 46 101 46q56 0 95.5 -39.5t39.5 -95.5v-158q0 -11 -11 -11h-191v-101q0 -28 19.5 -48t47.5 -20t48 20t20 48v22q0 11 11 11h45q11 0 11 -11v-22zM444 292v102q0 28 -20 47.5t-48 19.5t-47.5 -19.5t-19.5 -47.5
v-102h135zM241 252q-11 -5 -78 -32q-57 -23 -57 -74v-22q0 -42 14 -55t54 -13q28 0 47.5 20t19.5 48v128z" />
    <glyph glyph-name="ccedilla" unicode="&#xe7;" 
d="M455 157q0 -63 -40.5 -109.5t-101.5 -56.5l-32 -96q-2 -7 -10 -7h-48q-16 0 -8 21l27 81q-63 8 -105 56t-42 111v203q0 70 49.5 119.5t119.5 49.5h22q70 0 119.5 -49.5t49.5 -119.5q0 -11 -11 -11h-45q-12 0 -12 11q0 42 -29.5 71.5t-71.5 29.5h-22q-42 0 -71.5 -29.5
t-29.5 -71.5v-203q0 -41 29.5 -71t71.5 -30h22q42 0 71.5 30t29.5 71q0 5 3.5 8.5t8.5 3.5h45q11 0 11 -12z" />
    <glyph glyph-name="egrave" unicode="&#xe8;" 
d="M455 236q0 -11 -11 -11h-282v-68q0 -41 30 -71t72 -30h22q35 0 62 21t36 54q2 10 14 8l43 -12q12 -2 8 -14q-14 -54 -59.5 -89t-103.5 -35h-22q-70 0 -119.5 49t-49.5 119v203q0 70 49.5 119.5t119.5 49.5h22q70 0 119.5 -49.5t49.5 -119.5v-124zM387 292v68
q0 42 -29.5 71.5t-71.5 29.5h-22q-42 0 -72 -29.5t-30 -71.5v-68h225zM318 603q5 -7 2 -12.5t-11 -5.5h-45q-5 0 -8 3l-113 113q-7 7 -4 13t12 6h68q5 0 9 -4z" />
    <glyph glyph-name="eacute" unicode="&#xe9;" 
d="M455 236q0 -11 -11 -11h-282v-68q0 -41 30 -71t72 -30h22q35 0 62 21t36 54q2 10 14 8l43 -12q12 -2 8 -14q-14 -54 -59.5 -89t-103.5 -35h-22q-70 0 -119.5 49t-49.5 119v203q0 70 49.5 119.5t119.5 49.5h22q70 0 119.5 -49.5t49.5 -119.5v-124zM387 292v68
q0 42 -29.5 71.5t-71.5 29.5h-22q-42 0 -72 -29.5t-30 -71.5v-68h225zM407 701l-113 -113q-3 -3 -8 -3h-45q-8 0 -11 5.5t2 12.5l90 113q4 4 9 4h68q9 0 12 -6t-4 -13z" />
    <glyph glyph-name="ecircumflex" unicode="&#xea;" 
d="M455 236q0 -11 -11 -11h-282v-68q0 -41 30 -71t72 -30h22q35 0 62 21t36 54q2 10 14 8l43 -12q12 -2 8 -14q-14 -54 -59.5 -89t-103.5 -35h-22q-70 0 -119.5 49t-49.5 119v203q0 70 49.5 119.5t119.5 49.5h22q70 0 119.5 -49.5t49.5 -119.5v-124zM387 292v68
q0 42 -29.5 71.5t-71.5 29.5h-22q-42 0 -72 -29.5t-30 -71.5v-68h225zM413 603q5 -7 2.5 -12.5t-11.5 -5.5h-45q-5 0 -8 3l-76 77l-76 -77q-3 -3 -8 -3h-45q-9 0 -11.5 5.5t2.5 12.5l90 113q4 4 9 4h78q5 0 9 -4z" />
    <glyph glyph-name="edieresis" unicode="&#xeb;" 
d="M455 236q0 -11 -11 -11h-282v-68q0 -41 30 -71t72 -30h22q35 0 62 21t36 54q2 10 14 8l43 -12q12 -2 8 -14q-14 -54 -59.5 -89t-103.5 -35h-22q-70 0 -119.5 49t-49.5 119v203q0 70 49.5 119.5t119.5 49.5h22q70 0 119.5 -49.5t49.5 -119.5v-124zM387 292v68
q0 42 -29.5 71.5t-71.5 29.5h-22q-42 0 -72 -29.5t-30 -71.5v-68h225zM421 619q0 -12 -11 -12h-79q-11 0 -11 12v90q0 11 11 11h79q11 0 11 -11v-90zM230 619q0 -12 -11 -12h-79q-11 0 -11 12v90q0 11 11 11h79q11 0 11 -11v-90z" />
    <glyph glyph-name="igrave" unicode="&#xec;" 
d="M500 11q0 -11 -11 -11h-405q-11 0 -11 11v45q0 11 11 11h191v383h-146q-11 0 -11 11v45q0 11 11 11h202q11 0 11 -11v-439h147q11 0 11 -11v-45zM340 603q5 -7 2.5 -12.5t-11.5 -5.5h-45q-5 0 -8 3l-112 113q-7 7 -4.5 13t12.5 6h67q5 0 9 -4z" />
    <glyph glyph-name="iacute" unicode="&#xed;" 
d="M500 11q0 -11 -11 -11h-405q-11 0 -11 11v45q0 11 11 11h191v383h-146q-11 0 -11 11v45q0 11 11 11h202q11 0 11 -11v-439h147q11 0 11 -11v-45zM407 701l-113 -113q-3 -3 -8 -3h-45q-8 0 -11 5.5t2 12.5l90 113q4 4 9 4h68q9 0 12 -6t-4 -13z" />
    <glyph glyph-name="icircumflex" unicode="&#xee;" 
d="M500 11q0 -11 -11 -11h-405q-11 0 -11 11v45q0 11 11 11h191v383h-146q-11 0 -11 11v45q0 11 11 11h202q11 0 11 -11v-439h147q11 0 11 -11v-45zM447 603q5 -7 2.5 -12.5t-11.5 -5.5h-45q-5 0 -8 3l-76 77l-77 -77q0 -3 -8 -3h-45q-8 0 -11 5.5t3 12.5l90 113q4 4 8 4h79
q5 0 9 -4z" />
    <glyph glyph-name="idieresis" unicode="&#xef;" 
d="M500 11q0 -11 -11 -11h-405q-11 0 -11 11v45q0 11 11 11h191v383h-146q-11 0 -11 11v45q0 11 11 11h202q11 0 11 -11v-439h147q11 0 11 -11v-45zM455 619q0 -12 -11 -12h-79q-11 0 -11 12v90q0 11 11 11h79q11 0 11 -11v-90zM264 619q0 -5 -4 -8.5t-8 -3.5h-78
q-4 0 -8 3.5t-4 8.5v90q0 11 12 11h78q12 0 12 -11v-90z" />
    <glyph glyph-name="eth" unicode="&#xf0;" 
d="M525 619q0 -5 -3.5 -8.5t-8.5 -3.5h-67v-596q0 -11 -11 -11h-45q-12 0 -12 11v11q-44 -33 -101 -33h-22q-70 0 -119.5 49t-49.5 119v203q0 70 49.5 119.5t119.5 49.5h22q56 0 101 -34v112h-89q-5 0 -8.5 3.5t-3.5 8.5v45q0 4 3.5 7.5t7.5 3.5h90v56q0 11 12 11h45
q11 0 11 -11v-56h67q12 0 12 -11v-45zM378 157v203q0 42 -29.5 71.5t-71.5 29.5h-22q-42 0 -71.5 -29.5t-29.5 -71.5v-203q0 -41 29.5 -71t71.5 -30h22q42 0 71.5 30t29.5 71z" />
    <glyph glyph-name="ntilde" unicode="&#xf1;" 
d="M459 11q0 -11 -11 -11h-45q-11 0 -11 11v349q0 42 -29.5 71.5t-71.5 29.5h-23q-42 0 -71.5 -29.5t-29.5 -71.5v-349q0 -11 -11 -11h-45q-12 0 -12 11v495q0 11 12 11h45q11 0 11 -11v-11q45 34 101 34h23q70 0 119 -49.5t49 -119.5v-349zM420 664q0 -58 -48 -77t-108 20
q-25 16 -41.5 16t-22 -8t-5.5 -19t-11 -11h-34q-11 0 -11 11q0 58 48 77t108 -20q25 -16 41.5 -16t22 8t5.5 19t11 11h34q11 0 11 -11z" />
    <glyph glyph-name="ograve" unicode="&#xf2;" 
d="M455 157q0 -70 -49.5 -119t-119.5 -49h-22q-70 0 -119.5 49t-49.5 119v203q0 70 49.5 119.5t119.5 49.5h22q70 0 119.5 -49.5t49.5 -119.5v-203zM387 157v203q0 42 -29.5 71.5t-71.5 29.5h-22q-42 0 -72 -29.5t-30 -71.5v-203q0 -41 30 -71t72 -30h22q42 0 71.5 30
t29.5 71zM318 603q5 -7 2 -12.5t-11 -5.5h-45q-5 0 -8 3l-113 113q-7 7 -4 13t12 6h68q5 0 9 -4z" />
    <glyph glyph-name="oacute" unicode="&#xf3;" 
d="M455 157q0 -70 -49.5 -119t-119.5 -49h-22q-70 0 -119.5 49t-49.5 119v203q0 70 49.5 119.5t119.5 49.5h22q70 0 119.5 -49.5t49.5 -119.5v-203zM387 157v203q0 42 -29.5 71.5t-71.5 29.5h-22q-42 0 -72 -29.5t-30 -71.5v-203q0 -41 30 -71t72 -30h22q42 0 71.5 30
t29.5 71zM407 701l-113 -113q-3 -3 -8 -3h-45q-8 0 -11 5.5t2 12.5l90 113q4 4 9 4h68q9 0 12 -6t-4 -13z" />
    <glyph glyph-name="ocircumflex" unicode="&#xf4;" 
d="M455 157q0 -70 -49.5 -119t-119.5 -49h-22q-70 0 -119.5 49t-49.5 119v203q0 70 49.5 119.5t119.5 49.5h22q70 0 119.5 -49.5t49.5 -119.5v-203zM387 157v203q0 42 -29.5 71.5t-71.5 29.5h-22q-42 0 -72 -29.5t-30 -71.5v-203q0 -41 30 -71t72 -30h22q42 0 71.5 30
t29.5 71zM413 603q5 -7 2.5 -12.5t-11.5 -5.5h-45q-5 0 -8 3l-76 77l-76 -77q-3 -3 -8 -3h-45q-9 0 -11.5 5.5t2.5 12.5l90 113q4 4 9 4h78q5 0 9 -4z" />
    <glyph glyph-name="otilde" unicode="&#xf5;" 
d="M455 157q0 -70 -49.5 -119t-119.5 -49h-22q-70 0 -119.5 49t-49.5 119v203q0 70 49.5 119.5t119.5 49.5h22q70 0 119.5 -49.5t49.5 -119.5v-203zM387 157v203q0 42 -29.5 71.5t-71.5 29.5h-22q-42 0 -72 -29.5t-30 -71.5v-203q0 -41 30 -71t72 -30h22q42 0 71.5 30
t29.5 71zM416 664q0 -58 -48.5 -77t-108.5 20q-25 16 -41.5 16t-21.5 -8t-5 -19t-12 -11h-33q-12 0 -12 11q0 58 48.5 77t108.5 -20q25 -16 41.5 -16t21.5 8t5 19t12 11h33q12 0 12 -11z" />
    <glyph glyph-name="odieresis" unicode="&#xf6;" 
d="M455 157q0 -70 -49.5 -119t-119.5 -49h-22q-70 0 -119.5 49t-49.5 119v203q0 70 49.5 119.5t119.5 49.5h22q70 0 119.5 -49.5t49.5 -119.5v-203zM387 157v203q0 42 -29.5 71.5t-71.5 29.5h-22q-42 0 -72 -29.5t-30 -71.5v-203q0 -41 30 -71t72 -30h22q42 0 71.5 30
t29.5 71zM421 619q0 -12 -11 -12h-79q-11 0 -11 12v90q0 11 11 11h79q11 0 11 -11v-90zM230 619q0 -12 -11 -12h-79q-11 0 -11 12v90q0 11 11 11h79q11 0 11 -11v-90z" />
    <glyph glyph-name="divide" unicode="&#xf7;" 
d="M331 382q0 -11 -11 -11h-90q-11 0 -11 11v90q0 12 11 12h90q11 0 11 -12v-90zM432 247q0 -11 -11 -11h-292q-11 0 -11 11v45q0 12 11 12h292q11 0 11 -12v-45zM331 67q0 -11 -11 -11h-90q-11 0 -11 11v90q0 12 11 12h90q11 0 11 -12v-90z" />
    <glyph glyph-name="oslash" unicode="&#xf8;" 
d="M455 157q0 -70 -49.5 -119t-119.5 -49h-22q-27 0 -49 7l-16 -45q-4 -11 -14 -7l-43 16q-10 4 -6 14l19 54q-60 50 -60 129v203q0 70 49.5 119.5t119.5 49.5h22q21 0 49 -7l16 44q4 11 14 7l43 -15q10 -4 6 -15l-19 -54q60 -50 60 -129v-203zM387 157v203q0 34 -18 58
l-131 -359q12 -3 26 -3h22q42 0 71.5 30t29.5 71zM312 458q-12 3 -26 3h-22q-42 0 -71.5 -29.5t-29.5 -71.5v-203q0 -33 18 -58z" />
    <glyph glyph-name="ugrave" unicode="&#xf9;" 
d="M450 11q0 -11 -11 -11h-45q-11 0 -11 11v11q-44 -33 -101 -33h-23q-70 0 -119.5 49t-49.5 119v349q0 11 12 11h45q11 0 11 -11v-349q0 -41 29.5 -71t71.5 -30h23q42 0 71.5 30t29.5 71v349q0 11 11 11h45q11 0 11 -11v-495zM324 603q6 -7 3 -12.5t-12 -5.5h-45q-7 0 -7 3
l-113 113q-7 7 -4.5 13t12.5 6h67q5 0 9 -4z" />
    <glyph glyph-name="uacute" unicode="&#xfa;" 
d="M450 11q0 -11 -11 -11h-45q-11 0 -11 11v11q-44 -33 -101 -33h-23q-70 0 -119.5 49t-49.5 119v349q0 11 12 11h45q11 0 11 -11v-349q0 -41 29.5 -71t71.5 -30h23q42 0 71.5 30t29.5 71v349q0 11 11 11h45q11 0 11 -11v-495zM391 701l-113 -113q0 -3 -8 -3h-45
q-8 0 -11 5.5t3 12.5l90 113q4 4 8 4h68q10 0 12.5 -6t-4.5 -13z" />
    <glyph glyph-name="ucircumflex" unicode="&#xfb;" 
d="M450 11q0 -11 -11 -11h-45q-11 0 -11 11v11q-44 -33 -101 -33h-23q-70 0 -119.5 49t-49.5 119v349q0 11 12 11h45q11 0 11 -11v-349q0 -41 29.5 -71t71.5 -30h23q42 0 71.5 30t29.5 71v349q0 11 11 11h45q11 0 11 -11v-495zM409 603q5 -7 2.5 -12.5t-11.5 -5.5h-45
q-5 0 -8 3l-77 77l-76 -77q-3 -3 -8 -3h-45q-9 0 -11.5 5.5t2.5 12.5l90 113q4 4 9 4h79q5 0 9 -4z" />
    <glyph glyph-name="udieresis" unicode="&#xfc;" 
d="M450 11q0 -11 -11 -11h-45q-11 0 -11 11v11q-44 -33 -101 -33h-23q-70 0 -119.5 49t-49.5 119v349q0 11 12 11h45q11 0 11 -11v-349q0 -41 29.5 -71t71.5 -30h23q42 0 71.5 30t29.5 71v349q0 11 11 11h45q11 0 11 -11v-495zM417 619q0 -5 -3.5 -8.5t-8.5 -3.5h-78
q-5 0 -8.5 3.5t-3.5 8.5v90q0 11 12 11h78q12 0 12 -11v-90zM225 619q0 -12 -11 -12h-79q-4 0 -7.5 4t-3.5 8v90q0 4 3.5 7.5t7.5 3.5h79q11 0 11 -11v-90z" />
    <glyph glyph-name="yacute" unicode="&#xfd;" 
d="M455 503q-128 -463 -159 -569q-11 -38 -29.5 -62t-46 -35t-52 -14t-62.5 -3h-22q-11 0 -11 11v45q0 12 11 12h22q77 0 96.5 16.5t42.5 94.5q3 10 5 16l-148 488q-4 14 11 14h47q9 0 11 -8l111 -385l107 385q2 8 11 8h45q15 0 10 -14zM407 701l-113 -113q-3 -3 -8 -3h-45
q-8 0 -11 5.5t2 12.5l90 113q4 4 9 4h68q9 0 12 -6t-4 -13z" />
    <glyph glyph-name="thorn" unicode="&#xfe;" 
d="M464 157q0 -70 -49.5 -119t-119.5 -49h-22q-57 0 -101 33v-236q0 -11 -12 -11h-45q-11 0 -11 11v945q0 11 11 11h45q12 0 12 -11v-236q45 34 101 34h22q70 0 119.5 -49.5t49.5 -119.5v-203zM396 157v203q0 42 -29.5 71.5t-71.5 29.5h-22q-42 0 -71.5 -29.5t-29.5 -71.5
v-203q0 -41 29.5 -71t71.5 -30h22q42 0 71.5 30t29.5 71z" />
    <glyph glyph-name="ydieresis" unicode="&#xff;" 
d="M455 503q-128 -463 -159 -569q-11 -38 -29.5 -62t-46 -35t-52 -14t-62.5 -3h-22q-11 0 -11 11v45q0 12 11 12h22q77 0 96.5 16.5t42.5 94.5q3 10 5 16l-148 488q-4 14 11 14h47q9 0 11 -8l111 -385l107 385q2 8 11 8h45q15 0 10 -14zM432 596q0 -11 -11 -11h-79
q-4 0 -7.5 3.5t-3.5 7.5v90q0 4 3.5 7.5t7.5 3.5h79q11 0 11 -11v-90zM241 596q0 -11 -11 -11h-79q-11 0 -11 11v90q0 11 11 11h79q11 0 11 -11v-90z" />
    <glyph glyph-name="dotlessi" unicode="&#x131;" 
d="M309 11q0 -11 -12 -11h-44q-12 0 -12 11v428q0 11 12 11h44q12 0 12 -11v-428z" />
    <glyph glyph-name="Lslash" unicode="&#x141;" 
d="M477 11q0 -11 -11 -11h-315q-11 0 -11 11v284l-45 -26q-9 -6 -15 4l-23 39q-6 9 4 15l79 46v358q0 11 11 11h45q12 0 12 -11v-319l107 62q10 6 15 -5l22 -38q5 -10 -4 -16l-140 -81v-267h258q11 0 11 -11v-45z" />
    <glyph glyph-name="lslash" unicode="&#x142;" 
d="M466 11q0 -11 -11 -11h-371q-11 0 -11 11v45q0 11 11 11h169v241l-68 -39q-9 -6 -15 4l-23 39q-6 9 4 15l102 59v289h-124q-11 0 -11 11v45q0 11 11 11h180q11 0 11 -11v-306l85 49q10 6 15 -5l22 -38q5 -10 -4 -16l-118 -68v-280h135q11 0 11 -11v-45z" />
    <glyph glyph-name="OE" unicode="&#x152;" 
d="M489 11q0 -11 -12 -11h-202q-8 0 -10 7q-33 -18 -69 -18q-56 0 -95.5 39.5t-39.5 95.5v495q0 55 39.5 95t95.5 40q37 0 69 -19q2 7 10 7h202q12 0 12 -11v-45q0 -11 -12 -11h-146v-270h124q11 0 11 -11v-45q0 -12 -11 -12h-124v-270h146q12 0 12 -11v-45zM264 124v495
q0 28 -20 47.5t-48 19.5t-47.5 -19.5t-19.5 -47.5v-495q0 -28 19.5 -48t47.5 -20t48 20t20 48z" />
    <glyph glyph-name="oe" unicode="&#x153;" 
d="M511 124q0 -56 -39.5 -95.5t-95.5 -39.5q-61 0 -101 45q-40 -45 -101 -45q-56 0 -95.5 39.5t-39.5 95.5v270q0 56 39.5 95.5t95.5 39.5q60 0 101 -46q41 46 101 46q56 0 95.5 -39.5t39.5 -95.5v-158q0 -11 -11 -11h-191v-101q0 -28 19.5 -48t47.5 -20t48 20t20 48v22
q0 11 11 11h45q11 0 11 -11v-22zM444 292v102q0 28 -20 47.5t-48 19.5t-47.5 -19.5t-19.5 -47.5v-102h135zM241 124v270q0 28 -19.5 47.5t-47.5 19.5t-48 -19.5t-20 -47.5v-270q0 -28 20 -48t48 -20t47.5 20t19.5 48z" />
    <glyph glyph-name="Scaron" unicode="&#x160;" 
d="M466 157q0 -70 -49.5 -119t-119.5 -49h-45q-70 0 -119 49t-49 119v23q0 11 11 11h45q11 0 11 -11v-23q0 -41 30 -71t71 -30h45q42 0 72 30t30 71v34q0 48 -31.5 83t-76 58t-89 48t-76 68t-31.5 103v34q0 70 49.5 119.5t119.5 49.5h22q70 0 119.5 -49.5t49.5 -119.5v-23
q0 -11 -11 -11h-45q-4 0 -8 3.5t-4 7.5v23q0 42 -29.5 71.5t-71.5 29.5h-22q-42 0 -72 -29.5t-30 -71.5v-34q0 -45 31.5 -77.5t76 -55.5t89 -48.5t76 -71t31.5 -107.5v-34zM413 924l-90 -112q-2 -4 -9 -4h-78q-7 0 -9 4l-90 112q-5 7 -2.5 13t11.5 6h45q4 0 8 -4l76 -76
l76 76q4 4 8 4h45q9 0 11.5 -6t-2.5 -13z" />
    <glyph glyph-name="scaron" unicode="&#x161;" 
d="M466 146q0 -70 -49.5 -113.5t-119.5 -43.5h-33q-70 0 -119.5 43.5t-49.5 113.5v23q0 11 11 11h45q11 0 11 -11v-23q0 -39 28.5 -64.5t73.5 -25.5h33q45 0 73.5 25.5t28.5 64.5q0 30 -30 48.5t-73.5 29.5t-86.5 25t-73 45.5t-30 81.5q0 70 49.5 111.5t119.5 41.5h11
q69 0 119 -44t50 -114v-11q0 -11 -11 -11h-45q-12 0 -12 11v11q0 39 -28 64.5t-73 25.5h-11q-46 0 -73.5 -23.5t-27.5 -61.5q0 -30 30 -48.5t73 -29.5t86 -25t73 -45.5t30 -81.5zM413 702l-90 -113q-4 -4 -9 -4h-78q-5 0 -9 4l-90 113q-5 7 -2.5 12.5t11.5 5.5h45q5 0 8 -3
l76 -77l76 77q3 3 8 3h45q9 0 11.5 -5.5t-2.5 -12.5z" />
    <glyph glyph-name="Ydieresis" unicode="&#x178;" 
d="M466 727l-157 -402v-314q0 -11 -12 -11h-45q-11 0 -11 11v314l-157 402q-3 7 0 11t10 4h48q9 0 11 -7l122 -320l122 320q2 7 10 7h49q7 0 10 -4t0 -11zM421 842q0 -11 -11 -11h-79q-11 0 -11 11v90q0 11 11 11h79q11 0 11 -11v-90zM230 842q0 -11 -11 -11h-79
q-11 0 -11 11v90q0 11 11 11h79q11 0 11 -11v-90z" />
    <glyph glyph-name="Zcaron" unicode="&#x17d;" 
d="M466 11q0 -11 -11 -11h-349q-11 0 -11 11v40q0 14 7 28l277 596h-262q-4 0 -7.5 3.5t-3.5 7.5v45q0 4 3.5 7.5t7.5 3.5h327q11 0 11 -11v-45q0 -10 -6 -22l-278 -597h284q11 0 11 -11v-45zM413 924l-90 -112q-2 -4 -9 -4h-78q-7 0 -9 4l-90 112q-5 7 -2.5 13t11.5 6h45
q4 0 8 -4l76 -76l76 76q4 4 8 4h45q9 0 11.5 -6t-2.5 -13z" />
    <glyph glyph-name="zcaron" unicode="&#x17e;" 
d="M466 11q0 -11 -11 -11h-349q-11 0 -11 11v53l2 6l279 380h-259q-4 0 -7.5 3.5t-3.5 7.5v45q0 4 3.5 7.5t7.5 3.5h327q11 0 11 -11v-52l-1 -3q-1 -3 -1 -4l-274 -380h276q11 0 11 -11v-45zM413 702l-90 -113q-4 -4 -9 -4h-78q-5 0 -9 4l-90 113q-5 7 -2.5 12.5t11.5 5.5
h45q5 0 8 -3l76 -77l76 77q3 3 8 3h45q9 0 11.5 -5.5t-2.5 -12.5z" />
    <glyph glyph-name="florin" unicode="&#x192;" 
d="M511 540q0 -11 -11 -11h-45q-11 0 -11 11v45q0 45 -25.5 73t-64.5 28h-23q-39 0 -64.5 -28t-25.5 -73v-90h124q11 0 11 -11v-45q0 -12 -11 -12h-124v-540q0 -47 -32.5 -79.5t-79.5 -32.5q-11 0 -11 11v45q0 11 11 11q19 0 32 13.5t13 31.5v540h-79q-11 0 -11 12v45
q0 11 11 11h79v90q0 70 43.5 119.5t113.5 49.5h23q70 0 113.5 -49.5t43.5 -119.5v-45z" />
    <glyph glyph-name="circumflex" unicode="&#x2c6;" 
d="M413 603q5 -7 2.5 -12.5t-11.5 -5.5h-45q-5 0 -8 3l-76 77l-76 -77q-3 -3 -8 -3h-45q-9 0 -11.5 5.5t2.5 12.5l90 113q4 4 9 4h78q5 0 9 -4z" />
    <glyph glyph-name="caron" unicode="&#x2c7;" 
d="M413 702l-90 -113q-4 -4 -9 -4h-78q-5 0 -9 4l-90 113q-5 7 -2.5 12.5t11.5 5.5h45q5 0 8 -3l76 -77l76 77q3 3 8 3h45q9 0 11.5 -5.5t-2.5 -12.5z" />
    <glyph glyph-name="breve" unicode="&#x2d8;" 
d="M399 709q0 -52 -36.5 -88t-87.5 -36t-87.5 36t-36.5 88q0 11 12 11h45q4 0 7.5 -3.5t3.5 -7.5q0 -23 16.5 -40t39.5 -17t39.5 17t16.5 40q0 4 3.5 7.5t7.5 3.5h45q12 0 12 -11z" />
    <glyph glyph-name="dotaccent" unicode="&#x2d9;" 
d="M331 619q0 -12 -11 -12h-90q-11 0 -11 12v90q0 11 11 11h90q11 0 11 -11v-90z" />
    <glyph glyph-name="ring" unicode="&#x2da;" 
d="M376 664q0 -38 -26 -64t-64 -26q-37 0 -63.5 26.5t-26.5 63.5t26.5 63.5t63.5 26.5t63.5 -26.5t26.5 -63.5zM320 664q0 14 -10 23.5t-24 9.5t-23.5 -9.5t-9.5 -23.5t9.5 -24t23.5 -10t24 10t10 24z" />
    <glyph glyph-name="ogonek" unicode="&#x2db;" 
d="M324 -91q8 -21 -8 -21h-48q-6 0 -11 7l-38 116h71z" />
    <glyph glyph-name="tilde" unicode="&#x2dc;" 
d="M416 664q0 -58 -48.5 -77t-108.5 20q-25 16 -41.5 16t-21.5 -8t-5 -19t-12 -11h-33q-12 0 -12 11q0 58 48.5 77t108.5 -20q25 -16 41.5 -16t21.5 8t5 19t12 11h33q12 0 12 -11z" />
    <glyph glyph-name="hungarumlaut" unicode="&#x2dd;" 
d="M435 701l-112 -113q-3 -3 -8 -3h-45q-9 0 -11.5 5.5t2.5 12.5l90 113q4 4 9 4h67q10 0 12.5 -6t-4.5 -13zM287 701l-113 -113q0 -3 -8 -3h-45q-8 0 -11 5.5t3 12.5l90 113q4 4 8 4h68q9 0 12 -6t-4 -13z" />
    <glyph glyph-name="Delta" unicode="&#x394;" 
d="M475 11q0 -11 -11 -11h-378q-11 0 -11 11v70v2l139 651q2 8 11 8h100q9 0 11 -8l139 -651v-2v-70zM408 67v8l-129 600h-8l-129 -600v-8h266z" />
    <glyph glyph-name="Omega" unicode="&#x3a9;" 
d="M477 11q0 -11 -11 -11h-146q-11 0 -11 11v114q0 11 11 13q24 3 51.5 29t27.5 69v349q0 42 -30 71.5t-72 29.5h-44q-42 0 -72 -29.5t-30 -71.5v-349q0 -43 27.5 -69t51.5 -29q11 -2 11 -13v-114q0 -11 -11 -11h-146q-11 0 -11 11v45q0 11 11 11h90v20q-41 21 -65.5 61
t-24.5 88v349q0 70 49.5 119.5t119.5 49.5h44q70 0 119.5 -49.5t49.5 -119.5v-349q0 -48 -24.5 -88t-65.5 -61v-20h90q11 0 11 -11v-45z" />
    <glyph glyph-name="pi" unicode="&#x3c0;" 
d="M477 11q0 -11 -11 -11h-112q-12 0 -12 11v439h-123v-439q0 -4 -3.5 -7.5t-7.5 -3.5h-45q-12 0 -12 11v439h-67q-11 0 -11 11v45q0 11 11 11h382q11 0 11 -11v-45q0 -11 -11 -11h-56v-383h56q11 0 11 -11v-45z" />
    <glyph glyph-name="endash" unicode="&#x2013;" 
d="M410 247q0 -11 -11 -11h-248q-11 0 -11 11v45q0 12 11 12h248q11 0 11 -12v-45z" />
    <glyph glyph-name="emdash" unicode="&#x2014;" 
d="M502 247q0 -11 -11 -11h-432q-11 0 -11 11v45q0 12 11 12h432q11 0 11 -12v-45z" />
    <glyph glyph-name="quoteleft" unicode="&#x2018;" 
d="M342 484q0 -12 -11 -12h-112q-11 0 -11 12v135q0 51 36 87t87 36q11 0 11 -11v-45q0 -11 -11 -11q-23 0 -39.5 -16.5t-16.5 -39.5v-12h56q11 0 11 -11v-112z" />
    <glyph glyph-name="quoteright" unicode="&#x2019;" 
d="M342 596q0 -51 -36 -87.5t-87 -36.5q-11 0 -11 12v45q0 11 11 11q23 0 39.5 16.5t16.5 39.5v11h-56q-11 0 -11 12v112q0 11 11 11h112q11 0 11 -11v-135z" />
    <glyph glyph-name="quotesinglbase" unicode="&#x201a;" 
d="M342 -11q0 -52 -36 -88t-87 -36q-11 0 -11 11v45q0 12 11 12q23 0 39.5 16.5t16.5 39.5v11h-56q-11 0 -11 11v113q0 11 11 11h112q11 0 11 -11v-135z" />
    <glyph glyph-name="quotedblleft" unicode="&#x201c;" 
d="M444 484q0 -4 -4 -8t-8 -4h-112q-11 0 -11 12v135q0 51 36 87t87 36q12 0 12 -11v-45q0 -11 -12 -11q-23 0 -39.5 -16.5t-16.5 -39.5v-12h56q12 0 12 -11v-112zM241 484q0 -12 -11 -12h-112q-4 0 -8 4t-4 8v135q0 51 36.5 87t87.5 36q11 0 11 -11v-45q0 -11 -11 -11
q-23 0 -39.5 -16.5t-16.5 -39.5v-12h56q11 0 11 -11v-112z" />
    <glyph glyph-name="quotedblright" unicode="&#x201d;" 
d="M444 596q0 -51 -36.5 -87.5t-87.5 -36.5q-11 0 -11 12v45q0 11 11 11q23 0 39.5 16.5t16.5 39.5v11h-56q-11 0 -11 12v112q0 11 11 11h112q12 0 12 -11v-135zM241 596q0 -51 -36 -87.5t-87 -36.5q-4 0 -8 4t-4 8v45q0 11 12 11q23 0 39.5 16.5t16.5 39.5v11h-56
q-4 0 -8 3.5t-4 8.5v112q0 11 12 11h112q11 0 11 -11v-135z" />
    <glyph glyph-name="quotedblbase" unicode="&#x201e;" 
d="M444 -11q0 -52 -36.5 -88t-87.5 -36q-11 0 -11 11v45q0 12 11 12q23 0 39.5 16.5t16.5 39.5v11h-56q-11 0 -11 11v113q0 11 11 11h112q12 0 12 -11v-135zM241 -11q0 -52 -36 -88t-87 -36q-12 0 -12 11v45q0 5 4 8.5t8 3.5q23 0 39.5 16.5t16.5 39.5v11h-56q-12 0 -12 11
v113q0 11 12 11h112q11 0 11 -11v-135z" />
    <glyph glyph-name="dagger" unicode="&#x2020;" 
d="M489 461q0 -11 -12 -11h-168v-439q0 -11 -12 -11h-44q-12 0 -12 11v439h-168q-12 0 -12 11v45q0 11 12 11h168v214q0 11 12 11h44q12 0 12 -11v-214h168q12 0 12 -11v-45z" />
    <glyph glyph-name="daggerdbl" unicode="&#x2021;" 
d="M489 11q0 -11 -12 -11h-168v-214q0 -11 -12 -11h-44q-12 0 -12 11v214h-168q-12 0 -12 11v45q0 11 12 11h168v383h-168q-12 0 -12 11v45q0 11 12 11h168v214q0 11 12 11h44q12 0 12 -11v-214h168q12 0 12 -11v-45q0 -11 -12 -11h-168v-383h168q12 0 12 -11v-45z" />
    <glyph glyph-name="bullet" unicode="&#x2022;" 
d="M399 371q0 -51 -36.5 -87.5t-87.5 -36.5t-87.5 36.5t-36.5 87.5q0 52 36.5 88t87.5 36t87.5 -36t36.5 -88z" />
    <glyph glyph-name="ellipsis" unicode="&#x2026;" 
d="M534 11q0 -11 -12 -11h-112q-11 0 -11 11v113q0 11 11 11h112q12 0 12 -11v-113zM342 11q0 -11 -11 -11h-112q-11 0 -11 11v113q0 11 11 11h112q11 0 11 -11v-113zM151 11q0 -11 -11 -11h-112q-12 0 -12 11v113q0 11 12 11h112q11 0 11 -11v-113z" />
    <glyph glyph-name="perthousand" unicode="&#x2030;" 
d="M230 534q0 -34 -25 -59t-59 -25h-23q-35 0 -59.5 25t-24.5 59v135q0 35 24.5 60t59.5 25h23q35 0 59.5 -25t24.5 -60v-135zM379 490l-285 -285q-9 -7 -16 0l-32 32q-7 7 0 16l285 285q9 7 16 0l32 -32q7 -7 0 -16zM522 73q0 -35 -24.5 -59.5t-59.5 -24.5h-22
q-33 0 -57 21q-24 -21 -56 -21h-22q-35 0 -60 24.5t-25 59.5v135q0 35 25 59.5t60 24.5h22q32 0 56 -21q24 21 57 21h22q35 0 59.5 -24.5t24.5 -59.5v-135zM174 534v135q0 12 -8.5 20t-19.5 8h-23q-11 0 -19.5 -8t-8.5 -20v-135q0 -11 8.5 -19.5t19.5 -8.5h23q11 0 19.5 8.5
t8.5 19.5zM466 73v135q0 12 -8 20t-20 8h-22q-12 0 -20.5 -8t-8.5 -20v-135q0 -11 8.5 -19.5t20.5 -8.5h22q12 0 20 8.5t8 19.5zM331 73v135q0 12 -8 20t-20 8h-22q-12 0 -20 -8t-8 -20v-135q0 -11 8 -19.5t20 -8.5h22q12 0 20 8.5t8 19.5z" />
    <glyph glyph-name="guilsinglleft" unicode="&#x2039;" 
d="M408 107q4 -7 1 -12t-11 -5h-51q-7 0 -10 5l-94 141l-2 6v33l2 6l94 141q3 5 10 5h51q8 0 11 -5t-1 -12l-99 -149v-5z" />
    <glyph glyph-name="guilsinglright" unicode="&#x203a;" 
d="M309 242q-2 -5 -2 -6l-94 -141q-3 -5 -10 -5h-51q-8 0 -11 5t1 12l99 149v5l-99 149q-4 7 -1 12t11 5h51q7 0 10 -5l94 -141q2 -5 2 -6v-33z" />
    <glyph glyph-name="fraction" unicode="&#x2044;" 
d="M456 727l-293 -720q-2 -7 -10 -7h-49q-7 0 -9.5 4.5t-0.5 10.5l293 720q2 7 10 7h49q15 0 10 -15z" />
    <glyph glyph-name="Euro" unicode="&#x20ac;" 
d="M466 157q0 -70 -49.5 -119t-119.5 -49h-33q-70 0 -119.5 49t-49.5 119v70l-38 -13q-10 -4 -14 6l-15 43q-6 9 6 14l61 22v65l-49 -18q-10 -4 -14 7l-16 42q-4 11 7 15l72 26v149q0 70 49.5 119.5t119.5 49.5h33q70 0 119.5 -49.5t49.5 -119.5v-23q0 -11 -11 -11h-45
q-11 0 -11 11v23q0 42 -30 71.5t-72 29.5h-33q-42 0 -71.5 -29.5t-29.5 -71.5v-124l156 56q10 5 14 -6l16 -43q4 -10 -7 -14l-179 -65v-65l167 61q11 4 15 -7l15 -42q3 -10 -7 -15l-190 -69v-95q0 -41 29.5 -71t71.5 -30h33q42 0 72 30t30 71v34q0 11 11 11h45q11 0 11 -11
v-34z" />
    <glyph glyph-name="trademark" unicode="&#x2122;" 
d="M534 461q0 -11 -12 -11h-22q-11 0 -11 11v215l-60 -218q-2 -8 -10 -8h-51q-9 0 -11 8l-60 218v-215q0 -11 -11 -11h-22q-11 0 -11 11v270q0 11 11 11h53q9 0 11 -8l65 -238l65 238q2 8 11 8h53q12 0 12 -11v-270zM219 709q0 -4 -3.5 -8t-7.5 -4h-68v-236q0 -11 -11 -11
h-23q-11 0 -11 11v236h-67q-4 0 -8 3.5t-4 8.5v22q0 11 12 11h180q4 0 7.5 -3.5t3.5 -7.5v-22z" />
    <glyph glyph-name="partialdiff" unicode="&#x2202;" 
d="M455 157q0 -70 -49.5 -119t-119.5 -49h-22q-70 0 -119.5 49t-49.5 119v169q0 70 49.5 119.5t119.5 49.5h22q56 0 101 -34v113q0 42 -29.5 71.5t-71.5 29.5h-67q-11 0 -11 11v45q0 11 11 11h67q70 0 119.5 -49t49.5 -119v-417zM387 157v169q0 42 -29.5 71.5t-71.5 29.5
h-22q-42 0 -71.5 -29.5t-29.5 -71.5v-169q0 -41 29.5 -71t71.5 -30h22q42 0 71.5 30t29.5 71z" />
    <glyph glyph-name="product" unicode="&#x220f;" 
d="M473 317q0 -4 -3 -7l-286 -306q-4 -4 -8 -4h-88q-11 0 -11 11v414q0 5 3 8l286 306q3 3 8 3h88q11 0 11 -11v-414zM405 339v336h-6l-254 -272v-336h6z" />
    <glyph glyph-name="summation" unicode="&#x2211;" 
d="M455 11q0 -11 -11 -11h-338q-11 0 -11 11v74l1 5l157 279v5l-157 278v3l-1 3v73q0 11 11 11h338q11 0 11 -11v-135q0 -11 -11 -11h-45q-12 0 -12 11v79h-224v-2l156 -279q1 -5 1 -6v-34l-1 -5l-156 -279v-3h224v90q0 5 3.5 8.5t8.5 3.5h45q11 0 11 -12v-146z" />
    <glyph glyph-name="minus" unicode="&#x2212;" 
d="M432 247q0 -11 -11 -11h-292q-11 0 -11 11v45q0 12 11 12h292q11 0 11 -12v-45z" />
    <glyph glyph-name="radical" unicode="&#x221a;" 
d="M489 686q0 -11 -12 -11h-138l-124 -666q-2 -9 -11 -9h-84q-9 0 -11 10l-45 337q-2 13 11 13h46q9 0 11 -10l32 -243l117 626q2 9 11 9h185q12 0 12 -11v-45z" />
    <glyph glyph-name="infinity" unicode="&#x221e;" 
d="M500 259q0 -42 -29.5 -72t-71.5 -30q-63 0 -124 63q-61 -63 -124 -63q-42 0 -71.5 30t-29.5 72v22q0 42 29.5 71.5t71.5 29.5q65 0 124 -63q58 63 124 63q42 0 71.5 -29.5t29.5 -71.5v-22zM432 259v22q0 14 -9.5 24t-23.5 10q-36 0 -79 -45q43 -45 79 -45q14 0 23.5 10
t9.5 24zM230 270q-43 45 -79 45q-14 0 -23.5 -10t-9.5 -24v-22q0 -14 9.5 -24t23.5 -10q36 0 79 45z" />
    <glyph glyph-name="integral" unicode="&#x222b;" 
d="M511 540q0 -11 -11 -11h-45q-11 0 -11 11v45q0 45 -25.5 73t-64.5 28h-23q-39 0 -64.5 -28t-25.5 -73v-698q0 -47 -32.5 -79.5t-79.5 -32.5q-11 0 -11 11v45q0 11 11 11q19 0 32 13.5t13 31.5v698q0 70 43.5 119.5t113.5 49.5h23q70 0 113.5 -49.5t43.5 -119.5v-45z" />
    <glyph glyph-name="approxequal" unicode="&#x2248;" 
d="M466 382q0 -29 -18.5 -54.5t-47.5 -38.5t-69.5 -2.5t-79.5 49.5q-19 20 -36.5 28.5t-28.5 6.5t-19.5 -8.5t-12 -13.5t-3.5 -12v-22q0 -11 -11 -11h-45q-11 0 -11 11v22q0 40 30 71t82 29t103 -53q19 -20 36.5 -28.5t28.5 -6.5t19.5 8t12 13t3.5 12v23q0 11 11 11h45
q11 0 11 -11v-23zM466 202q0 -29 -18.5 -54.5t-47.5 -38.5t-69.5 -2.5t-79.5 49.5q-19 20 -36.5 28.5t-28.5 6.5t-19.5 -8.5t-12 -13.5t-3.5 -12v-22q0 -11 -11 -11h-45q-11 0 -11 11v22q0 40 30 71t82 29t103 -53q19 -20 36.5 -28.5t28.5 -6.5t19.5 8t12 13t3.5 12v23
q0 11 11 11h45q11 0 11 -11v-23z" />
    <glyph glyph-name="notequal" unicode="&#x2260;" 
d="M432 180q0 -11 -11 -11h-147l-29 -80q-4 -10 -14 -6l-43 15q-10 4 -6 14l20 57h-73q-11 0 -11 11v45q0 11 11 11h98l24 68h-122q-11 0 -11 11v45q0 11 11 11h147l29 80q4 10 14 6l43 -15q10 -4 6 -14l-20 -57h73q11 0 11 -11v-45q0 -11 -11 -11h-98l-24 -68h122
q11 0 11 -11v-45z" />
    <glyph glyph-name="lessequal" unicode="&#x2264;" 
d="M432 258q0 -6 -4 -9.5t-9 -1.5l-293 73q-8 2 -8 11v80q0 9 8 11l293 73q13 4 13 -11v-46q0 -9 -8 -11l-235 -56l235 -56q8 -2 8 -11v-46zM432 146q0 -11 -11 -11h-292q-11 0 -11 11v45q0 11 11 11h292q11 0 11 -11v-45z" />
    <glyph glyph-name="greaterequal" unicode="&#x2265;" 
d="M432 331q0 -9 -8 -11l-293 -73q-5 -2 -9 1.5t-4 9.5v46q0 9 8 11l235 56l-235 56q-8 2 -8 11v46q0 15 13 11l293 -73q8 -2 8 -11v-80zM432 146q0 -11 -11 -11h-292q-11 0 -11 11v45q0 11 11 11h292q11 0 11 -11v-45z" />
    <glyph glyph-name="lozenge" unicode="&#x25ca;" 
d="M491 355l-1 -5l-166 -344q-3 -6 -10 -6h-78q-7 0 -10 6l-166 344q-1 4 -1 5v33l1 5l166 343q2 6 10 6h78q8 0 10 -6l166 -343l1 -5v-33zM423 368v7l-144 300h-8l-144 -300v-7l144 -301h8z" />
    <glyph glyph-name="apple" unicode="&#xf8ff;" 
d="M455 574q0 -70 -49.5 -119.5t-119.5 -49.5h-22q-70 0 -119.5 49.5t-49.5 119.5v11q0 70 49.5 119.5t119.5 49.5h22q70 0 119.5 -49.5t49.5 -119.5v-11zM455 157q0 -70 -49.5 -119t-119.5 -49h-22q-70 0 -119.5 49t-49.5 119v12q0 70 49.5 119t119.5 49h22q70 0 119.5 -49
t49.5 -119v-12zM387 574v11q0 42 -29.5 71.5t-71.5 29.5h-22q-42 0 -71.5 -29.5t-29.5 -71.5v-11q0 -42 29.5 -72t71.5 -30h22q42 0 71.5 30t29.5 72zM387 157v12q0 42 -29.5 71.5t-71.5 29.5h-22q-42 0 -71.5 -29.5t-29.5 -71.5v-12q0 -41 29.5 -71t71.5 -30h22
q42 0 71.5 30t29.5 71z" />
    <glyph glyph-name="fi" unicode="&#xfb01;" 
d="M534 11q0 -11 -12 -11h-202q-11 0 -11 11v45q0 11 11 11h67v360h-202v-360h68q4 0 7.5 -3.5t3.5 -7.5v-45q0 -4 -3.5 -7.5t-7.5 -3.5h-203q-11 0 -11 11v45q0 11 11 11h68v360h-68q-11 0 -11 12v45q0 11 11 11h68v90q0 70 43.5 119.5t113.5 49.5h22q71 0 114.5 -49.5
t43.5 -119.5v-11q0 -12 -11 -12h-45q-5 0 -8.5 4t-3.5 8v11q0 45 -25 73t-65 28h-22q-39 0 -64.5 -28t-25.5 -73v-90h259q11 0 11 -11v-417h67q12 0 12 -11v-45z" />
    <glyph glyph-name="fl" unicode="&#xfb02;" 
d="M534 11q0 -11 -12 -11h-494q-12 0 -12 11v45q0 11 12 11h90v360h-68q-11 0 -11 12v45q0 11 11 11h68v90q0 70 43.5 119.5t113.5 49.5h22q71 0 114.5 -49.5t43.5 -119.5v-518h67q12 0 12 -11v-45zM387 67v518q0 45 -25 73t-65 28h-22q-39 0 -64.5 -28t-25.5 -73v-90h124
q11 0 11 -11v-45q0 -12 -11 -12h-124v-360h202z" />
    <glyph glyph-name="HT" 
 />
    <glyph glyph-name="LF" 
 />
    <glyph glyph-name="CR" 
 />
    <glyph glyph-name="DLE" 
 />
    <glyph glyph-name="DC1" 
 />
    <glyph glyph-name="DC2" 
 />
    <glyph glyph-name="DC3" 
 />
    <glyph glyph-name="DC4" 
 />
    <glyph glyph-name="RS" 
 />
    <glyph glyph-name="US" 
 />
    <glyph glyph-name="DEL" 
 />
    <glyph glyph-name="NUL" 
 />
  </font>
</defs>
</svg>
