<?xml version="1.0" standalone="no"?>
<!DOCTYPE svg PUBLIC "-//W3C//DTD SVG 1.1//EN" "http://www.w3.org/Graphics/SVG/1.1/DTD/svg11.dtd" >
<svg>
<metadata>
Created by FontForge 20110222 at Sun Jun 29 14:37:18 2014
 By Orthosie Webhosting
Copyright Copr. 2001, Design: Norm, published by www.lineto.com. All rights reserved.
</metadata>
<defs>
<font id="SimpleBoldObliqueTitlingRegular" horiz-adv-x="550" >
  <font-face 
    font-family="SimpleBoldObliqueTitlingRegular"
    font-weight="500"
    font-style="oblique"
    font-stretch="normal"
    units-per-em="1000"
    panose-1="0 0 0 0 0 0 0 0 0 0"
    ascent="800"
    descent="-200"
    x-height="530"
    cap-height="742"
    bbox="-55 -223 596 986"
    underline-thickness="20"
    underline-position="-123"
    unicode-range="U+0020-FB02"
  />
<missing-glyph 
d="M33 0v666h265v-666h-265zM66 33h199v600h-199v-600z" />
    <glyph glyph-name=".notdef" 
d="M33 0v666h265v-666h-265zM66 33h199v600h-199v-600z" />
    <glyph glyph-name=".null" horiz-adv-x="0" 
 />
    <glyph glyph-name="nonmarkingreturn" 
 />
    <glyph glyph-name="space" unicode=" " 
 />
    <glyph glyph-name="exclam" unicode="!" 
d="M323 138l-17 -106q-2 -14 -13 -23t-24 -9h-106q-12 0 -19.5 8t-7.5 19v5l17 106q2 13 13 22.5t24 9.5h106q12 0 19.5 -8t7.5 -19v-5zM382 711l-72 -456q-2 -13 -13 -22.5t-24 -9.5h-43q-11 0 -19 8t-8 19v5l73 456q1 13 12 22t25 9h42q12 0 19.5 -7.5t7.5 -18.5v-5z" />
    <glyph glyph-name="quotedbl" unicode="&#x22;" 
d="M297 711l-24 -149q-9 -57 -55.5 -97.5t-103.5 -40.5q-12 0 -19.5 8t-7.5 19v5l7 43q1 13 12 22t24 9t24 9.5t13 22.5l2 11h-32q-11 0 -19 8t-8 19v5l17 106q2 13 13 22t24 9h106q12 0 19.5 -7.5t7.5 -18.5v-5zM530 711l-23 -149q-9 -57 -56 -97.5t-104 -40.5
q-12 0 -19.5 8t-7.5 19v5l7 43q2 13 13 22t24 9t24 9.5t13 22.5l1 11h-31q-12 0 -20 8t-8 19l1 2v3l17 106q1 13 12 22t24 9h107q11 0 19 -7.5t8 -18.5q0 -4 -1 -5z" />
    <glyph glyph-name="numbersign" unicode="#" 
d="M340 424h-93l-35 -106h92zM560 499l-6 -43q-2 -13 -13 -22.5t-24 -9.5h-70l-35 -106h51q11 0 19 -8t8 -19q0 -3 -1 -5l-6 -42q-2 -13 -13 -22.5t-24 -9.5h-70l-62 -186q-4 -11 -14.5 -18.5t-21.5 -7.5h-43q-12 0 -19.5 7.5t-7.5 18.5q0 8 2 11l58 175h-92l-62 -186
q-4 -11 -14.5 -18.5t-21.5 -7.5h-43q-12 0 -19.5 7.5t-7.5 18.5q0 8 2 11l58 175h-52q-11 0 -19 8t-8 19q0 3 1 5l6 42q2 13 13 22.5t24 9.5h71l36 106h-53q-11 0 -19 8t-8 19q0 3 1 5l6 43q2 13 13 22t24 9h71l63 186q3 11 13.5 18.5t21.5 7.5h43q27 0 27 -26q0 -7 -1 -11
l-59 -175h92l63 186q3 11 13.5 18.5t21.5 7.5h43q27 0 27 -26q0 -7 -1 -11l-59 -175h51q11 0 19 -7.5t8 -19.5q0 -3 -1 -4z" />
    <glyph glyph-name="dollar" unicode="$" 
d="M498 573l-4 -21q-1 -13 -12 -22.5t-24 -9.5h-43q-12 0 -19.5 8t-7.5 19v5l4 21q0 2 0.5 6t0.5 5q0 27 -18 45t-46 18h-21q-31 0 -56 -21.5t-30 -52.5l-5 -32q-1 -5 -1 -14q0 -30 24.5 -54.5t59 -44t69.5 -42t59.5 -60.5t24.5 -88q0 -16 -3 -36l-5 -32
q-10 -66 -60.5 -116.5t-116.5 -61.5l-7 -45q-2 -13 -13 -22.5t-24 -9.5h-42q-12 0 -20 8t-8 19q0 1 0.5 2.5t0.5 2.5l7 45q-55 11 -89 52t-34 97q0 14 3 29l3 21q2 13 13 22.5t24 9.5h42q12 0 19.5 -8t7.5 -19v-5l-3 -21q-1 -4 -1 -12q0 -27 18 -45t45 -18h43q31 0 56 22
t30 53l5 32q0 2 0.5 7.5t0.5 8.5q0 33 -24.5 58.5t-59.5 45t-69.5 41.5t-59 58.5t-24.5 84.5q0 17 3 35l5 32q10 63 57 112t109 63l7 48q2 13 13 22t24 9h42q12 0 20 -7.5t8 -19.5v-2l-1 -2l-7 -48q50 -13 81 -53t31 -94q0 -10 -2 -28z" />
    <glyph glyph-name="percent" unicode="%" 
d="M382 207v2q0 14 -14 14h-21q-16 0 -18 -16l-21 -127v-3q0 -13 14 -13h21q16 0 18 16zM242 663v2q0 14 -14 14h-21q-16 0 -18 -16l-21 -127v-3q0 -13 14 -13h21q16 0 18 16zM456 207l-20 -127q-6 -38 -37 -64.5t-68 -26.5h-21q-34 0 -55.5 21.5t-21.5 54.5q0 10 1 15
l20 127q6 37 36.5 63.5t68.5 26.5h21q34 0 55.5 -21.5t21.5 -54.5q0 -9 -1 -14zM460 506q4 -4 4 -11q0 -11 -8 -19l-312 -269q-8 -6 -16 -6q-10 0 -14 6l-25 30q-4 4 -4 12q0 10 8 18l312 269q7 6 16 6t14 -6zM316 663l-20 -127q-6 -37 -36.5 -63.5t-68.5 -26.5h-21
q-34 0 -55.5 21.5t-21.5 53.5q0 10 1 15l20 127q6 37 36.5 63.5t68.5 26.5h21q34 0 55.5 -21.5t21.5 -54.5q0 -9 -1 -14z" />
    <glyph glyph-name="ampersand" unicode="&#x26;" 
d="M295 108l-107 228q-17 -18 -22 -50l-18 -116q-1 -4 -1 -12q0 -27 18 -45t45 -18h43q21 0 42 13zM498 573l-15 -96q-2 -13 -13 -22.5t-24 -9.5h-43q-11 0 -19 8t-8 19q0 4 1 5l15 96q0 2 0.5 6t0.5 5q0 27 -18 45t-46 18h-21q-31 0 -56 -21.5t-30 -52.5l-2 -11
q0 -2 -0.5 -6.5t-0.5 -6.5q0 -13 5 -23l128 -272l12 75q2 13 13 22.5t24 9.5h42q12 0 19.5 -8t7.5 -19v-5l-25 -159q-6 -33 -23 -66l26 -54q2 -8 2 -12q0 -21 -19 -32l-40 -22q-6 -5 -17 -5q-19 0 -25 15l-11 24q-50 -29 -102 -29h-43q-67 0 -110.5 43.5t-43.5 108.5
q0 14 3 29l18 116q14 92 85 140q-33 68 -33 109q0 9 2 27l2 11q12 74 73 127t136 53h21q67 0 110.5 -43.5t43.5 -108.5q0 -10 -2 -28z" />
    <glyph glyph-name="quotesingle" unicode="'" 
d="M414 711l-24 -149q-9 -57 -55.5 -97.5t-104.5 -40.5q-11 0 -19 8t-8 19q0 3 1 5l6 43q2 13 13 22t24 9t24 9.5t13 22.5l2 11h-32q-12 0 -19.5 8t-7.5 19v5l17 106q2 13 13 22t24 9h106q12 0 19.5 -7.5t7.5 -18.5v-5z" />
    <glyph glyph-name="parenleft" unicode="(" 
d="M445 711l-6 -43q-2 -13 -13 -22.5t-24 -9.5h-21q-31 0 -56.5 -21.5t-29.5 -52.5l-94 -594q-1 -4 -1 -12q0 -26 18 -44t45 -18h21q12 0 19.5 -8t7.5 -19v-5l-7 -42q-1 -13 -12 -22.5t-25 -9.5h-21q-67 0 -110.5 43.5t-43.5 108.5q0 8 2 28l95 594q11 75 72 127.5t136 52.5
h22q11 0 19 -7.5t8 -18.5q0 -4 -1 -5z" />
    <glyph glyph-name="parenright" unicode=")" 
d="M422 562l-94 -594q-12 -74 -73 -127t-136 -53h-21q-12 0 -19.5 8t-7.5 19v5l7 42q2 13 13 22.5t24 9.5h21q31 0 56 21.5t30 52.5l94 594q0 2 0.5 6t0.5 6q0 26 -18 44t-46 18h-21q-12 0 -19.5 8t-7.5 19v5l7 43q2 13 13 22t24 9h21q67 0 110.5 -43t43.5 -108q0 -9 -2 -29
z" />
    <glyph glyph-name="asterisk" unicode="*" 
d="M507 562l-7 -42q-2 -13 -12.5 -22.5t-22.5 -9.5h-2l-86 5l37 -73q2 -6 2 -10q0 -22 -21 -33l-40 -21q-8 -4 -17 -4q-19 0 -25 15l-26 78l-52 -78q-9 -15 -29 -15q-9 0 -16 4l-33 21q-12 7 -12 23q0 12 7 20l60 73l-88 -5h-2q-11 0 -18 8t-7 19v5l7 42q2 13 12 22.5
t23 9.5h2l86 -5l-37 72q-2 4 -2 11q0 22 21 33l40 21q7 4 17 4q20 0 24 -16l27 -78l51 78q10 16 30 16q9 0 16 -4l33 -21q12 -7 12 -23q0 -11 -7 -21l-60 -72l88 5h2q11 0 18 -8t7 -19v-5z" />
    <glyph glyph-name="plus" unicode="+" 
d="M433 297l-7 -42q-2 -14 -13 -23t-24 -9h-84l-14 -85q-2 -13 -13 -22.5t-24 -9.5h-42q-12 0 -19.5 8t-7.5 19v5l13 85h-84q-12 0 -20 8t-8 19v2q1 2 1 3l7 42q1 13 12 22.5t24 9.5h85l14 85q1 13 12 22t25 9h42q12 0 19.5 -7.5t7.5 -18.5v-5l-14 -85h85q12 0 19.5 -8
t7.5 -19v-5z" />
    <glyph glyph-name="comma" unicode="," 
d="M323 138l-24 -149q-9 -57 -55.5 -97t-103.5 -40q-12 0 -20 7.5t-8 18.5v3l1 2l7 43q1 13 12 22.5t24 9.5q14 0 25 9t12 22l2 11h-32q-12 0 -19.5 8t-7.5 19v5l17 106q2 13 13 22.5t24 9.5h106q12 0 19.5 -8t7.5 -19v-5z" />
    <glyph glyph-name="hyphen" unicode="-" 
d="M433 297l-7 -42q-2 -14 -13 -23t-24 -9h-275q-12 0 -20 8t-8 19v2q1 2 1 3l7 42q1 13 12 22.5t24 9.5h276q12 0 19.5 -8t7.5 -19v-5z" />
    <glyph glyph-name="period" unicode="." 
d="M323 138l-17 -106q-2 -14 -13 -23t-24 -9h-106q-12 0 -19.5 8t-7.5 19v5l17 106q2 13 13 22.5t24 9.5h106q12 0 19.5 -8t7.5 -19v-5z" />
    <glyph glyph-name="slash" unicode="/" 
d="M517 699l-383 -679q-11 -20 -33 -20h-46q-27 0 -27 26q0 10 5 18l383 679q11 19 33 19h46q12 0 19.5 -7t7.5 -18t-5 -18z" />
    <glyph glyph-name="zero" unicode="0" 
d="M392 573q0 2 0.5 6t0.5 5q0 27 -18 45t-46 18h-21q-31 0 -56 -21.5t-30 -52.5l-64 -403q0 -2 -0.5 -6t-0.5 -6q0 -26 18.5 -44.5t45.5 -18.5h21q31 0 56 22t30 53zM498 573l-64 -403q-12 -75 -73 -128t-136 -53h-21q-67 0 -110.5 43.5t-43.5 108.5q0 9 2 29l64 403
q12 74 73 127t136 53h21q67 0 110.5 -43.5t43.5 -108.5q0 -10 -2 -28z" />
    <glyph glyph-name="one" unicode="1" 
d="M451 74l-7 -42q-2 -13 -13 -22.5t-24 -9.5h-361q-11 0 -19 8t-8 19q0 3 1 5l6 42q2 13 13 22.5t24 9.5h138l74 465l-66 -65q-11 -11 -26 -11q-10 0 -20 8l-27 28q-8 8 -8 18q0 15 12 26l158 156q11 11 26 11h52q12 0 19.5 -7.5t7.5 -18.5v-5l-96 -605h117q12 0 19.5 -8
t7.5 -19v-5z" />
    <glyph glyph-name="two" unicode="2" 
d="M498 573l-5 -32q-9 -54 -53.5 -107t-141.5 -116q-76 -50 -110.5 -96.5t-49.5 -115.5h265q11 0 19 -8t8 -19q0 -3 -1 -5l-6 -42q-2 -13 -13 -22.5t-24 -9.5h-340q-11 0 -19 8t-8 19q0 3 1 5l6 42q18 111 67 185.5t156 144.5q129 83 138 137l5 32q0 2 0.5 6t0.5 5
q0 27 -18 45t-46 18h-21q-31 0 -56 -21.5t-30 -52.5l-5 -32q-2 -13 -13 -22.5t-24 -9.5h-42q-12 0 -19.5 8t-7.5 19v5l5 32q12 74 73 127t136 53h21q67 0 110.5 -43.5t43.5 -108.5q0 -10 -2 -28z" />
    <glyph glyph-name="three" unicode="3" 
d="M520 711l-8 -50q-2 -12 -10 -20l-151 -157q53 -11 85.5 -51.5t32.5 -96.5q0 -14 -3 -28l-21 -138q-12 -75 -73.5 -128t-135.5 -53h-43q-67 0 -110.5 43.5t-43.5 108.5q0 14 3 29l5 32q1 13 12 22t24 9h43q12 0 19.5 -7.5t7.5 -19.5v-4l-5 -32q-1 -4 -1 -12q0 -27 18 -45
t45 -18h43q31 0 56 22t30 53l21 138q1 4 1 11q0 27 -17.5 45t-45.5 18h-74q-12 0 -20 8t-8 19v2q1 2 1 3l8 50q2 10 10 20q94 97 149 152h-185q-12 0 -19.5 8t-7.5 19v5l7 43q2 13 13 22t24 9h297q12 0 19.5 -7.5t7.5 -18.5v-5z" />
    <glyph glyph-name="four" unicode="4" 
d="M464 696l-305 -463h137l21 138q2 13 13 22.5t24 9.5h43q11 0 19 -8t8 -19q0 -3 -1 -5l-21 -138h31q12 0 20 -7.5t8 -19.5q0 -3 -1 -4l-6 -43q-2 -13 -13 -22.5t-24 -9.5h-32l-15 -95q-2 -13 -13 -22.5t-24 -9.5h-43q-11 0 -19 8t-8 19q0 3 1 5l15 95h-223q-12 0 -19.5 8
t-7.5 19v5l11 69q3 10 6 14l318 483q11 17 31 17h47q28 0 28 -25q0 -11 -6 -21z" />
    <glyph glyph-name="five" unicode="5" 
d="M509 711l-7 -43q-2 -13 -13 -22.5t-24 -9.5h-214l-29 -138q31 11 64 11h21q67 0 110.5 -43.5t43.5 -108.5q0 -19 -2 -28l-25 -159q-12 -75 -73 -128t-136 -53h-21q-67 0 -110.5 43.5t-43.5 108.5q0 9 2 29l5 32q2 13 13 22t24 9h42q12 0 20 -7.5t8 -19.5q0 -3 -1 -4
l-5 -32q0 -2 -0.5 -6t-0.5 -6q0 -26 18.5 -44.5t45.5 -18.5h21q31 0 56 22t30 53l25 159q1 4 1 12q0 27 -18 44.5t-45 17.5h-22q-26 0 -44 -13.5t-26.5 -29t-20.5 -29t-27 -13.5h-39q-12 0 -20 8t-8 19q0 1 0.5 3t0.5 4l75 360q3 13 13.5 21.5t23.5 8.5h285q12 0 19.5 -7.5
t7.5 -18.5v-5z" />
    <glyph glyph-name="six" unicode="6" 
d="M353 329q1 4 1 12q0 27 -18 44.5t-45 17.5h-22q-31 0 -56 -21.5t-30 -52.5l-25 -159q0 -2 -0.5 -6t-0.5 -6q0 -26 18.5 -44.5t45.5 -18.5h21q31 0 56 22t30 53zM498 573q-2 -13 -13 -22.5t-24 -9.5h-42q-12 0 -20 8t-8 19q0 1 0.5 2.5t0.5 2.5q0 2 0.5 6t0.5 5
q0 27 -18 45t-46 18h-21q-31 0 -56 -21.5t-30 -52.5l-13 -80q40 16 77 16h21q67 0 110.5 -43.5t43.5 -108.5q0 -19 -2 -28l-25 -159q-12 -75 -73 -128t-136 -53h-21q-67 0 -110.5 43.5t-43.5 108.5q0 9 2 29l64 403q12 74 73 127t136 53h21q67 0 110.5 -43.5t43.5 -108.5
q0 -10 -2 -28z" />
    <glyph glyph-name="seven" unicode="7" 
d="M541 711l-9 -53q-4 -26 -13.5 -53t-18.5 -46t-28.5 -48t-28.5 -41.5t-35 -46t-33 -41.5q-61 -80 -106 -161t-78 -193q-3 -12 -13.5 -20t-22.5 -8h-42q-13 0 -20.5 8t-7.5 19q0 3 2 9q60 212 206 401q6 8 35 44.5t41 53t29 46.5t24 55h-264q-12 0 -19.5 8t-7.5 19v5l7 43
q2 13 13 22t24 9h339q12 0 19.5 -7.5t7.5 -18.5v-5z" />
    <glyph glyph-name="eight" unicode="8" 
d="M350 244q1 4 1 12q0 26 -17.5 44t-45.5 18h-43q-31 0 -56 -21.5t-30 -52.5l-11 -74q-1 -4 -1 -12q0 -27 18 -45t45 -18h43q31 0 56 22t30 53zM392 573q0 2 0.5 6t0.5 5q0 27 -18 45t-46 18h-21q-31 0 -56 -21.5t-30 -52.5l-12 -74q0 -2 -0.5 -6t-0.5 -6q0 -27 18 -45
t46 -18h21q31 0 56.5 22t29.5 53zM498 573l-12 -74q-10 -70 -67 -122q40 -43 40 -105q0 -13 -3 -28l-11 -74q-12 -75 -73.5 -128t-135.5 -53h-43q-67 0 -110.5 43.5t-43.5 108.5q0 14 3 29l11 74q14 79 79 133q-30 39 -30 93q0 9 2 29l12 74q12 74 73 127t136 53h21
q67 0 110.5 -43.5t43.5 -108.5q0 -10 -2 -28z" />
    <glyph glyph-name="nine" unicode="9" 
d="M392 573q0 2 0.5 6t0.5 5q0 27 -18 45t-46 18h-21q-31 0 -56 -21.5t-30 -52.5l-25 -159q-1 -4 -1 -12q0 -27 18 -45t45 -18h22q31 0 56 22t30 53zM498 573l-64 -403q-12 -75 -73 -128t-136 -53h-10q-67 0 -111 43.5t-44 108.5q0 14 3 29q2 13 13 22.5t24 9.5h42
q12 0 19.5 -8t7.5 -19v-5q-1 -4 -1 -12q0 -27 18 -45t45 -18h11q31 0 56 22t30 53l13 79q-40 -16 -77 -16h-21q-67 0 -110.5 43.5t-43.5 108.5q0 19 2 29l25 159q12 74 73 127t136 53h21q67 0 110.5 -43.5t43.5 -108.5q0 -10 -2 -28z" />
    <glyph glyph-name="colon" unicode=":" 
d="M323 138l-17 -106q-2 -14 -13 -23t-24 -9h-106q-12 0 -19.5 8t-7.5 19v5l17 106q2 13 13 22.5t24 9.5h106q12 0 19.5 -8t7.5 -19v-5zM377 477l-17 -106q-2 -13 -13 -22.5t-24 -9.5h-106q-12 0 -19.5 8t-7.5 19v5l17 106q2 14 13 23t24 9h106q12 0 19.5 -8t7.5 -19v-5z
" />
    <glyph glyph-name="semicolon" unicode=";" 
d="M323 138l-24 -149q-9 -57 -55.5 -97t-103.5 -40q-12 0 -20 7.5t-8 18.5v3l1 2l7 43q1 13 12 22.5t24 9.5q14 0 25 9t12 22l2 11h-32q-12 0 -19.5 8t-7.5 19v5l17 106q2 13 13 22.5t24 9.5h106q12 0 19.5 -8t7.5 -19v-5zM377 477l-17 -106q-2 -13 -13 -22.5t-24 -9.5h-106
q-12 0 -19.5 8t-7.5 19v5l17 106q2 14 13 23t24 9h106q12 0 19.5 -8t7.5 -19v-5z" />
    <glyph glyph-name="less" unicode="&#x3c;" 
d="M441 432l-219 -167l166 -167q9 -9 9 -20q0 -14 -11 -25t-28 -11h-65q-13 0 -19 8l-171 171q-7 7 -7 21v3l6 40q4 16 15 25l225 170q10 8 22 8h65q13 0 20.5 -7.5t7.5 -18.5q0 -17 -16 -30z" />
    <glyph glyph-name="equal" unicode="=" 
d="M420 212l-7 -42q-2 -13 -13 -22.5t-24 -9.5h-276q-12 0 -19.5 8t-7.5 19v5l7 42q2 13 13 22.5t24 9.5h276q11 0 19 -8t8 -19v-5zM446 382l-6 -43q-2 -13 -13 -22t-24 -9h-276q-12 0 -19.5 7.5t-7.5 19.5v4l7 43q2 13 13 22.5t24 9.5h276q11 0 19 -8t8 -19q0 -3 -1 -5z
" />
    <glyph glyph-name="greater" unicode="&#x3e;" 
d="M421 285l-7 -40q-2 -15 -15 -24l-224 -171q-10 -8 -22 -8h-65q-14 0 -21.5 7.5t-7.5 18.5q0 19 17 30l218 167l-165 167q-9 9 -9 21q0 13 11 24t27 11h65q12 0 20 -8l170 -170q8 -8 8 -21v-4z" />
    <glyph glyph-name="question" unicode="?" 
d="M302 138l-17 -106q-2 -13 -13 -22.5t-24 -9.5h-106q-12 0 -19.5 8t-7.5 19v5l17 106q2 13 13 22.5t24 9.5h106q12 0 19.5 -8t7.5 -19v-5zM498 573l-4 -21q-17 -114 -148 -202q-33 -21 -42 -39t-16 -57q-2 -13 -13 -22.5t-24 -9.5h-42q-12 0 -19.5 8t-7.5 19v5
q6 38 13.5 61.5t32.5 57t68 62.5q37 24 58.5 48.5t26 37.5t7.5 31l4 21q0 2 0.5 6t0.5 5q0 27 -18 45t-46 18h-21q-31 0 -56 -21.5t-30 -52.5l-5 -32q-2 -13 -13 -22.5t-24 -9.5h-42q-12 0 -19.5 8t-7.5 19v5l5 32q12 74 73 127t136 53h21q67 0 110.5 -43.5t43.5 -108.5
q0 -10 -2 -28z" />
    <glyph glyph-name="at" unicode="@" 
d="M231 361v6q0 16 -10 26t-26 10q-17 0 -31.5 -12.5t-17.5 -29.5l-35 -223q-1 -2 -1 -7q0 -15 10 -25.5t26 -10.5q18 0 32.5 12.5t17.5 30.5zM540 573l-70 -446q-9 -57 -56 -97.5t-104 -40.5q-49 0 -83 32q-46 -32 -97 -32q-55 0 -91 36t-36 89q0 16 2 24l35 223
q10 61 60 104.5t112 43.5q31 0 59 -13q7 3 14 3h42q12 0 19.5 -8t7.5 -19v-5l-54 -340v-5q0 -11 7.5 -19t19.5 -8q13 0 24 9.5t13 22.5l70 446q1 4 1 11q0 27 -17.5 45t-45.5 18h-75q-31 0 -56 -21.5t-30 -52.5q-1 -13 -12 -22.5t-24 -9.5h-43q-12 0 -19.5 8t-7.5 19v5
q12 74 73.5 127t135.5 53h75q66 0 110 -43.5t44 -108.5q0 -15 -3 -28z" />
    <glyph glyph-name="A" unicode="A" 
d="M360 339l-31 297h-24l-125 -297h180zM475 296l-1 -6l-41 -258q-1 -13 -12 -22.5t-24 -9.5h-43q-12 0 -19.5 8t-7.5 19v5l32 201h-212l-32 -201q-2 -14 -13 -23t-24 -9h-42q-12 0 -19.5 8t-7.5 19v5l41 258l2 6l178 423q4 10 14 16.5t20 6.5h139q11 0 18.5 -6.5t8.5 -16.5
z" />
    <glyph glyph-name="B" unicode="B" 
d="M359 244q0 2 0.5 6t0.5 6q0 26 -18 44t-46 18h-106l-33 -212h106q31 0 56 21.5t30 52.5zM399 562q0 2 0.5 6t0.5 6q0 26 -18 44t-46 18h-95l-34 -212h95q31 0 56.5 22t30.5 53zM505 562l-10 -63q-12 -70 -67 -122q39 -42 39 -105q0 -8 -2 -28l-10 -64q-12 -74 -73.5 -127
t-135.5 -53h-180q-12 0 -20 8t-8 19q0 1 0.5 2.5t0.5 2.5l107 679q2 13 13 22t24 9h170q67 0 110.5 -43t43.5 -108q0 -9 -2 -29z" />
    <glyph glyph-name="C" unicode="C" 
d="M508 573l-3 -21q-2 -14 -13 -23t-24 -9h-42q-12 0 -19.5 8t-7.5 19v5l3 21q1 4 1 11q0 27 -17.5 45t-45.5 18h-32q-31 0 -56 -21.5t-30 -52.5l-64 -403q0 -2 -0.5 -6t-0.5 -6q0 -26 18.5 -44.5t45.5 -18.5h32q31 0 56 22t30 53l5 32q1 13 12 22t24 9h43q12 0 19.5 -7.5
t7.5 -19.5v-4l-5 -32q-12 -75 -73.5 -128t-135.5 -53h-32q-67 0 -110.5 43.5t-43.5 108.5q0 9 2 29l64 403q12 74 73 127t136 53h32q67 0 110.5 -43.5t43.5 -108.5q0 -15 -3 -28z" />
    <glyph glyph-name="D" unicode="D" 
d="M399 562q0 2 0.5 6t0.5 6q0 26 -18 44t-46 18h-95l-84 -530h95q31 0 56.5 21.5t29.5 52.5zM505 562l-61 -382q-12 -74 -73 -127t-136 -53h-169q-12 0 -20 8t-8 19q0 1 0.5 2.5t0.5 2.5l107 679q2 13 13 22t24 9h170q67 0 110.5 -43t43.5 -108q0 -9 -2 -29z" />
    <glyph glyph-name="E" unicode="E" 
d="M530 711l-6 -43q-2 -13 -13 -22.5t-24 -9.5h-244l-34 -212h223q12 0 19.5 -8t7.5 -19v-5l-7 -42q-2 -13 -13 -22.5t-24 -9.5h-223l-33 -212h244q11 0 19 -8t8 -19q0 -3 -1 -5l-6 -42q-2 -13 -13 -22.5t-24 -9.5h-318q-12 0 -19.5 8t-7.5 19v5l107 679q2 13 13 22t24 9
h318q12 0 20 -7.5t8 -18.5q0 -4 -1 -5z" />
    <glyph glyph-name="F" unicode="F" 
d="M541 711l-7 -43q-2 -13 -13 -22.5t-24 -9.5h-244l-33 -212h223q11 0 19 -8t8 -19q0 -3 -1 -5l-6 -42q-2 -13 -13 -22.5t-24 -9.5h-223l-45 -286q-2 -13 -13 -22.5t-24 -9.5h-43q-11 0 -19 8t-8 19q0 3 1 5l107 679q2 13 13 22t24 9h318q12 0 19.5 -7.5t7.5 -18.5v-5z" />
    <glyph glyph-name="G" unicode="G" 
d="M503 572l-3 -21q-2 -13 -13 -22.5t-24 -9.5h-43q-11 0 -19 8t-8 19q0 3 1 5l3 21q1 4 1 12q0 27 -18 45t-45 18h-32q-31 0 -56.5 -22t-29.5 -53l-64 -402q-1 -4 -1 -12q0 -27 18 -45t45 -18h32q31 0 56.5 22t29.5 53l24 148h-85q-12 0 -19.5 8t-7.5 19v5l7 42q2 14 13 23
t24 9h159q12 0 19.5 -8t7.5 -19v-5l-36 -222q-11 -75 -72.5 -128t-136.5 -53h-31q-67 0 -110.5 43.5t-43.5 108.5q0 19 2 29l64 402q11 75 72.5 128t136.5 53h31q67 0 110.5 -43.5t43.5 -108.5q0 -19 -2 -29z" />
    <glyph glyph-name="H" unicode="H" 
d="M520 711l-108 -679q-2 -14 -13 -23t-24 -9h-42q-12 0 -19.5 8t-7.5 19v5l45 286h-169l-46 -286q-1 -13 -12 -22.5t-24 -9.5h-43q-12 0 -19.5 8t-7.5 19v5l108 679q2 13 13 22t24 9h42q12 0 19.5 -7.5t7.5 -18.5v-5l-45 -287h169l46 287q1 13 12 22t24 9h43
q12 0 19.5 -7.5t7.5 -18.5v-5z" />
    <glyph glyph-name="I" unicode="I" 
d="M520 711l-7 -43q-2 -13 -13 -22.5t-24 -9.5h-106l-84 -530h117q11 0 19 -8t8 -19q0 -3 -1 -5l-6 -42q-2 -13 -13 -22.5t-24 -9.5h-340q-11 0 -19 8t-8 19q0 3 1 5l6 42q2 13 13 22.5t24 9.5h117l84 530h-106q-12 0 -19.5 8t-7.5 19v5l7 43q2 13 13 22t24 9h318
q12 0 19.5 -7.5t7.5 -18.5v-5z" />
    <glyph glyph-name="J" unicode="J" 
d="M509 711l-86 -541q-11 -75 -72.5 -128t-135.5 -53h-22q-67 0 -110.5 43.5t-43.5 108.5q0 14 3 29l10 63q1 13 12 22.5t24 9.5h43q12 0 19.5 -8t7.5 -19v-5l-10 -63q-1 -4 -1 -12q0 -27 18 -45t45 -18h21q31 0 56.5 22t29.5 53l74 466h-201q-12 0 -19.5 8t-7.5 19v5l7 43
q1 13 12 22t25 9h275q12 0 19.5 -7.5t7.5 -18.5v-5z" />
    <glyph glyph-name="K" unicode="K" 
d="M543 692l-263 -301l183 -341q4 -10 4 -15q0 -14 -11 -24.5t-27 -10.5h-52q-17 0 -24 14l-153 285l-26 -30l-38 -237q-1 -13 -12 -22.5t-24 -9.5h-43q-12 0 -19.5 8t-7.5 19v5l108 679q2 13 13 22t24 9h42q12 0 19.5 -7.5t7.5 -18.5v-5l-41 -259l242 277q11 13 28 13h52
q28 0 28 -25q0 -14 -10 -25z" />
    <glyph glyph-name="L" unicode="L" 
d="M440 74l-7 -42q-1 -13 -12 -22.5t-24 -9.5h-297q-12 0 -20 8t-8 19q0 3 1 5l107 679q2 13 13 22t24 9h43q11 0 19 -7.5t8 -18.5q0 -4 -1 -5l-95 -605h222q12 0 19.5 -8t7.5 -19v-5z" />
    <glyph glyph-name="M" unicode="M" 
d="M575 711l-108 -679q-1 -13 -12 -22.5t-25 -9.5h-42q-12 0 -19.5 8t-7.5 19v5l84 530l-121 -244q-10 -21 -33 -21h-55q-9 0 -17.5 6t-9.5 15l-44 244l-84 -530q-2 -14 -13 -23t-24 -9h-42q-12 0 -19.5 8t-7.5 19v5l108 679q1 13 12 22t25 9h88q9 0 17.5 -6t9.5 -14
l52 -273l139 273q11 20 33 20h89q12 0 19.5 -7.5t7.5 -18.5v-5z" />
    <glyph glyph-name="N" unicode="N" 
d="M551 710l-107 -678q-2 -13 -13 -22.5t-24 -9.5h-89q-9 0 -17 6t-10 15l-105 527l-81 -516q-2 -13 -13 -22.5t-24 -9.5h-43q-11 0 -19 8t-8 19v5l108 679q2 13 13 22t24 9h89q9 0 17 -6t10 -14l105 -528l81 516q2 13 13 22.5t24 9.5h43q11 0 19 -8t8 -19q0 -3 -1 -5z" />
    <glyph glyph-name="O" unicode="O" 
d="M397 573q1 4 1 11q0 27 -17.5 45t-45.5 18h-32q-31 0 -56.5 -21.5t-29.5 -52.5l-64 -403q-1 -4 -1 -12q0 -27 18 -45t45 -18h32q31 0 56.5 22t29.5 53zM503 573l-64 -403q-11 -75 -72.5 -128t-136.5 -53h-31q-67 0 -110.5 43.5t-43.5 108.5q0 19 2 29l64 403
q11 74 72.5 127t136.5 53h31q67 0 110.5 -43.5t43.5 -108.5q0 -19 -2 -28z" />
    <glyph glyph-name="P" unicode="P" 
d="M399 562q0 2 0.5 6t0.5 6q0 26 -18 44t-46 18h-95l-47 -297h95q31 0 56.5 22t29.5 53zM505 562l-24 -148q-12 -75 -73 -128t-136 -53h-95l-32 -201q-2 -13 -13 -22.5t-24 -9.5h-42q-12 0 -20 8t-8 19q0 1 0.5 2.5t0.5 2.5l107 679q2 13 13 22t24 9h170q67 0 110.5 -43
t43.5 -108q0 -9 -2 -29z" />
    <glyph glyph-name="Q" unicode="Q" 
d="M398 573q1 4 1 11q0 27 -17.5 45t-45.5 18h-32q-31 0 -56.5 -21.5t-29.5 -52.5l-64 -403q-1 -4 -1 -12q0 -27 18 -45t45 -18h31l-44 54q-6 7 -6 17q0 16 13 28l35 30q11 9 23 9q13 0 22 -9l44 -54zM504 573l-64 -403q-7 -44 -34 -85l27 -32q6 -6 6 -18q0 -17 -13 -27
l-34 -30q-13 -10 -24 -10q-13 0 -21 10l-28 32q-44 -21 -88 -21h-31q-67 0 -110.5 43.5t-43.5 108.5q0 19 2 29l64 403q11 74 72.5 127t135.5 53h32q67 0 110.5 -43.5t43.5 -108.5q0 -19 -2 -28z" />
    <glyph glyph-name="R" unicode="R" 
d="M399 562q0 2 0.5 6t0.5 6q0 26 -18 44t-46 18h-95l-47 -297h95q31 0 56.5 22t29.5 53zM505 562l-24 -148q-7 -49 -38 -90.5t-76 -65.5l57 -214q0 -2 0.5 -4t0.5 -4q0 -14 -11 -25t-27 -11h-46q-20 0 -26 19l-57 214h-81l-32 -201q-2 -13 -13 -22.5t-24 -9.5h-42
q-12 0 -20 8t-8 19q0 1 0.5 2.5t0.5 2.5l107 679q2 13 13 22t24 9h170q67 0 110.5 -43t43.5 -108q0 -9 -2 -29z" />
    <glyph glyph-name="S" unicode="S" 
d="M498 573l-4 -21q-1 -13 -12 -22.5t-24 -9.5h-43q-12 0 -19.5 8t-7.5 19v5l4 21q0 2 0.5 6t0.5 5q0 27 -18 45t-46 18h-21q-31 0 -56 -21.5t-30 -52.5l-5 -32q-1 -5 -1 -14q0 -30 24.5 -54.5t59 -44t69.5 -42t59.5 -60.5t24.5 -88q0 -16 -3 -36l-5 -32q-12 -75 -73.5 -128
t-135.5 -53h-43q-67 0 -110.5 43.5t-43.5 108.5q0 14 3 29l3 21q2 13 13 22.5t24 9.5h42q12 0 19.5 -8t7.5 -19v-5l-3 -21q-1 -4 -1 -12q0 -27 18 -45t45 -18h43q31 0 56 22t30 53l5 32q0 2 0.5 7.5t0.5 8.5q0 33 -24.5 58.5t-59.5 45t-69.5 41.5t-59 58.5t-24.5 84.5
q0 17 3 35l5 32q12 74 73 127t136 53h21q67 0 110.5 -43.5t43.5 -108.5q0 -10 -2 -28z" />
    <glyph glyph-name="T" unicode="T" 
d="M541 711l-7 -43q-2 -13 -13 -22.5t-24 -9.5h-127l-96 -604q-1 -13 -12 -22.5t-25 -9.5h-42q-12 0 -19.5 8t-7.5 19v5l96 604h-127q-12 0 -19.5 8t-7.5 19v5l7 43q1 13 12 22t24 9h361q12 0 19.5 -7.5t7.5 -18.5v-5z" />
    <glyph glyph-name="U" unicode="U" 
d="M520 711l-86 -541q-12 -75 -73 -128t-136 -53h-21q-67 0 -110.5 43.5t-43.5 108.5q0 9 2 29l86 541q2 13 13 22t24 9h42q12 0 19.5 -7.5t7.5 -18.5v-5l-86 -541q0 -2 -0.5 -6t-0.5 -6q0 -26 18.5 -44.5t45.5 -18.5h21q31 0 56 22t30 53l86 541q1 13 12 22t24 9h43
q12 0 19.5 -7.5t7.5 -18.5v-5z" />
    <glyph glyph-name="V" unicode="V" 
d="M545 704l-256 -679q-4 -10 -14 -17.5t-21 -7.5h-77q-11 0 -18.5 7.5t-8.5 17.5l-40 679v2q0 14 11 25t26 11h44q11 0 18.5 -7.5t8.5 -17.5l30 -513l194 513q4 10 14 17.5t21 7.5h43q13 0 20.5 -7.5t7.5 -18.5q0 -6 -3 -12z" />
    <glyph glyph-name="W" unicode="W" 
d="M587 710l-60 -322l-102 -360q-3 -11 -13.5 -19.5t-22.5 -8.5h-83q-11 0 -19 7t-8 17l-16 273l-102 -273q-3 -10 -13.5 -17t-20.5 -7h-84q-11 0 -19 8t-8 19v1l12 360l42 322q2 13 13 22.5t24 9.5h42q12 0 19.5 -7.5t7.5 -18.5v-4l-41 -315l-12 -227l91 251q4 10 14.5 17
t20.5 7h75q11 0 19 -7t8 -17l13 -251l59 227l59 315q2 13 13 21.5t23 8.5h43q12 0 19.5 -8t7.5 -19q0 -3 -1 -5z" />
    <glyph glyph-name="X" unicode="X" 
d="M528 697l-193 -314l100 -338q2 -6 2 -9q0 -14 -11 -25t-27 -11h-46q-20 0 -26 19l-70 236l-145 -236q-13 -19 -32 -19h-47q-13 0 -20.5 7.5t-7.5 18.5q0 8 6 19l207 338l-93 314q-1 4 -1 10q0 14 10.5 24.5t26.5 10.5h47q8 0 16 -5.5t10 -12.5l63 -213l131 213
q11 18 32 18h46q28 0 28 -25q0 -9 -6 -20z" />
    <glyph glyph-name="Y" unicode="Y" 
d="M527 699l-206 -375l-47 -292q-1 -13 -12 -22.5t-25 -9.5h-42q-12 0 -19.5 8t-7.5 19v5l46 292l-87 375q-1 3 -1 8q0 14 11 24.5t26 10.5h46q9 0 17 -6t9 -14l54 -264l137 264q11 20 33 20h45q13 0 20.5 -7t7.5 -18q0 -8 -5 -18z" />
    <glyph glyph-name="Z" unicode="Z" 
d="M520 711l-7 -43q0 -10 -12 -30l-333 -532h245q12 0 19.5 -8t7.5 -19v-5l-7 -42q-1 -13 -12 -22.5t-24 -9.5h-340q-12 0 -19.5 8t-7.5 19v5l6 37q3 17 14 35l332 532h-213q-12 0 -20 8t-8 19q0 4 1 5l6 43q2 13 13 22t24 9h308q12 0 19.5 -7.5t7.5 -18.5v-5z" />
    <glyph glyph-name="bracketleft" unicode="[" 
d="M445 711l-6 -43q-2 -13 -13 -22.5t-24 -9.5h-96l-117 -742h95q12 0 19.5 -8t7.5 -19v-5l-7 -42q-1 -13 -12 -22.5t-25 -9.5h-169q-12 0 -19.5 8t-7.5 19v5l141 891q2 13 13 22t24 9h170q11 0 19 -7.5t8 -18.5q0 -4 -1 -5z" />
    <glyph glyph-name="backslash" unicode="\" 
d="M413 44q1 -3 1 -8q0 -14 -11 -25t-26 -11h-46q-8 0 -16 6t-10 14l-168 679q-1 2 -1 8q0 14 10.5 24.5t26.5 10.5h46q20 0 26 -19z" />
    <glyph glyph-name="bracketright" unicode="]" 
d="M445 711l-141 -891q-1 -13 -12 -22.5t-25 -9.5h-169q-12 0 -19.5 8t-7.5 19v5l7 42q2 13 13 22.5t24 9.5h95l118 742h-96q-12 0 -19.5 8t-7.5 19v5l7 43q2 13 13 22t24 9h170q11 0 19 -7.5t8 -18.5q0 -4 -1 -5z" />
    <glyph glyph-name="asciicircum" unicode="^" 
d="M477 361q0 -1 0.5 -3.5t0.5 -3.5q0 -14 -11 -25t-27 -11h-45q-21 0 -27 21l-57 257l-140 -257q-11 -21 -33 -21h-45q-13 0 -20.5 7.5t-7.5 18.5q0 7 5 17l195 361q11 20 33 20h72q9 0 17 -6t9 -14z" />
    <glyph glyph-name="underscore" unicode="_" 
d="M419 74l-7 -42q-2 -14 -13 -23t-24 -9h-318q-12 0 -19.5 8t-7.5 19v5l7 42q2 13 13 22.5t24 9.5h318q12 0 19.5 -8t7.5 -19v-5z" />
    <glyph glyph-name="grave" unicode="`" 
d="M372 624q5 -8 5 -16q0 -14 -11 -24.5t-27 -10.5h-43q-14 0 -21 9l-89 106q-7 8 -7 19q0 14 11 24.5t27 10.5h64q16 0 23 -11z" />
    <glyph glyph-name="a" unicode="a" 
d="M348 361q0 2 0.5 6t0.5 5q0 27 -18 45t-46 18h-21q-31 0 -56.5 -21.5t-29.5 -52.5l-30 -191q-1 -4 -1 -12q0 -27 18 -45t45 -18h21q31 0 56.5 22t29.5 53zM483 74l-7 -42q-2 -13 -13 -22.5t-24 -9.5h-21q-50 0 -80 32q-60 -43 -123 -43h-22q-67 0 -110.5 43.5
t-43.5 108.5q0 14 3 29l30 191q12 74 73 127t136 53h21q45 0 80 -20q10 9 24 9h43q11 0 19 -7.5t8 -19.5q0 -3 -1 -4l-58 -372q-1 -1 -1 -3q0 -8 5.5 -13t13.5 -5h21q11 0 19 -8t8 -19v-5z" />
    <glyph glyph-name="b" unicode="b" 
d="M367 361q0 2 0.5 6t0.5 5q0 27 -18 45t-46 18h-21q-31 0 -56.5 -21.5t-29.5 -52.5l-30 -191q-1 -4 -1 -12q0 -27 18 -45t45 -18h21q31 0 56.5 22t29.5 53zM473 361l-31 -191q-11 -75 -72.5 -128t-135.5 -53h-22q-43 0 -80 21q-10 -10 -24 -10h-42q-12 0 -20 8t-8 19
q0 1 0.5 2.5t0.5 2.5l107 679q2 13 13 22t24 9h43q11 0 19 -7.5t8 -18.5q0 -4 -1 -5l-29 -186q38 16 77 16h21q67 0 110.5 -43.5t43.5 -108.5q0 -10 -2 -28z" />
    <glyph glyph-name="c" unicode="c" 
d="M464 361q-2 -14 -13 -23t-24 -9h-42q-12 0 -19.5 8t-7.5 19v5q1 4 1 11q0 27 -17.5 45t-45.5 18h-22q-31 0 -56 -21.5t-30 -52.5l-30 -191q0 -2 -0.5 -6t-0.5 -6q0 -26 18.5 -44.5t45.5 -18.5h21q31 0 56 22t30 53q2 13 13 22.5t24 9.5h42q12 0 19.5 -8t7.5 -19v-5
q-12 -75 -73 -128t-136 -53h-21q-67 0 -110.5 43.5t-43.5 108.5q0 9 2 29l30 191q12 74 73.5 127t135.5 53h21q67 0 111 -43.5t44 -108.5q0 -15 -3 -28z" />
    <glyph glyph-name="d" unicode="d" 
d="M350 361q0 2 0.5 6t0.5 5q0 27 -18 45t-46 18h-21q-31 0 -56.5 -21.5t-29.5 -52.5l-30 -191q-1 -4 -1 -12q0 -27 18 -45t45 -18h21q31 0 56.5 22t29.5 53zM511 711l-107 -679q-2 -13 -13 -22.5t-24 -9.5h-43q-13 0 -21 10q-44 -21 -86 -21h-22q-66 0 -110 43.5t-44 108.5
q0 14 3 29l30 191q12 74 73 127t136 53h21q38 0 72 -16l29 186q2 13 13 22t24 9h42q12 0 20 -7.5t8 -18.5v-3z" />
    <glyph glyph-name="e" unicode="e" 
d="M358 361q1 4 1 11q0 27 -17.5 45t-45.5 18h-22q-31 0 -56 -21.5t-30 -52.5l-6 -43h169zM464 361l-18 -117q-2 -13 -13 -22.5t-24 -9.5h-244l-7 -42q0 -2 -0.5 -6t-0.5 -6q0 -26 18.5 -44.5t45.5 -18.5h21q24 0 43.5 13.5t27 24.5t9.5 17q10 24 35 24q2 0 8 -2l39 -10
q19 -6 19 -26q0 -7 -3 -13q-25 -58 -79 -96t-116 -38h-21q-67 0 -110.5 43.5t-43.5 108.5q0 9 2 29l30 191q12 74 73.5 127t135.5 53h21q67 0 110.5 -43.5t43.5 -108.5q0 -19 -2 -28z" />
    <glyph glyph-name="f" unicode="f" 
d="M572 573l-7 -43q-1 -13 -12 -22t-24 -9h-43q-12 0 -19.5 7.5t-7.5 18.5v5l7 43q1 6 1 16q0 27 -14.5 42.5t-38.5 15.5h-42q-28 0 -49 -20t-27 -54l-10 -64h96q11 0 19 -8t8 -19q0 -3 -1 -5l-6 -42q-2 -13 -13 -22.5t-24 -9.5h-96l-47 -297h159q12 0 20 -8t8 -19
q0 -3 -1 -5l-6 -42q-2 -13 -13 -22.5t-24 -9.5h-329q-12 0 -19.5 8t-7.5 19v5l7 42q2 14 13 23t24 9h63l47 297h-53q-11 0 -19 8t-8 19q0 3 1 5l6 42q2 13 13 22.5t24 9.5h53l10 64q12 73 67.5 126.5t131.5 53.5h42q68 0 106 -42.5t38 -106.5q0 -16 -3 -31z" />
    <glyph glyph-name="g" unicode="g" 
d="M350 361q0 2 0.5 6t0.5 6q0 26 -18 44t-46 18h-21q-31 0 -56 -21.5t-30 -52.5l-30 -191q-1 -4 -1 -12q0 -26 17.5 -44t45.5 -18h22q31 0 56 21.5t30 52.5zM478 499l-86 -541q-12 -75 -73 -127.5t-136 -52.5h-21q-75 0 -119 52q-6 8 -6 18q0 17 13 27l35 30q12 10 24 10
q14 0 21 -10q18 -21 49 -21h21q31 0 56 21.5t30 52.5l7 48q-38 -16 -76 -16h-22q-66 0 -110 43.5t-44 108.5q0 13 3 28l30 191q12 75 73 127.5t136 52.5h21q45 0 80 -20q10 9 24 9h43q12 0 19.5 -7.5t7.5 -19.5v-4z" />
    <glyph glyph-name="h" unicode="h" 
d="M468 361l-52 -329q-1 -13 -12 -22.5t-24 -9.5h-43q-12 0 -19.5 8t-7.5 19v5l52 329q1 4 1 11q0 27 -17.5 45t-45.5 18h-21q-31 0 -56.5 -21.5t-29.5 -52.5l-52 -329q-2 -13 -13 -22.5t-24 -9.5h-43q-11 0 -19 8t-8 19q0 3 1 5l107 679q2 13 13 22t24 9h42q12 0 20 -7.5
t8 -18.5q0 -1 -1 -3v-2l-29 -186q38 16 77 16h21q67 0 110.5 -43.5t43.5 -108.5q0 -15 -3 -28z" />
    <glyph glyph-name="i" unicode="i" 
d="M461 74l-6 -42q-2 -13 -13 -22.5t-24 -9.5h-382q-12 0 -19.5 8t-7.5 19v5l7 42q2 14 13 23t24 9h159l50 318h-116q-12 0 -20 8t-8 19q0 3 1 5l6 43q2 13 13 22t24 9h191q12 0 19.5 -7.5t7.5 -19.5v-4l-62 -393h117q11 0 19 -8t8 -19q0 -3 -1 -5zM424 711l-13 -85
q-2 -13 -13 -22.5t-24 -9.5h-85q-12 0 -19.5 8t-7.5 19v5l14 85q1 13 12 22t25 9h84q12 0 20 -7.5t8 -18.5q0 -1 -1 -3v-2z" />
    <glyph glyph-name="j" unicode="j" 
d="M433 499l-86 -541q-11 -75 -72.5 -128t-136.5 -53q-66 0 -110 43.5t-44 108.5q0 14 3 29l10 63q2 14 13 23t24 9h42q12 0 19.5 -8t7.5 -19v-5l-10 -63q-1 -4 -1 -12q0 -27 17.5 -45t45.5 -18q31 0 56.5 22t29.5 53l74 466h-159q-12 0 -19.5 8t-7.5 19v5l7 43q2 13 13 22
t24 9h233q12 0 19.5 -7.5t7.5 -19.5v-4zM477 711l-13 -85q-2 -13 -13 -22.5t-24 -9.5h-85q-12 0 -19.5 8t-7.5 19v5l14 85q2 13 13 22t24 9h84q12 0 20 -7.5t8 -18.5q0 -4 -1 -5z" />
    <glyph glyph-name="k" unicode="k" 
d="M482 476l-200 -172l162 -252q5 -10 5 -17q0 -14 -11 -24.5t-27 -10.5h-54q-15 0 -23 12l-139 216l-32 -27l-27 -169q-1 -13 -12 -22.5t-24 -9.5h-43q-12 0 -19.5 8t-7.5 19v5l108 679q2 13 13 22t24 9h42q12 0 19.5 -7.5t7.5 -18.5v-5l-57 -360l197 170q11 9 24 9h60
q13 0 21 -7t8 -18q0 -15 -15 -29z" />
    <glyph glyph-name="l" unicode="l" 
d="M461 74l-6 -42q-2 -13 -13 -22.5t-24 -9.5h-393q-11 0 -19 8t-8 19v5l7 42q2 13 13 22.5t24 9.5h159l84 530h-116q-12 0 -20 8t-8 19q0 4 1 5l6 43q2 13 13 22t24 9h191q12 0 19.5 -7.5t7.5 -18.5v-5l-96 -605h128q11 0 19 -8t8 -19q0 -3 -1 -5z" />
    <glyph glyph-name="m" unicode="m" 
d="M513 403l-58 -371q-2 -13 -13 -22.5t-24 -9.5h-43q-11 0 -19 8t-8 19q0 3 1 5l58 371q1 2 1 5q0 11 -8 19t-19 8h-11q-13 0 -24 -9t-13 -23l-59 -372q-2 -13 -13 -22t-24 -9h-42q-12 0 -19.5 7.5t-7.5 19.5v4l59 372v5q0 11 -7.5 19t-19.5 8h-10q-13 0 -24 -9t-13 -23
l-59 -371q-2 -13 -13 -22.5t-24 -9.5h-42q-12 0 -20 8t-8 19q0 1 0.5 2.5t0.5 2.5l74 467q2 13 13 22t24 9h42q6 0 8 -1q27 12 57 12h11q48 0 80 -29q43 29 90 29h10q51 0 84.5 -33t33.5 -83q0 -14 -2 -22z" />
    <glyph glyph-name="n" unicode="n" 
d="M468 361l-52 -329q-1 -13 -12 -22.5t-24 -9.5h-43q-12 0 -19.5 8t-7.5 19v5l52 329q1 4 1 11q0 27 -17.5 45t-45.5 18h-21q-31 0 -56.5 -21.5t-29.5 -52.5l-52 -329q-2 -13 -13 -22.5t-24 -9.5h-43q-11 0 -19 8t-8 19q0 3 1 5l73 467q2 13 13 22t24 9h43q14 0 21 -9
q42 20 87 20h21q67 0 110.5 -43.5t43.5 -108.5q0 -15 -3 -28z" />
    <glyph glyph-name="o" unicode="o" 
d="M358 361q1 4 1 11q0 27 -17.5 45t-45.5 18h-22q-31 0 -56 -21.5t-30 -52.5l-30 -191q0 -2 -0.5 -6t-0.5 -6q0 -26 18.5 -44.5t45.5 -18.5h21q31 0 56 22t30 53zM464 361l-30 -191q-12 -75 -73 -128t-136 -53h-21q-67 0 -110.5 43.5t-43.5 108.5q0 9 2 29l30 191
q12 74 73.5 127t135.5 53h21q67 0 111 -43.5t44 -108.5q0 -15 -3 -28z" />
    <glyph glyph-name="p" unicode="p" 
d="M367 361q0 2 0.5 6t0.5 5q0 27 -18 45t-46 18h-21q-31 0 -56.5 -21.5t-29.5 -52.5l-30 -191q-1 -4 -1 -12q0 -27 18 -45t45 -18h21q31 0 56.5 22t29.5 53zM473 361l-31 -191q-11 -75 -72.5 -128t-135.5 -53h-22q-37 0 -71 16l-30 -185q-1 -13 -12 -22.5t-25 -9.5h-42
q-12 0 -19.5 8t-7.5 19v5l108 679q1 13 12 22t25 9h42q14 0 21 -9q42 20 87 20h21q67 0 110.5 -43.5t43.5 -108.5q0 -10 -2 -28z" />
    <glyph glyph-name="q" unicode="q" 
d="M350 361q0 2 0.5 6t0.5 5q0 27 -18 45t-46 18h-21q-31 0 -56.5 -21.5t-29.5 -52.5l-30 -191q-1 -4 -1 -12q0 -27 18 -45t45 -18h21q31 0 56.5 22t29.5 53zM478 499l-108 -679q-2 -14 -13 -23t-24 -9h-42q-12 0 -19.5 8t-7.5 19v5l29 185q-38 -16 -76 -16h-22
q-66 0 -110 43.5t-44 108.5q0 14 3 29l30 191q12 74 73 127t136 53h21q45 0 80 -20q10 9 24 9h43q12 0 19.5 -7.5t7.5 -19.5v-4z" />
    <glyph glyph-name="r" unicode="r" 
d="M485 361l-11 -75q-2 -13 -13 -22t-24 -9h-43q-11 0 -19 7.5t-8 19.5q0 3 1 4l11 75q1 4 1 12q0 27 -18 44.5t-45 17.5h-21q-30 0 -55.5 -21t-30.5 -53l-41 -255h159q12 0 20 -8t8 -19q0 -3 -1 -5l-6 -42q-2 -13 -13 -22.5t-24 -9.5h-319q-11 0 -19 8t-8 19q0 3 1 5l6 42
q2 13 13 22.5t24 9.5h53l41 255q11 73 71.5 126.5t136.5 53.5h22q68 0 111 -44t43 -109q0 -14 -3 -27z" />
    <glyph glyph-name="s" unicode="s" 
d="M466 371q-2 -13 -13 -22.5t-24 -9.5h-42q-12 0 -20 8t-8 19q0 1 1 3v2q0 2 0.5 5.5t0.5 5.5q0 23 -17 38t-48 15h-11q-35 0 -57 -16.5t-27 -43.5v-4q0 -18 25 -30t61 -21.5t72 -23t61 -42t25 -70.5q0 -7 -2 -25q-12 -76 -73 -123t-134 -47h-32q-66 0 -111 38.5t-45 103.5
q0 8 2 28l2 11q2 13 13 22.5t24 9.5h42q12 0 20 -8t8 -19q0 -1 -1 -3v-2l-1 -11q-1 -3 -1 -10q0 -24 17 -39t48 -15h32q33 0 56 18.5t28 45.5v5q0 18 -25 30t-61 21.5t-72 23t-61 41.5t-25 70q0 9 2 25q12 76 72.5 121t134.5 45h10q66 0 111 -38.5t45 -102.5q0 -9 -2 -29z
" />
    <glyph glyph-name="t" unicode="t" 
d="M462 477l-7 -42q-2 -13 -13 -22.5t-24 -9.5h-180l-37 -233q-1 -4 -1 -12q0 -27 18 -45t45 -18q31 0 56.5 22t29.5 53l4 21q1 13 12 22.5t24 9.5h43q12 0 19.5 -8t7.5 -19v-5l-4 -21q-12 -75 -73 -128t-136 -53q-67 0 -110.5 43.5t-43.5 108.5q0 14 3 29l37 233h-53
q-12 0 -20 8t-8 19q0 3 1 5l6 42q2 13 13 22.5t24 9.5h53l32 202q2 13 13 22t24 9h43q11 0 19 -7.5t8 -18.5q0 -4 -1 -5l-32 -202h181q11 0 19 -8t8 -19v-5z" />
    <glyph glyph-name="u" unicode="u" 
d="M482 499l-74 -467q-2 -13 -13 -22.5t-24 -9.5h-42q-14 0 -22 10q-44 -21 -86 -21h-21q-67 0 -110.5 43.5t-43.5 108.5q0 19 2 29l52 329q2 13 13 22t24 9h42q12 0 19.5 -7.5t7.5 -19.5v-4l-52 -329q-1 -4 -1 -12q0 -27 18 -45t45 -18h22q31 0 56 22t30 53l52 329
q2 13 13 22t24 9h42q12 0 19.5 -7.5t7.5 -19.5v-4z" />
    <glyph glyph-name="v" unicode="v" 
d="M523 488l-237 -467q-11 -21 -34 -21h-72q-9 0 -17.5 6.5t-9.5 14.5l-89 467q-1 2 -1 6q0 15 11 25.5t26 10.5h56q9 0 17.5 -6t9.5 -15l58 -355l181 355q10 21 33 21h45q13 0 20.5 -7t7.5 -18q0 -7 -5 -17z" />
    <glyph glyph-name="w" unicode="w" 
d="M546 498q-33 -215 -34 -219l-87 -253q-4 -11 -14 -18.5t-21 -7.5h-95q-11 0 -19 7t-8 17l-12 230l-84 -230q-3 -10 -13 -17t-21 -7h-95q-11 0 -19 7.5t-8 18.5l-7 253l35 219q2 13 13 23t24 10h42q12 0 20 -8t8 -19q0 -1 -0.5 -2.5t-0.5 -2.5l-33 -207l-6 -175l95 254
q11 32 37 32h74q25 0 27 -32l15 -254l49 175l32 207q2 13 13 22.5t24 9.5h43q11 0 19 -8.5t8 -19.5q0 -3 -1 -5z" />
    <glyph glyph-name="x" unicode="x" 
d="M493 481l-170 -208l111 -224q4 -5 4 -14q0 -14 -11 -24.5t-27 -10.5h-51q-16 0 -24 14l-81 162l-132 -162q-12 -14 -29 -14h-50q-13 0 -21 7t-8 18q0 13 10 24l182 224l-104 208q-3 7 -3 14q0 14 10.5 24.5t26.5 10.5h51q19 0 24 -14l74 -147l119 147q12 14 29 14h51
q28 0 28 -25q0 -12 -9 -24z" />
    <glyph glyph-name="y" unicode="y" 
d="M484 490q-190 -437 -235 -537q-19 -41 -43.5 -67.5t-56 -37.5t-57 -14.5t-62.5 -3.5h-21q-12 0 -19.5 8t-7.5 19v5l7 43q2 13 13 22t24 9h21h25q30 0 46.5 8t30.5 35q1 2 27 56l-66 454v5q0 14 11 25t26 11h45q10 0 17.5 -6.5t9.5 -15.5l37 -306l128 305q4 10 14 16.5
t20 6.5h42q13 0 20.5 -7.5t7.5 -18.5q0 -7 -4 -14z" />
    <glyph glyph-name="z" unicode="z" 
d="M486 499l-8 -50q-2 -11 -9 -18l-285 -325h229q12 0 19.5 -8t7.5 -19v-5l-7 -42q-1 -13 -12 -22.5t-24 -9.5h-340q-12 0 -19.5 8t-7.5 19v5l8 49q2 10 9 19l290 324h-202q-12 0 -19.5 8t-7.5 19v5l7 43q2 13 13 22t24 9h307q12 0 19.5 -7.5t7.5 -19.5v-4z" />
    <glyph glyph-name="braceleft" unicode="{" 
d="M498 711l-6 -43q-2 -13 -13 -22.5t-24 -9.5h-21q-31 0 -56.5 -21.5t-29.5 -52.5l-27 -170q-12 -74 -73 -127q35 -41 35 -99q0 -13 -3 -28l-26 -170q-1 -4 -1 -12q0 -26 17.5 -44t45.5 -18h21q12 0 19.5 -8t7.5 -19v-5l-7 -42q-1 -13 -12 -22.5t-25 -9.5h-21
q-67 0 -110.5 43.5t-43.5 108.5q0 14 3 28l26 170q1 4 1 12q0 26 -17.5 44t-45.5 18q-12 0 -19.5 8t-7.5 19v5l7 42q2 14 13 23t24 9q31 0 56 21.5t30 52.5l27 170q11 75 72 127.5t136 52.5h22q11 0 19 -7.5t8 -18.5q0 -4 -1 -5z" />
    <glyph glyph-name="bar" unicode="|" 
d="M382 711l-141 -891q-2 -13 -13 -22.5t-24 -9.5h-43q-11 0 -19 8t-8 19q0 3 1 5l141 891q1 13 12 22t25 9h42q12 0 19.5 -7.5t7.5 -18.5v-5z" />
    <glyph glyph-name="braceright" unicode="}" 
d="M431 286l-6 -42q-2 -13 -13 -22.5t-24 -9.5q-31 0 -56.5 -21.5t-29.5 -52.5l-27 -170q-12 -74 -73 -127t-136 -53h-21q-12 0 -19.5 8t-7.5 19v5l7 42q2 13 13 22.5t24 9.5h21q31 0 56 21.5t30 52.5l27 170q10 74 72 127q-34 40 -34 99q0 19 2 28l27 170q0 2 0.5 6t0.5 6
q0 26 -18 44t-46 18h-21q-12 0 -19.5 8t-7.5 19v5l8 49q22 25 36 25h21q67 0 110.5 -43t43.5 -108q0 -9 -2 -29l-27 -170q-1 -4 -1 -11q0 -27 17.5 -45t45.5 -18q12 0 20 -8t8 -19q0 -3 -1 -5z" />
    <glyph glyph-name="asciitilde" unicode="~" 
d="M479 318l-4 -21q-7 -46 -49.5 -81t-95.5 -35q-64 0 -114 57q-21 26 -40 26q-18 0 -25 -20l-4 -11q-11 -31 -37 -31h-42q-12 0 -19.5 7.5t-7.5 18.5v5l3 22q8 46 51 80.5t95 34.5q66 0 113 -57q22 -25 41 -25q18 0 25 20l4 10q11 32 37 32h42q12 0 19.5 -8t7.5 -19v-5z
" />
    <glyph glyph-name="nbspace" unicode="&#xa0;" 
 />
    <glyph glyph-name="exclamdown" unicode="&#xa1;" 
d="M313 276l-72 -456q-2 -13 -13 -22.5t-24 -9.5h-43q-11 0 -19 8t-8 19q0 3 1 5l72 456q2 13 13 22.5t24 9.5h42q12 0 19.5 -8t7.5 -19v-5zM380 499l-17 -107q-2 -13 -13 -22t-24 -9h-106q-11 0 -19 7.5t-8 19.5q0 3 1 4l16 107q2 13 13 22t24 9h106q12 0 19.5 -8t7.5 -19
v-4z" />
    <glyph glyph-name="cent" unicode="&#xa2;" 
d="M312 433q-10 2 -16 2h-22q-31 0 -56 -21.5t-30 -52.5l-30 -191q0 -2 -0.5 -6t-0.5 -6q0 -7 2 -17zM464 361q-2 -14 -13 -23t-24 -9h-42q-12 0 -19.5 8t-7.5 19v5q1 4 1 11t-2 17l-153 -292q12 -2 17 -2h21q31 0 56 22t30 53q2 13 13 22.5t24 9.5h42q12 0 19.5 -8t7.5 -19
v-5q-12 -75 -73 -128t-136 -53h-21q-26 0 -52 8l-22 -42q-4 -7 -11 -7h-1l-2 1l-38 14q-5 3 -5 9q0 3 1 5l26 50q-50 44 -50 114q0 9 2 29l30 191q12 74 73.5 127t135.5 53h21q26 0 52 -8l22 42q4 7 12 7q2 0 3 -1l37 -14q6 -1 6 -9v-2q-1 -2 -1 -3l-26 -49q50 -45 50 -115
q0 -15 -3 -28z" />
    <glyph glyph-name="sterling" unicode="&#xa3;" 
d="M530 573l-12 -74q-2 -13 -13 -22.5t-24 -9.5h-42q-12 0 -20 8t-8 19l1 2v3l12 74q0 2 0.5 6t0.5 5q0 27 -18 45t-46 18h-21q-31 0 -56.5 -21.5t-29.5 -52.5l-24 -149h159q12 0 20 -8t8 -19q0 -3 -1 -5l-6 -42q-2 -13 -13 -22.5t-24 -9.5h-159l-22 -138q-6 -37 -28 -74
h260q12 0 19.5 -8t7.5 -19v-5l-7 -42q-2 -13 -13 -22.5t-24 -9.5h-424q-12 0 -19.5 8t-7.5 19v5l7 42q2 14 13 23t24 9q31 0 56 21.5t30 52.5l21 138h-31q-12 0 -19.5 8t-7.5 19v5l7 42q1 13 12 22.5t24 9.5h32l24 149q12 74 73 127t136 53h21q67 0 110.5 -43.5t43.5 -108.5
q0 -10 -2 -28z" />
    <glyph glyph-name="yen" unicode="&#xa5;" 
d="M527 699l-169 -307h58q12 0 19.5 -7.5t7.5 -18.5v-5l-7 -43q-2 -13 -13 -22.5t-24 -9.5h-84l-7 -42h85q11 0 19 -8t8 -19v-5l-7 -42q-2 -13 -13 -22.5t-24 -9.5h-85l-17 -106q-1 -13 -12 -22.5t-25 -9.5h-42q-12 0 -19.5 8t-7.5 19v5l17 106h-85q-12 0 -19.5 8t-7.5 19v5
l7 42q2 13 13 22.5t24 9.5h85l7 42h-85q-12 0 -19.5 8t-7.5 19v5l7 43q1 13 12 22t24 9h58l-71 307q-1 3 -1 8q0 14 11 24.5t26 10.5h46q9 0 17 -6t9 -14l57 -242l134 242q11 20 33 20h45q13 0 20.5 -7t7.5 -18q0 -8 -5 -18z" />
    <glyph glyph-name="brokenbar" unicode="&#xa6;" 
d="M315 286l-41 -254q-1 -13 -12 -22.5t-25 -9.5h-42q-12 0 -19.5 8t-7.5 19v5l41 254q1 13 12 22.5t24 9.5h43q12 0 19.5 -8t7.5 -19v-5zM382 711l-41 -255q-1 -13 -12 -22.5t-24 -9.5h-43q-12 0 -19.5 8t-7.5 19v5l41 255q1 13 12 22t25 9h42q12 0 19.5 -7.5t7.5 -18.5v-5
z" />
    <glyph glyph-name="section" unicode="&#xa7;" 
d="M377 212q2 12 2 18q0 25 -11.5 47.5t-33 40t-41.5 31t-47.5 29.5t-40.5 25q-8 -1 -19.5 -7t-26.5 -26.5t-20 -51.5q-1 -6 -1 -18q0 -31 20 -59.5t42 -43.5t60 -38t51 -32q9 1 20.5 7t26 26.5t19.5 51.5zM498 573q-2 -13 -13 -22.5t-24 -9.5h-42q-12 0 -20 8t-8 19
q0 1 0.5 2.5t0.5 2.5q0 2 0.5 6t0.5 5q0 27 -18 45t-46 18h-21q-34 0 -57 -18t-27 -46q-1 -4 -1 -12q0 -26 19.5 -49t48.5 -40t63.5 -39.5t63.5 -45.5t48.5 -61t19.5 -84q0 -19 -3 -40q-17 -105 -99 -161q17 -32 17 -72q0 -10 -2 -32q-12 -76 -73 -123t-134 -47h-32
q-67 0 -110.5 43.5t-43.5 108.5q0 19 2 29l3 21q2 13 13 22.5t24 9.5h43q11 0 19 -8t8 -19q0 -4 -1 -5l-3 -21q-1 -4 -1 -12q0 -27 17.5 -45t45.5 -18h32q34 0 57 18.5t28 45.5q0 2 0.5 6t0.5 6q0 26 -19.5 49.5t-49 40t-63.5 39t-63.5 46t-49 61.5t-19.5 84q0 18 3 39
q17 106 99 161q-17 36 -17 73q0 14 3 31q12 76 73 123t134 47h21q67 0 110.5 -43.5t43.5 -108.5q0 -10 -2 -28z" />
    <glyph glyph-name="dieresis" unicode="&#xa8;" 
d="M294 689l-14 -84q-2 -14 -13 -23t-24 -9h-74q-12 0 -19.5 8t-7.5 19v5l14 84q1 13 12 22.5t25 9.5h74q12 0 19.5 -8t7.5 -19v-5zM495 689l-13 -84q-2 -13 -13 -22.5t-24 -9.5h-74q-12 0 -20 8t-8 19l1 2v3l13 84q2 13 13 22.5t24 9.5h74q12 0 19.5 -8t7.5 -19v-5z" />
    <glyph glyph-name="copyright" unicode="&#xa9;" 
d="M408 573q-4 -16 -19 -16h-21q-13 0 -13 14v2v4q0 10 -6.5 16.5t-16.5 6.5h-42q-11 0 -20 -8t-11 -19l-13 -85v-2l-1 -2q0 -10 6.5 -16t16.5 -6h43q11 0 20 8t10 18q4 16 19 16h21q13 0 13 -13v-3q-5 -33 -32 -56t-60 -23h-42q-30 0 -49 19t-19 48q0 8 1 12l13 85
q5 33 32 56.5t60 23.5h43q29 0 48.5 -19t19.5 -48q0 -3 -0.5 -7t-0.5 -6zM447 557q2 8 2 22q0 52 -34.5 86.5t-87.5 34.5q-59 0 -107.5 -42t-58.5 -101l-8 -53q-2 -8 -2 -23q0 -51 34.5 -85.5t87.5 -34.5q59 0 107.5 42t58.5 101zM500 557l-8 -53q-13 -81 -79.5 -138.5
t-147.5 -57.5q-73 0 -120.5 47t-47.5 118q0 15 3 31l8 53q13 81 79.5 138.5t147.5 57.5q73 0 120.5 -47t47.5 -118q0 -16 -3 -31z" />
    <glyph glyph-name="ordfeminine" unicode="&#xaa;" 
d="M333 605q1 2 1 6q0 16 -10.5 26t-26.5 10h-10q-18 0 -32.5 -12.5t-16.5 -29.5l-7 -43q0 -1 -0.5 -3t-0.5 -4q0 -15 10.5 -25t26.5 -10h10q18 0 32.5 12.5t16.5 29.5zM426 318l-7 -42q-2 -13 -13 -22.5t-24 -9.5h-265q-12 0 -19.5 8t-7.5 19v5l7 42q2 14 13 23t24 9h265
q12 0 19.5 -8t7.5 -19v-5zM463 488l-7 -43q-1 -13 -12 -22t-24 -9h-22q-33 0 -57 21q-39 -21 -80 -21h-11q-55 0 -91 35.5t-36 89.5q0 7 2 23l7 43q10 61 60 104.5t112 43.5h10q31 0 60 -13q4 2 13 2h42q12 0 19.5 -7.5t7.5 -18.5v-5l-30 -191h10q12 0 20 -8t8 -19
q0 -1 -0.5 -2.5t-0.5 -2.5z" />
    <glyph glyph-name="guillemotleft" unicode="&#xab;" 
d="M273 396l-108 -131l67 -131q3 -6 3 -14q0 -14 -11 -24.5t-27 -10.5h-48q-17 0 -25 14l-67 133q-3 4 -3 15v3l5 31q2 9 8 17l110 133q11 14 29 14h49q13 0 20.5 -7t7.5 -18q0 -13 -10 -24zM475 396l-108 -131l66 -131q4 -5 4 -14q0 -14 -11 -24.5t-27 -10.5h-49
q-16 0 -24 14l-68 133q-2 6 -2 15v3l5 31q0 6 8 17l110 133q11 14 28 14h49q28 0 28 -25q0 -12 -9 -24z" />
    <glyph glyph-name="logicalnot" unicode="&#xac;" 
d="M433 297l-20 -127q-2 -13 -13 -22.5t-24 -9.5h-42q-12 0 -20 8t-8 19q0 3 1 5l8 53h-201q-12 0 -20 8t-8 19v2q1 2 1 3l7 42q1 13 12 22.5t24 9.5h276q12 0 19.5 -8t7.5 -19v-5z" />
    <glyph glyph-name="registered" unicode="&#xae;" 
d="M355 574v4q0 10 -6.5 16t-16.5 6h-58l-10 -63h58q11 0 20 7.5t11 18.5zM408 574l-2 -11q-8 -45 -49 -68l28 -61q1 -3 1 -8q0 -7 -5.5 -12t-13.5 -5h-25q-7 0 -12 8l-29 67h-46l-9 -59q-1 -6 -6.5 -11t-11.5 -5h-21q-6 0 -10 4.5t-4 9.5v2l34 213q1 6 6.5 10.5t11.5 4.5
h96q29 0 48.5 -19t19.5 -48q0 -2 -0.5 -6t-0.5 -6zM447 557q2 8 2 22q0 52 -34.5 86.5t-87.5 34.5q-59 0 -107.5 -42t-58.5 -101l-8 -53q-2 -8 -2 -23q0 -51 34.5 -85.5t87.5 -34.5q59 0 107.5 42t58.5 101zM500 557l-8 -53q-13 -81 -79.5 -138.5t-147.5 -57.5
q-73 0 -120.5 47t-47.5 118q0 15 3 31l8 53q13 81 79.5 138.5t147.5 57.5q73 0 120.5 -47t47.5 -118q0 -16 -3 -31z" />
    <glyph glyph-name="macron" unicode="&#xaf;" 
d="M493 679l-6 -43q-2 -13 -13 -22t-24 -9h-276q-12 0 -19.5 7.5t-7.5 19.5v4l7 43q2 13 13 22.5t24 9.5h276q11 0 19 -8t8 -19q0 -4 -1 -5z" />
    <glyph glyph-name="degree" unicode="&#xb0;" 
d="M371 573v11q0 27 -17.5 45t-45.5 18q-31 0 -56 -21.5t-30 -52.5l-7 -43q0 -2 -0.5 -6t-0.5 -5q0 -27 18 -45t46 -18q31 0 56 21.5t30 52.5zM477 573l-7 -43q-12 -74 -73 -127t-136 -53q-67 0 -110.5 43.5t-43.5 108.5q0 10 2 28l7 43q12 74 73 127t136 53
q67 0 110.5 -43.5t43.5 -108.5q0 -10 -2 -28z" />
    <glyph glyph-name="plusminus" unicode="&#xb1;" 
d="M411 159l-7 -42q-1 -13 -12 -22.5t-24 -9.5h-276q-12 0 -19.5 8t-7.5 19v5l7 42q2 13 13 22.5t24 9.5h275q12 0 19.5 -8t7.5 -19v-5zM448 392l-7 -42q-2 -13 -13 -22.5t-24 -9.5h-84l-9 -53q-2 -13 -13 -22.5t-24 -9.5h-42q-12 0 -19.5 8t-7.5 19v5l9 53h-85
q-12 0 -19.5 8t-7.5 19v5l7 42q1 13 12 22.5t25 9.5h84l9 53q2 14 13 23t24 9h42q12 0 19.5 -8t7.5 -19v-5l-9 -53h85q12 0 19.5 -8t7.5 -19v-5z" />
    <glyph glyph-name="twosuperior" unicode="&#xb2;" 
d="M300 663q-4 -21 -18.5 -42t-28.5 -33t-40.5 -31t-35.5 -27l-5 -10h89q8 0 13.5 -5t5.5 -13v-1q-1 -1 -1 -2l-5 -32q-4 -21 -24 -21h-154q-18 0 -18 18v3l7 43q4 26 26 51t46.5 41t45.5 33t23 28v2q0 14 -14 14h-10q-15 0 -19 -16q-1 -9 -8.5 -15t-15.5 -6h-32
q-18 0 -18 18v3q6 37 36.5 63.5t68.5 26.5h10q34 0 55.5 -21.5t21.5 -54.5q0 -9 -1 -14z" />
    <glyph glyph-name="threesuperior" unicode="&#xb3;" 
d="M309 721l-7 -43q0 -5 -5 -12l-44 -38q40 -21 40 -67q0 -10 -1 -15l-3 -21q-6 -37 -36.5 -63.5t-68.5 -26.5h-21q-33 0 -55 21.5t-22 54.5q0 9 1 14q1 9 8.5 15t16.5 6h32q8 0 13 -5t5 -13q0 -2 -1 -3v-2q0 -14 14 -14h21q15 0 19 16l3 21v3q0 13 -14 13h-37q-7 0 -12.5 5
t-5.5 13q0 2 1 3l6 44q3 6 6 9l33 32h-48q-7 0 -12.5 5t-5.5 13v3l5 32q4 22 25 22h132q18 0 18 -18v-4z" />
    <glyph glyph-name="acute" unicode="&#xb4;" 
d="M464 688l-122 -106q-11 -9 -24 -9h-43q-28 0 -28 25q0 15 11 26l102 107q11 11 27 11h63q29 0 29 -25q0 -15 -15 -29z" />
    <glyph glyph-name="mu" unicode="&#xb5;" 
d="M486 499l-74 -467q-2 -14 -13 -23t-24 -9h-42q-13 0 -21 10q-44 -21 -87 -21h-21q-38 0 -72 16l-29 -185q-2 -13 -13 -22.5t-24 -9.5h-43q-11 0 -19 8t-8 19q0 3 1 5l107 679q2 13 13 22t24 9h43q11 0 19 -7.5t8 -19.5q0 -3 -1 -4l-52 -329q0 -2 -0.5 -6t-0.5 -6
q0 -26 18.5 -44.5t45.5 -18.5h21q31 0 56 22t30 53l52 329q2 13 13 22t24 9h42q12 0 19.5 -7.5t7.5 -19.5v-4z" />
    <glyph glyph-name="paragraph" unicode="&#xb6;" 
d="M530 710l-141 -890q-2 -14 -13 -23t-24 -9h-42q-12 0 -19.5 8t-7.5 19v5l129 816h-63l-130 -816q-1 -13 -12 -22.5t-24 -9.5h-43q-12 0 -19.5 8t-7.5 19v5l81 509q-63 4 -103 47t-40 105q0 18 2 28l8 53q12 75 73.5 127.5t135.5 52.5h234q10 0 18.5 -7.5t8.5 -19.5
q0 -1 -0.5 -2.5t-0.5 -2.5z" />
    <glyph glyph-name="periodcentered" unicode="&#xb7;" 
d="M343 265q-5 -35 -34 -60t-64 -25q-32 0 -52.5 20.5t-20.5 51.5q0 2 0.5 6.5t0.5 6.5q6 35 35 60t64 25q31 0 51.5 -20.5t20.5 -50.5q0 -9 -1 -14z" />
    <glyph glyph-name="cedilla" unicode="&#xb8;" 
d="M337 53l-82 -165q-7 -16 -23 -26t-33 -10h-45q-45 0 -45 38q0 20 9 38l62 125h157z" />
    <glyph glyph-name="onesuperior" unicode="&#xb9;" 
d="M283 488l-5 -32q-2 -8 -9 -14.5t-16 -6.5h-159q-8 0 -13 5.5t-5 12.5v3l5 32q2 8 9 14.5t16 6.5h48l21 132l-13 -11q-8 -6 -16 -6q-10 0 -14 6l-19 22q-4 5 -4 12q0 10 8 18l64 55q10 6 15 6h48q8 0 13 -5.5t5 -12.5v-4l-34 -212h37q7 0 12.5 -5.5t5.5 -12.5v-3z" />
    <glyph glyph-name="ordmasculine" unicode="&#xba;" 
d="M344 605v6q0 16 -10 26t-26 10h-21q-18 0 -32.5 -12.5t-16.5 -29.5l-7 -43q0 -1 -0.5 -3t-0.5 -4q0 -15 10.5 -25t26.5 -10h21q17 0 31.5 12.5t17.5 29.5zM394 318l-7 -42q-2 -14 -13 -23t-24 -9h-233q-12 0 -19.5 8t-7.5 19v5l7 42q2 14 13 23t24 9h233q12 0 19.5 -8
t7.5 -19v-5zM450 605l-7 -43q-10 -61 -60 -104.5t-112 -43.5h-21q-55 0 -91 35.5t-36 89.5q0 7 2 23l7 43q10 61 60 104.5t112 43.5h21q55 0 91 -35.5t36 -89.5q0 -7 -2 -23z" />
    <glyph glyph-name="guillemotright" unicode="&#xbb;" 
d="M261 281l-5 -31q-2 -10 -8 -18l-110 -133q-12 -14 -29 -14h-49q-28 0 -28 25q0 13 10 24l108 131l-67 131q-3 8 -3 14q0 14 10.5 24.5t26.5 10.5h49q19 0 24 -14l68 -133q3 -4 3 -14v-3zM462 281l-5 -31q0 -7 -8 -18l-110 -133q-12 -14 -28 -14h-49q-28 0 -28 25
q0 12 9 24l108 131l-66 131q-4 7 -4 14q0 14 11 24.5t27 10.5h49q17 0 24 -14l68 -133q2 -6 2 -14v-3z" />
    <glyph glyph-name="onequarter" unicode="&#xbc;" 
d="M444 101l-5 -32q-1 -9 -8.5 -15t-15.5 -6h-16l-4 -27q-2 -8 -9 -14.5t-16 -6.5h-32q-8 0 -13 5t-5 13v3l5 27h-96q-7 0 -12.5 5t-5.5 13q0 2 1 3l8 51q0 4 3 9l105 166q7 13 21 13h35q19 0 19 -17q0 -7 -4 -14l-98 -155h35l4 26q1 9 9 15.5t16 6.5h32q7 0 12.5 -5
t5.5 -13v-4l-4 -26h15q8 0 13.5 -5t5.5 -13l-1 -1v-2zM460 506q4 -4 4 -11q0 -11 -8 -19l-312 -269q-8 -6 -16 -6q-10 0 -14 6l-25 30q-4 4 -4 12q0 10 8 18l312 269q7 6 16 6t14 -6zM283 488l-5 -32q-2 -8 -9 -14.5t-16 -6.5h-159q-8 0 -13 5.5t-5 12.5v3l5 32q2 8 9 14.5
t16 6.5h48l21 132l-13 -11q-8 -6 -16 -6q-10 0 -14 6l-19 22q-4 5 -4 12q0 10 8 18l64 55q10 6 15 6h48q8 0 13 -5.5t5 -12.5v-4l-34 -212h37q7 0 12.5 -5.5t5.5 -12.5v-3z" />
    <glyph glyph-name="onehalf" unicode="&#xbd;" 
d="M457 217q-3 -21 -18 -42t-28 -32.5t-40.5 -31.5t-35.5 -26q-3 -2 -4.5 -4.5t-1.5 -4.5v-2h90q7 0 12.5 -5t5.5 -13v-3l-5 -32q-2 -8 -9 -14.5t-16 -6.5h-154q-7 0 -12.5 5t-5.5 13v3l7 44q4 26 26.5 51t47 41t45 32.5t22.5 27.5v3q0 13 -13 13h-11q-16 0 -18 -16
q-2 -8 -9 -14.5t-16 -6.5h-32q-8 0 -13 5t-5 13q0 2 1 3q5 37 35.5 64t68.5 27h11q34 0 55.5 -22t21.5 -54q0 -5 -2 -15zM460 506q4 -4 4 -11q0 -11 -8 -19l-312 -269q-8 -6 -16 -6q-10 0 -14 6l-25 30q-4 4 -4 12q0 10 8 18l312 269q7 6 16 6t14 -6zM283 488l-5 -32
q-2 -8 -9 -14.5t-16 -6.5h-159q-8 0 -13 5.5t-5 12.5v3l5 32q2 8 9 14.5t16 6.5h48l21 132l-13 -11q-8 -6 -16 -6q-10 0 -14 6l-19 22q-4 5 -4 12q0 10 8 18l64 55q10 6 15 6h48q8 0 13 -5.5t5 -12.5v-4l-34 -212h37q7 0 12.5 -5.5t5.5 -12.5v-3z" />
    <glyph glyph-name="threequarters" unicode="&#xbe;" 
d="M444 101l-5 -32q-1 -9 -8.5 -15t-15.5 -6h-16l-4 -27q-2 -8 -9 -14.5t-16 -6.5h-32q-8 0 -13 5t-5 13v3l5 27h-96q-7 0 -12.5 5t-5.5 13q0 2 1 3l8 51q0 4 3 9l105 166q7 13 21 13h35q19 0 19 -17q0 -7 -4 -14l-98 -155h35l4 26q1 9 9 15.5t16 6.5h32q7 0 12.5 -5
t5.5 -13v-4l-4 -26h15q8 0 13.5 -5t5.5 -13l-1 -1v-2zM460 506q4 -4 4 -11q0 -11 -8 -19l-312 -269q-8 -6 -15 -6t-13.5 5t-11 10.5t-9.5 12.5t-6 8q-4 4 -4 12q0 10 8 18l312 269q7 6 15 6q5 0 10.5 -3t10 -8t8 -9t7 -9.5t4.5 -6.5zM309 721l-7 -43q0 -5 -5 -12l-44 -38
q40 -21 40 -67q0 -10 -1 -15l-3 -21q-6 -37 -36.5 -63.5t-68.5 -26.5h-21q-33 0 -55 21.5t-22 54.5q0 9 1 14q1 9 8.5 15t16.5 6h32q8 0 13 -5t5 -13q0 -2 -1 -3v-2q0 -14 14 -14h21q15 0 19 16l3 21v3q0 13 -14 13h-37q-7 0 -12.5 5t-5.5 13q0 2 1 3l6 44q3 6 6 9l33 32
h-48q-7 0 -12.5 5t-5.5 13v3l5 32q4 22 25 22h132q18 0 18 -18v-4z" />
    <glyph glyph-name="questiondown" unicode="&#xbf;" 
d="M405 -11l-5 -31q-11 -75 -72.5 -128t-135.5 -53h-22q-67 0 -110.5 43.5t-43.5 108.5q0 14 3 29l3 21q17 114 149 201q32 22 41.5 40t15.5 56q2 13 13 22.5t24 9.5h42q12 0 20 -8t8 -19q0 -1 -0.5 -2.5t-0.5 -2.5q-4 -27 -9 -46t-16.5 -43.5t-33.5 -47t-54 -44.5
q-84 -55 -93 -116l-3 -21q-1 -4 -1 -12q0 -27 17.5 -45t45.5 -18h21q31 0 56.5 22t29.5 53l5 31q2 13 13 22.5t24 9.5h43q11 0 19 -8t8 -19q0 -3 -1 -5zM401 499l-17 -107q-1 -13 -12 -22t-24 -9h-107q-11 0 -19 7.5t-8 19.5q0 3 1 4l17 107q1 13 12 22t24 9h106q12 0 20 -8
t8 -19q0 -1 -0.5 -2t-0.5 -2z" />
    <glyph glyph-name="Agrave" unicode="&#xc0;" 
d="M360 339l-31 297h-24l-125 -297h180zM474 296v-6l-41 -258q-1 -13 -12 -22.5t-24 -9.5h-43q-12 0 -19.5 8t-7.5 19v5l32 201h-212l-32 -201q-2 -14 -13 -23t-24 -9h-42q-12 0 -19.5 8t-7.5 19v5l41 258l2 6l178 423q4 10 14 16.5t20 6.5h139q11 0 18.5 -6.5t8.5 -16.5z
M405 837q5 -7 5 -17q0 -14 -11 -24.5t-27 -10.5h-42q-14 0 -21 9l-89 106q-8 10 -8 20q0 13 11 24t28 11h63q15 0 23 -12z" />
    <glyph glyph-name="Aacute" unicode="&#xc1;" 
d="M360 339l-31 297h-24l-125 -297h180zM474 296v-6l-41 -258q-1 -13 -12 -22.5t-24 -9.5h-43q-12 0 -19.5 8t-7.5 19v5l32 201h-212l-32 -201q-2 -14 -13 -23t-24 -9h-42q-12 0 -19.5 8t-7.5 19v5l41 258l2 6l178 423q4 10 14 16.5t20 6.5h139q11 0 18.5 -6.5t8.5 -16.5z
M498 900l-123 -106q-9 -9 -24 -9h-42q-13 0 -21 7t-8 18q0 14 12 27l102 106q12 12 26 12h64q13 0 21 -7.5t8 -18.5q0 -15 -15 -29z" />
    <glyph glyph-name="Acircumflex" unicode="&#xc2;" 
d="M360 339l-31 297h-24l-125 -297h180zM474 296v-6l-41 -258q-1 -13 -12 -22.5t-24 -9.5h-43q-12 0 -19.5 8t-7.5 19v5l32 201h-212l-32 -201q-2 -14 -13 -23t-24 -9h-42q-12 0 -19.5 8t-7.5 19v5l41 258l2 6l178 423q4 10 14 16.5t20 6.5h139q11 0 18.5 -6.5t8.5 -16.5z
M501 837q5 -10 5 -17q0 -14 -11 -24.5t-27 -10.5h-43q-14 0 -21 9l-52 63l-72 -63q-11 -9 -24 -9h-43q-28 0 -28 25q0 15 12 27l101 106q12 12 27 12h85q15 0 23 -12z" />
    <glyph glyph-name="Atilde" unicode="&#xc3;" 
d="M360 339l-31 297h-24l-125 -297h180zM474 296v-6l-41 -258q-1 -13 -12 -22.5t-24 -9.5h-43q-12 0 -19.5 8t-7.5 19v5l32 201h-212l-32 -201q-2 -14 -13 -23t-24 -9h-42q-12 0 -19.5 8t-7.5 19v5l41 258l2 6l178 423q4 10 14 16.5t20 6.5h139q11 0 18.5 -6.5t8.5 -16.5z
M520 880q-7 -45 -41.5 -71.5t-78.5 -26.5q-46 0 -82 27q-19 14 -33 14q-10 0 -13 -6q-13 -28 -36 -28h-27q-12 0 -20 6.5t-8 16.5v5q7 46 41.5 72t79.5 26t81 -27q19 -14 33 -14q10 0 13 6q12 28 36 28h28q27 0 27 -23v-5z" />
    <glyph glyph-name="Adieresis" unicode="&#xc4;" 
d="M360 339l-31 297h-24l-125 -297h180zM474 296v-6l-41 -258q-1 -13 -12 -22.5t-24 -9.5h-43q-12 0 -19.5 8t-7.5 19v5l32 201h-212l-32 -201q-2 -14 -13 -23t-24 -9h-42q-12 0 -19.5 8t-7.5 19v5l41 258l2 6l178 423q4 10 14 16.5t20 6.5h139q11 0 18.5 -6.5t8.5 -16.5z
M331 923l-14 -85q-2 -13 -13 -22.5t-24 -9.5h-74q-12 0 -19.5 8t-7.5 19v5l14 85q2 13 13 22.5t24 9.5h74q11 0 19 -8t8 -19v-5zM532 923l-13 -85q-2 -13 -13 -22.5t-24 -9.5h-74q-12 0 -20 8t-8 19q0 3 1 5l13 85q2 13 13 22.5t24 9.5h74q12 0 19.5 -8t7.5 -19v-5z" />
    <glyph glyph-name="Aring" unicode="&#xc5;" 
d="M360 339l-31 297h-24l-125 -297h180zM474 296v-6l-41 -258q-1 -13 -12 -22.5t-24 -9.5h-43q-12 0 -19.5 8t-7.5 19v5l32 201h-212l-32 -201q-2 -14 -13 -23t-24 -9h-42q-12 0 -19.5 8t-7.5 19v5l41 258l2 6l178 423q4 10 14 16.5t20 6.5h139q11 0 18.5 -6.5t8.5 -16.5z
M376 880q1 1 1 4q0 17 -18 17q-9 0 -15.5 -6t-8.5 -15v-3q0 -17 17 -17q9 0 16 6t8 14zM462 880q-8 -44 -44 -75t-79 -31q-39 0 -65 26t-26 64q0 6 2 16q7 44 42.5 75t79.5 31q40 0 65.5 -25.5t25.5 -63.5q0 -11 -1 -17z" />
    <glyph glyph-name="AE" unicode="&#xc6;" 
d="M296 636h-12l-126 -297h91zM562 711l-7 -43q-1 -13 -12 -22.5t-24 -9.5h-117l-34 -212h96q11 0 19 -8t8 -19q0 -3 -1 -5l-6 -42q-2 -13 -13 -22.5t-24 -9.5h-96l-33 -212h117q11 0 19 -8t8 -19q0 -3 -1 -5l-6 -42q-2 -13 -13 -22.5t-24 -9.5h-191q-12 0 -19.5 8t-7.5 19
v5l32 201h-106l-32 -201q-2 -13 -13 -22.5t-24 -9.5h-42q-12 0 -20 8t-8 19q0 1 0.5 2.5t0.5 2.5l41 258l1 6l179 423q4 10 14 16.5t20 6.5h292q12 0 20 -7.5t8 -18.5q0 -1 -1 -3v-2z" />
    <glyph glyph-name="Ccedilla" unicode="&#xc7;" 
d="M508 573l-3 -21q-2 -14 -13 -23t-24 -9h-42q-12 0 -19.5 8t-7.5 19v5l3 21q1 4 1 11q0 27 -17.5 45t-45.5 18h-32q-31 0 -56 -21.5t-30 -52.5l-64 -403q0 -2 -0.5 -6t-0.5 -6q0 -26 18.5 -44.5t45.5 -18.5h32q31 0 56 22t30 53l5 32q1 13 12 22t24 9h43q12 0 19.5 -7.5
t7.5 -19.5v-4l-5 -32q-11 -67 -62 -117t-117 -61l-37 -76q-11 -22 -34 -22h-44q-28 0 -28 22q0 11 7 27l27 53q-49 14 -78 53.5t-29 91.5q0 9 2 29l64 403q12 74 73 127t136 53h32q67 0 110.5 -43.5t43.5 -108.5q0 -15 -3 -28z" />
    <glyph glyph-name="Egrave" unicode="&#xc8;" 
d="M530 711l-6 -43q-2 -13 -13 -22.5t-24 -9.5h-244l-34 -212h223q12 0 19.5 -8t7.5 -19v-5l-7 -42q-2 -13 -13 -22.5t-24 -9.5h-223l-33 -212h244q11 0 19 -8t8 -19q0 -3 -1 -5l-6 -42q-2 -13 -13 -22.5t-24 -9.5h-318q-12 0 -19.5 8t-7.5 19v5l107 679q2 13 13 22t24 9
h318q12 0 20 -7.5t8 -18.5q0 -4 -1 -5zM405 837q5 -7 5 -17q0 -14 -11 -24.5t-27 -10.5h-42q-14 0 -21 9l-89 106q-8 10 -8 20q0 13 11 24t28 11h63q15 0 23 -12z" />
    <glyph glyph-name="Eacute" unicode="&#xc9;" 
d="M530 711l-6 -43q-2 -13 -13 -22.5t-24 -9.5h-244l-34 -212h223q12 0 19.5 -8t7.5 -19v-5l-7 -42q-2 -13 -13 -22.5t-24 -9.5h-223l-33 -212h244q11 0 19 -8t8 -19q0 -3 -1 -5l-6 -42q-2 -13 -13 -22.5t-24 -9.5h-318q-12 0 -19.5 8t-7.5 19v5l107 679q2 13 13 22t24 9
h318q12 0 20 -7.5t8 -18.5q0 -4 -1 -5zM498 900l-123 -106q-9 -9 -24 -9h-42q-13 0 -21 7t-8 18q0 14 12 27l102 106q12 12 26 12h64q13 0 21 -7.5t8 -18.5q0 -15 -15 -29z" />
    <glyph glyph-name="Ecircumflex" unicode="&#xca;" 
d="M530 711l-6 -43q-2 -13 -13 -22.5t-24 -9.5h-244l-34 -212h223q12 0 19.5 -8t7.5 -19v-5l-7 -42q-2 -13 -13 -22.5t-24 -9.5h-223l-33 -212h244q11 0 19 -8t8 -19q0 -3 -1 -5l-6 -42q-2 -13 -13 -22.5t-24 -9.5h-318q-12 0 -19.5 8t-7.5 19v5l107 679q2 13 13 22t24 9
h318q12 0 20 -7.5t8 -18.5q0 -4 -1 -5zM511 837q5 -7 5 -17q0 -14 -11 -24.5t-27 -10.5h-42q-14 0 -21 9l-53 63l-72 -63q-9 -9 -24 -9h-42q-13 0 -21 7t-8 18q0 14 12 27l102 106q12 12 27 12h84q15 0 23 -12z" />
    <glyph glyph-name="Edieresis" unicode="&#xcb;" 
d="M530 711l-6 -43q-2 -13 -13 -22.5t-24 -9.5h-244l-34 -212h223q12 0 19.5 -8t7.5 -19v-5l-7 -42q-2 -13 -13 -22.5t-24 -9.5h-223l-33 -212h244q11 0 19 -8t8 -19q0 -3 -1 -5l-6 -42q-2 -13 -13 -22.5t-24 -9.5h-318q-12 0 -19.5 8t-7.5 19v5l107 679q2 13 13 22t24 9
h318q12 0 20 -7.5t8 -18.5q0 -4 -1 -5zM331 923l-14 -85q-2 -13 -13 -22.5t-24 -9.5h-74q-12 0 -19.5 8t-7.5 19v5l14 85q2 13 13 22.5t24 9.5h74q11 0 19 -8t8 -19v-5zM532 923l-13 -85q-2 -13 -13 -22.5t-24 -9.5h-74q-12 0 -20 8t-8 19q0 3 1 5l13 85q2 13 13 22.5
t24 9.5h74q12 0 19.5 -8t7.5 -19v-5z" />
    <glyph glyph-name="Igrave" unicode="&#xcc;" 
d="M520 711l-7 -43q-2 -13 -13 -22.5t-24 -9.5h-106l-84 -530h117q11 0 19 -8t8 -19q0 -3 -1 -5l-6 -42q-2 -13 -13 -22.5t-24 -9.5h-340q-11 0 -19 8t-8 19q0 3 1 5l6 42q2 13 13 22.5t24 9.5h117l84 530h-106q-12 0 -19.5 8t-7.5 19v5l7 43q2 13 13 22t24 9h318
q12 0 19.5 -7.5t7.5 -18.5v-5zM405 837q5 -7 5 -17q0 -14 -11 -24.5t-27 -10.5h-42q-14 0 -21 9l-89 106q-8 10 -8 20q0 13 11 24t28 11h63q15 0 23 -12z" />
    <glyph glyph-name="Iacute" unicode="&#xcd;" 
d="M520 711l-7 -43q-2 -13 -13 -22.5t-24 -9.5h-106l-84 -530h117q11 0 19 -8t8 -19q0 -3 -1 -5l-6 -42q-2 -13 -13 -22.5t-24 -9.5h-340q-11 0 -19 8t-8 19q0 3 1 5l6 42q2 13 13 22.5t24 9.5h117l84 530h-106q-12 0 -19.5 8t-7.5 19v5l7 43q2 13 13 22t24 9h318
q12 0 19.5 -7.5t7.5 -18.5v-5zM498 900l-123 -106q-9 -9 -24 -9h-42q-13 0 -21 7t-8 18q0 14 12 27l102 106q12 12 26 12h64q13 0 21 -7.5t8 -18.5q0 -15 -15 -29z" />
    <glyph glyph-name="Icircumflex" unicode="&#xce;" 
d="M520 711l-7 -43q-2 -13 -13 -22.5t-24 -9.5h-106l-84 -530h117q11 0 19 -8t8 -19q0 -3 -1 -5l-6 -42q-2 -13 -13 -22.5t-24 -9.5h-340q-11 0 -19 8t-8 19q0 3 1 5l6 42q2 13 13 22.5t24 9.5h117l84 530h-106q-12 0 -19.5 8t-7.5 19v5l7 43q2 13 13 22t24 9h318
q12 0 19.5 -7.5t7.5 -18.5v-5zM501 837q5 -10 5 -17q0 -14 -11 -24.5t-27 -10.5h-43q-14 0 -21 9l-52 63l-72 -63q-11 -9 -24 -9h-43q-28 0 -28 25q0 15 12 27l101 106q12 12 27 12h85q15 0 23 -12z" />
    <glyph glyph-name="Idieresis" unicode="&#xcf;" 
d="M520 711l-7 -43q-2 -13 -13 -22.5t-24 -9.5h-106l-84 -530h117q11 0 19 -8t8 -19q0 -3 -1 -5l-6 -42q-2 -13 -13 -22.5t-24 -9.5h-340q-11 0 -19 8t-8 19q0 3 1 5l6 42q2 13 13 22.5t24 9.5h117l84 530h-106q-12 0 -19.5 8t-7.5 19v5l7 43q2 13 13 22t24 9h318
q12 0 19.5 -7.5t7.5 -18.5v-5zM331 923l-14 -85q-2 -13 -13 -22.5t-24 -9.5h-74q-12 0 -19.5 8t-7.5 19v5l14 85q2 13 13 22.5t24 9.5h74q11 0 19 -8t8 -19v-5zM532 923l-13 -85q-2 -13 -13 -22.5t-24 -9.5h-74q-12 0 -20 8t-8 19q0 3 1 5l13 85q2 13 13 22.5t24 9.5h74
q12 0 19.5 -8t7.5 -19v-5z" />
    <glyph glyph-name="Eth" unicode="&#xd0;" 
d="M399 562q0 2 0.5 6t0.5 6q0 26 -18 44t-46 18h-95l-34 -212h85q12 0 19.5 -8t7.5 -19v-5l-7 -42q-2 -13 -13 -22.5t-24 -9.5h-85l-33 -212h95q31 0 56.5 21.5t29.5 52.5zM505 562l-61 -382q-12 -74 -73 -127t-136 -53h-169q-12 0 -20 8t-8 19q0 1 0.5 2.5t0.5 2.5l45 286
h-42q-12 0 -19.5 8t-7.5 19v5l7 42q1 13 12 22.5t25 9.5h42l45 287q2 13 13 22t24 9h170q67 0 110.5 -43t43.5 -108q0 -9 -2 -29z" />
    <glyph glyph-name="Ntilde" unicode="&#xd1;" 
d="M551 710l-107 -678q-2 -13 -13 -22.5t-24 -9.5h-89q-9 0 -17 6t-10 15l-105 527l-81 -516q-2 -13 -13 -22.5t-24 -9.5h-43q-11 0 -19 8t-8 19v5l108 679q2 13 13 22t24 9h89q9 0 17 -6t10 -14l105 -528l81 516q2 13 13 22.5t24 9.5h43q11 0 19 -8t8 -19q0 -3 -1 -5z
M520 880q-7 -45 -41.5 -71.5t-78.5 -26.5q-46 0 -82 27q-19 14 -33 14q-10 0 -13 -6q-13 -28 -36 -28h-27q-12 0 -20 6.5t-8 16.5v5q7 46 41.5 72t79.5 26t81 -27q19 -14 33 -14q10 0 13 6q12 28 36 28h28q27 0 27 -23v-5z" />
    <glyph glyph-name="Ograve" unicode="&#xd2;" 
d="M397 573q1 4 1 11q0 27 -17.5 45t-45.5 18h-32q-31 0 -56.5 -21.5t-29.5 -52.5l-64 -403q-1 -4 -1 -12q0 -27 18 -45t45 -18h32q31 0 56.5 22t29.5 53zM503 573l-64 -403q-11 -75 -72.5 -128t-136.5 -53h-31q-67 0 -110.5 43.5t-43.5 108.5q0 19 2 29l64 403
q11 74 72.5 127t136.5 53h31q67 0 110.5 -43.5t43.5 -108.5q0 -19 -2 -28zM405 837q5 -7 5 -17q0 -14 -11 -24.5t-27 -10.5h-42q-14 0 -21 9l-89 106q-8 10 -8 20q0 13 11 24t28 11h63q15 0 23 -12z" />
    <glyph glyph-name="Oacute" unicode="&#xd3;" 
d="M397 573q1 4 1 11q0 27 -17.5 45t-45.5 18h-32q-31 0 -56.5 -21.5t-29.5 -52.5l-64 -403q-1 -4 -1 -12q0 -27 18 -45t45 -18h32q31 0 56.5 22t29.5 53zM503 573l-64 -403q-11 -75 -72.5 -128t-136.5 -53h-31q-67 0 -110.5 43.5t-43.5 108.5q0 19 2 29l64 403
q11 74 72.5 127t136.5 53h31q67 0 110.5 -43.5t43.5 -108.5q0 -19 -2 -28zM498 900l-123 -106q-9 -9 -24 -9h-42q-13 0 -21 7t-8 18q0 14 12 27l102 106q12 12 26 12h64q13 0 21 -7.5t8 -18.5q0 -15 -15 -29z" />
    <glyph glyph-name="Ocircumflex" unicode="&#xd4;" 
d="M397 573q1 4 1 11q0 27 -17.5 45t-45.5 18h-32q-31 0 -56.5 -21.5t-29.5 -52.5l-64 -403q-1 -4 -1 -12q0 -27 18 -45t45 -18h32q31 0 56.5 22t29.5 53zM503 573l-64 -403q-11 -75 -72.5 -128t-136.5 -53h-31q-67 0 -110.5 43.5t-43.5 108.5q0 19 2 29l64 403
q11 74 72.5 127t136.5 53h31q67 0 110.5 -43.5t43.5 -108.5q0 -19 -2 -28zM501 837q5 -10 5 -17q0 -14 -11 -24.5t-27 -10.5h-43q-14 0 -21 9l-52 63l-72 -63q-11 -9 -24 -9h-43q-28 0 -28 25q0 15 12 27l101 106q12 12 27 12h85q15 0 23 -12z" />
    <glyph glyph-name="Otilde" unicode="&#xd5;" 
d="M397 573q1 4 1 11q0 27 -17.5 45t-45.5 18h-32q-31 0 -56.5 -21.5t-29.5 -52.5l-64 -403q-1 -4 -1 -12q0 -27 18 -45t45 -18h32q31 0 56.5 22t29.5 53zM503 573l-64 -403q-11 -75 -72.5 -128t-136.5 -53h-31q-67 0 -110.5 43.5t-43.5 108.5q0 19 2 29l64 403
q11 74 72.5 127t136.5 53h31q67 0 110.5 -43.5t43.5 -108.5q0 -19 -2 -28zM520 880q-7 -45 -41.5 -71.5t-78.5 -26.5q-46 0 -82 27q-19 14 -33 14q-10 0 -13 -6q-13 -28 -36 -28h-27q-12 0 -20 6.5t-8 16.5v5q7 46 41.5 72t79.5 26t81 -27q19 -14 33 -14q10 0 13 6
q12 28 36 28h28q27 0 27 -23v-5z" />
    <glyph glyph-name="Odieresis" unicode="&#xd6;" 
d="M397 573q1 4 1 11q0 27 -17.5 45t-45.5 18h-32q-31 0 -56.5 -21.5t-29.5 -52.5l-64 -403q-1 -4 -1 -12q0 -27 18 -45t45 -18h32q31 0 56.5 22t29.5 53zM503 573l-64 -403q-11 -75 -72.5 -128t-136.5 -53h-31q-67 0 -110.5 43.5t-43.5 108.5q0 19 2 29l64 403
q11 74 72.5 127t136.5 53h31q67 0 110.5 -43.5t43.5 -108.5q0 -19 -2 -28zM331 923l-14 -85q-2 -13 -13 -22.5t-24 -9.5h-74q-12 0 -19.5 8t-7.5 19v5l14 85q2 13 13 22.5t24 9.5h74q11 0 19 -8t8 -19v-5zM532 923l-13 -85q-2 -13 -13 -22.5t-24 -9.5h-74q-12 0 -20 8t-8 19
q0 3 1 5l13 85q2 13 13 22.5t24 9.5h74q12 0 19.5 -8t7.5 -19v-5z" />
    <glyph glyph-name="multiply" unicode="&#xd7;" 
d="M429 396q6 -8 6 -18q0 -16 -13 -27l-87 -75l63 -75q6 -7 6 -18q0 -16 -13 -27l-35 -30q-10 -9 -24 -9t-21 9l-63 75l-87 -75q-11 -9 -24 -9t-21 9l-25 30q-6 8 -6 17q0 16 13 28l87 75l-63 75q-6 7 -6 17q0 16 13 28l35 30q10 9 24 9q12 0 21 -9l63 -75l87 75q11 9 24 9
q12 0 21 -9z" />
    <glyph glyph-name="Oslash" unicode="&#xd8;" 
d="M390 526l-217 -415q18 -16 42 -16h32q31 0 56.5 22t29.5 53zM377 632q-18 15 -42 15h-32q-31 0 -56.5 -21.5t-29.5 -52.5l-57 -356zM511 759l-34 -67q28 -39 28 -91q0 -19 -2 -28l-64 -403q-11 -75 -72.5 -128t-136.5 -53h-31q-45 0 -79 20l-25 -47q-3 -7 -11 -7h-4
l-37 15q-6 2 -6 8q0 3 2 5l34 67q-28 39 -28 91q0 19 2 29l64 403q11 74 72.5 127t136.5 53h31q45 0 79 -20l25 48q3 7 11 7q3 0 4 -1l37 -14q6 -3 6 -9q0 -1 -2 -5z" />
    <glyph glyph-name="Ugrave" unicode="&#xd9;" 
d="M520 711l-86 -541q-12 -75 -73 -128t-136 -53h-21q-67 0 -110.5 43.5t-43.5 108.5q0 9 2 29l86 541q2 13 13 22t24 9h42q12 0 19.5 -7.5t7.5 -18.5v-5l-86 -541q0 -2 -0.5 -6t-0.5 -6q0 -26 18.5 -44.5t45.5 -18.5h21q31 0 56 22t30 53l86 541q1 13 12 22t24 9h43
q12 0 19.5 -7.5t7.5 -18.5v-5zM405 837q5 -7 5 -17q0 -14 -11 -24.5t-27 -10.5h-42q-14 0 -21 9l-89 106q-8 10 -8 20q0 13 11 24t28 11h63q15 0 23 -12z" />
    <glyph glyph-name="Uacute" unicode="&#xda;" 
d="M520 711l-86 -541q-12 -75 -73 -128t-136 -53h-21q-67 0 -110.5 43.5t-43.5 108.5q0 9 2 29l86 541q2 13 13 22t24 9h42q12 0 19.5 -7.5t7.5 -18.5v-5l-86 -541q0 -2 -0.5 -6t-0.5 -6q0 -26 18.5 -44.5t45.5 -18.5h21q31 0 56 22t30 53l86 541q1 13 12 22t24 9h43
q12 0 19.5 -7.5t7.5 -18.5v-5zM498 900l-123 -106q-9 -9 -24 -9h-42q-13 0 -21 7t-8 18q0 14 12 27l102 106q12 12 26 12h64q13 0 21 -7.5t8 -18.5q0 -15 -15 -29z" />
    <glyph glyph-name="Ucircumflex" unicode="&#xdb;" 
d="M520 711l-86 -541q-12 -75 -73 -128t-136 -53h-21q-67 0 -110.5 43.5t-43.5 108.5q0 9 2 29l86 541q2 13 13 22t24 9h42q12 0 19.5 -7.5t7.5 -18.5v-5l-86 -541q0 -2 -0.5 -6t-0.5 -6q0 -26 18.5 -44.5t45.5 -18.5h21q31 0 56 22t30 53l86 541q1 13 12 22t24 9h43
q12 0 19.5 -7.5t7.5 -18.5v-5zM501 837q5 -10 5 -17q0 -14 -11 -24.5t-27 -10.5h-43q-14 0 -21 9l-52 63l-72 -63q-11 -9 -24 -9h-43q-28 0 -28 25q0 15 12 27l101 106q12 12 27 12h85q15 0 23 -12z" />
    <glyph glyph-name="Udieresis" unicode="&#xdc;" 
d="M520 711l-86 -541q-12 -75 -73 -128t-136 -53h-21q-67 0 -110.5 43.5t-43.5 108.5q0 9 2 29l86 541q2 13 13 22t24 9h42q12 0 19.5 -7.5t7.5 -18.5v-5l-86 -541q0 -2 -0.5 -6t-0.5 -6q0 -26 18.5 -44.5t45.5 -18.5h21q31 0 56 22t30 53l86 541q1 13 12 22t24 9h43
q12 0 19.5 -7.5t7.5 -18.5v-5zM331 923l-14 -85q-2 -13 -13 -22.5t-24 -9.5h-74q-12 0 -19.5 8t-7.5 19v5l14 85q2 13 13 22.5t24 9.5h74q11 0 19 -8t8 -19v-5zM532 923l-13 -85q-2 -13 -13 -22.5t-24 -9.5h-74q-12 0 -20 8t-8 19q0 3 1 5l13 85q2 13 13 22.5t24 9.5h74
q12 0 19.5 -8t7.5 -19v-5z" />
    <glyph glyph-name="Yacute" unicode="&#xdd;" 
d="M527 699l-207 -375l-46 -292q-1 -13 -12 -22.5t-25 -9.5h-42q-12 0 -19.5 8t-7.5 19v5l46 292l-87 375q-1 3 -1 8q0 14 11 24.5t26 10.5h46q9 0 17 -6t9 -14l54 -264l137 264q11 20 33 20h45q13 0 20.5 -7t7.5 -18q0 -8 -5 -18zM498 900l-123 -106q-9 -9 -24 -9h-42
q-13 0 -21 7t-8 18q0 14 12 26l102 107q11 11 26 11h64q13 0 21 -7t8 -18q0 -15 -15 -29z" />
    <glyph glyph-name="Thorn" unicode="&#xde;" 
d="M377 424q0 2 0.5 6t0.5 6q0 26 -18 44.5t-46 18.5h-21q-31 0 -56 -22t-30 -53l-17 -106q0 -2 -0.5 -6t-0.5 -5q0 -27 18 -45t46 -18h21q31 0 56 21.5t30 52.5zM483 424l-17 -106q-12 -74 -73 -127t-136 -53h-21q-38 0 -72 16l-19 -122q-2 -13 -13 -22.5t-24 -9.5h-42
q-12 0 -20 8t-8 19q0 1 0.5 2.5t0.5 2.5l107 679q2 13 13 22t24 9h43q11 0 19 -7.5t8 -18.5q0 -4 -1 -5l-19 -122q38 16 77 16h21q67 0 110.5 -43.5t43.5 -108.5q0 -9 -2 -29z" />
    <glyph glyph-name="germandbls" unicode="&#xdf;" 
d="M506 573l-11 -74q-12 -70 -67 -122q39 -42 39 -105q0 -8 -2 -28l-10 -64q-12 -74 -73.5 -127t-135.5 -53h-43q-11 0 -19 8t-8 19q0 3 1 5l6 42q2 13 13 22.5t24 9.5h43q31 0 56 21.5t30 52.5l10 64q0 2 0.5 6t0.5 6q0 26 -18 44t-46 18h-32q-11 0 -19 8t-8 19q0 3 1 5
l6 42q2 13 13 22.5t24 9.5h21q31 0 56.5 22t30.5 53l11 74q1 4 1 11q0 27 -17.5 45t-45.5 18h-21q-31 0 -56.5 -21.5t-29.5 -52.5l-86 -541q-2 -13 -13 -22.5t-24 -9.5h-42q-12 0 -20 8t-8 19q0 1 0.5 2.5t0.5 2.5l85 541q12 74 73.5 127t135.5 53h22q66 0 110 -43.5
t44 -108.5q0 -15 -3 -28z" />
    <glyph glyph-name="agrave" unicode="&#xe0;" 
d="M348 361v11q0 27 -17.5 45t-45.5 18h-21q-31 0 -56.5 -21.5t-29.5 -52.5l-30 -191q-1 -4 -1 -12q0 -27 18 -45t45 -18h21q31 0 56.5 22t29.5 53zM483 74l-7 -42q-2 -13 -13 -22.5t-24 -9.5h-21q-50 0 -80 32q-60 -43 -123 -43h-22q-67 0 -110.5 43.5t-43.5 108.5
q0 14 3 29l30 191q12 74 73 127t136 53h21q45 0 80 -20q10 9 24 9h43q11 0 19 -7.5t8 -19.5q0 -3 -1 -4l-58 -372q-1 -1 -1 -3q0 -8 5.5 -13t13.5 -5h21q11 0 19 -8t8 -19v-5zM372 624q5 -8 5 -16q0 -14 -11 -24.5t-27 -10.5h-43q-14 0 -21 9l-89 106q-7 8 -7 19
q0 14 11 24.5t27 10.5h64q16 0 23 -11z" />
    <glyph glyph-name="aacute" unicode="&#xe1;" 
d="M348 361v11q0 27 -17.5 45t-45.5 18h-21q-31 0 -56.5 -21.5t-29.5 -52.5l-30 -191q-1 -4 -1 -12q0 -27 18 -45t45 -18h21q31 0 56.5 22t29.5 53zM483 74l-7 -42q-2 -13 -13 -22.5t-24 -9.5h-21q-50 0 -80 32q-60 -43 -123 -43h-22q-67 0 -110.5 43.5t-43.5 108.5
q0 14 3 29l30 191q12 74 73 127t136 53h21q45 0 80 -20q10 9 24 9h43q11 0 19 -7.5t8 -19.5q0 -3 -1 -4l-58 -372q-1 -1 -1 -3q0 -8 5.5 -13t13.5 -5h21q11 0 19 -8t8 -19v-5zM443 688l-123 -106q-9 -9 -24 -9h-42q-13 0 -21 7t-8 18q0 14 12 26l102 107q11 11 27 11h63
q29 0 29 -25q0 -15 -15 -29z" />
    <glyph glyph-name="acircumflex" unicode="&#xe2;" 
d="M348 361v11q0 27 -17.5 45t-45.5 18h-21q-31 0 -56.5 -21.5t-29.5 -52.5l-30 -191q-1 -4 -1 -12q0 -27 18 -45t45 -18h21q31 0 56.5 22t29.5 53zM483 74l-7 -42q-2 -13 -13 -22.5t-24 -9.5h-21q-50 0 -80 32q-60 -43 -123 -43h-22q-67 0 -110.5 43.5t-43.5 108.5
q0 14 3 29l30 191q12 74 73 127t136 53h21q45 0 80 -20q10 9 24 9h43q11 0 19 -7.5t8 -19.5q0 -3 -1 -4l-58 -372q-1 -1 -1 -3q0 -8 5.5 -13t13.5 -5h21q11 0 19 -8t8 -19v-5zM457 624q5 -8 5 -16q0 -14 -11 -24.5t-27 -10.5h-43q-14 0 -21 9l-52 62l-73 -62q-9 -9 -24 -9
h-42q-28 0 -28 25q0 15 11 26l102 107q11 11 27 11h85q16 0 23 -11z" />
    <glyph glyph-name="atilde" unicode="&#xe3;" 
d="M348 361v11q0 27 -17.5 45t-45.5 18h-21q-31 0 -56.5 -21.5t-29.5 -52.5l-30 -191q-1 -4 -1 -12q0 -27 18 -45t45 -18h21q31 0 56.5 22t29.5 53zM483 74l-7 -42q-2 -13 -13 -22.5t-24 -9.5h-21q-50 0 -80 32q-60 -43 -123 -43h-22q-67 0 -110.5 43.5t-43.5 108.5
q0 14 3 29l30 191q12 74 73 127t136 53h21q45 0 80 -20q10 9 24 9h43q11 0 19 -7.5t8 -19.5q0 -3 -1 -4l-58 -372q-1 -1 -1 -3q0 -8 5.5 -13t13.5 -5h21q11 0 19 -8t8 -19v-5zM486 668q-7 -46 -41.5 -72t-78.5 -26q-46 0 -82 27q-18 14 -32 14q-10 0 -13 -6q-13 -28 -36 -28
h-28q-28 0 -28 23q0 3 1 5q7 45 41.5 71.5t78.5 26.5t82 -27q18 -14 32 -14q10 0 13 6q12 28 36 28h28q12 0 20 -6.5t8 -16.5q0 -3 -1 -5z" />
    <glyph glyph-name="adieresis" unicode="&#xe4;" 
d="M348 361v11q0 27 -17.5 45t-45.5 18h-21q-31 0 -56.5 -21.5t-29.5 -52.5l-30 -191q-1 -4 -1 -12q0 -27 18 -45t45 -18h21q31 0 56.5 22t29.5 53zM483 74l-7 -42q-2 -13 -13 -22.5t-24 -9.5h-21q-50 0 -80 32q-60 -43 -123 -43h-22q-67 0 -110.5 43.5t-43.5 108.5
q0 14 3 29l30 191q12 74 73 127t136 53h21q45 0 80 -20q10 9 24 9h43q11 0 19 -7.5t8 -19.5q0 -3 -1 -4l-58 -372q-1 -1 -1 -3q0 -8 5.5 -13t13.5 -5h21q11 0 19 -8t8 -19v-5zM286 711l-13 -85q-2 -13 -13 -22.5t-24 -9.5h-74q-12 0 -19.5 8t-7.5 19v5l13 85q2 13 13 22
t24 9h75q11 0 19 -7.5t8 -18.5q0 -4 -1 -5zM488 711l-14 -85q-1 -13 -12 -22.5t-24 -9.5h-75q-11 0 -19 8t-8 19q0 3 1 5l13 85q2 13 13 22t24 9h74q12 0 19.5 -7.5t7.5 -18.5v-5z" />
    <glyph glyph-name="aring" unicode="&#xe5;" 
d="M348 361v11q0 27 -17.5 45t-45.5 18h-21q-31 0 -56.5 -21.5t-29.5 -52.5l-30 -191q-1 -4 -1 -12q0 -27 18 -45t45 -18h21q31 0 56.5 22t29.5 53zM483 74l-7 -42q-2 -13 -13 -22.5t-24 -9.5h-21q-50 0 -80 32q-60 -43 -123 -43h-22q-67 0 -110.5 43.5t-43.5 108.5
q0 14 3 29l30 191q12 74 73 127t136 53h21q45 0 80 -20q10 9 24 9h43q11 0 19 -7.5t8 -19.5q0 -3 -1 -4l-58 -372q-1 -1 -1 -3q0 -8 5.5 -13t13.5 -5h21q11 0 19 -8t8 -19v-5zM332 668v3q0 18 -17 18q-9 0 -15.5 -6t-8.5 -15l-1 -1v-2q0 -17 18 -17q20 0 24 20zM417 668
q-7 -44 -43 -75t-79 -31q-39 0 -65 26t-26 64q0 11 1 16q7 44 43 75t80 31q40 0 65.5 -25.5t25.5 -63.5q0 -5 -2 -17z" />
    <glyph glyph-name="ae" unicode="&#xe6;" 
d="M199 226q-15 -5 -47 -17q-24 -9 -34.5 -19.5t-13.5 -30.5l-4 -21q-1 -6 -1 -15q0 -28 37 -28q17 0 31.5 12.5t17.5 30.5zM416 392q1 3 1 7q0 15 -10 25.5t-26 10.5q-18 0 -32.5 -12.5t-17.5 -30.5l-11 -74h84zM522 392l-23 -148q-2 -13 -13 -22.5t-24 -9.5h-159l-12 -74
v-7q0 -15 10 -25.5t26 -10.5q17 0 31.5 12.5t17.5 30.5q2 13 13 22.5t24 9.5h42q12 0 19.5 -8t7.5 -19v-5q-10 -62 -60.5 -105.5t-111.5 -43.5q-55 0 -90 35q-46 -35 -101 -35q-128 0 -128 112q0 16 3 37l3 21q3 19 7.5 34.5t12.5 28.5t13.5 22t19 18.5t19.5 14.5t23.5 13
t24 10.5t28.5 10.5t28 10q24 9 35 19.5t14 30.5l3 21q1 3 1 7q0 15 -10 25.5t-26 10.5q-18 0 -32.5 -12.5t-17.5 -30.5l-4 -28q-2 -13 -13 -22t-24 -9h-42q-12 0 -19.5 7.5t-7.5 19.5v4l4 28q10 62 60.5 105.5t111.5 43.5q55 0 90 -35q48 35 101 35q55 0 91 -35.5t36 -89.5
q0 -16 -2 -24z" />
    <glyph glyph-name="ccedilla" unicode="&#xe7;" 
d="M464 361q-2 -14 -13 -23t-24 -9h-42q-12 0 -19.5 8t-7.5 19v5q1 4 1 11q0 27 -17.5 45t-45.5 18h-22q-31 0 -56 -21.5t-30 -52.5l-30 -191q0 -2 -0.5 -6t-0.5 -6q0 -26 18.5 -44.5t45.5 -18.5h21q31 0 56 22t30 53q2 13 13 22.5t24 9.5h42q12 0 19.5 -8t7.5 -19v-5
q-10 -64 -57 -113t-109 -63l-39 -78q-11 -22 -34 -22h-44q-28 0 -28 22q0 11 7 27l27 53q-49 14 -78 53.5t-29 91.5q0 9 2 29l30 191q12 74 73.5 127t135.5 53h21q67 0 111 -43.5t44 -108.5q0 -15 -3 -28z" />
    <glyph glyph-name="egrave" unicode="&#xe8;" 
d="M358 361q1 4 1 11q0 27 -17.5 45t-45.5 18h-22q-31 0 -56 -21.5t-30 -52.5l-6 -43h169zM464 361l-18 -117q-2 -13 -13 -22.5t-24 -9.5h-244l-7 -42q0 -2 -0.5 -6t-0.5 -6q0 -26 18.5 -44.5t45.5 -18.5h21q24 0 43.5 13.5t27 24.5t9.5 17q10 24 35 24q2 0 8 -2l39 -10
q19 -6 19 -26q0 -7 -3 -13q-25 -58 -79 -96t-116 -38h-21q-67 0 -110.5 43.5t-43.5 108.5q0 9 2 29l30 191q12 74 73.5 127t135.5 53h21q67 0 110.5 -43.5t43.5 -108.5q0 -19 -2 -28zM372 624q5 -8 5 -16q0 -14 -11 -24.5t-27 -10.5h-43q-14 0 -21 9l-89 106q-7 8 -7 19
q0 14 11 24.5t27 10.5h64q16 0 23 -11z" />
    <glyph glyph-name="eacute" unicode="&#xe9;" 
d="M358 361q1 4 1 11q0 27 -17.5 45t-45.5 18h-22q-31 0 -56 -21.5t-30 -52.5l-6 -43h169zM464 361l-18 -117q-2 -13 -13 -22.5t-24 -9.5h-244l-7 -42q0 -2 -0.5 -6t-0.5 -6q0 -26 18.5 -44.5t45.5 -18.5h21q24 0 43.5 13.5t27 24.5t9.5 17q10 24 35 24q2 0 8 -2l39 -10
q19 -6 19 -26q0 -7 -3 -13q-25 -58 -79 -96t-116 -38h-21q-67 0 -110.5 43.5t-43.5 108.5q0 9 2 29l30 191q12 74 73.5 127t135.5 53h21q67 0 110.5 -43.5t43.5 -108.5q0 -19 -2 -28zM464 688l-123 -106q-9 -9 -23 -9h-43q-28 0 -28 25q0 15 11 26l102 107q11 11 27 11h63
q29 0 29 -25q0 -15 -15 -29z" />
    <glyph glyph-name="ecircumflex" unicode="&#xea;" 
d="M358 361q1 4 1 11q0 27 -17.5 45t-45.5 18h-22q-31 0 -56 -21.5t-30 -52.5l-6 -43h169zM464 361l-18 -117q-2 -13 -13 -22.5t-24 -9.5h-244l-7 -42q0 -2 -0.5 -6t-0.5 -6q0 -26 18.5 -44.5t45.5 -18.5h21q24 0 43.5 13.5t27 24.5t9.5 17q10 24 35 24q2 0 8 -2l39 -10
q19 -6 19 -26q0 -7 -3 -13q-25 -58 -79 -96t-116 -38h-21q-67 0 -110.5 43.5t-43.5 108.5q0 9 2 29l30 191q12 74 73.5 127t135.5 53h21q67 0 110.5 -43.5t43.5 -108.5q0 -19 -2 -28zM467 624q5 -6 5 -16q0 -14 -11 -24.5t-27 -10.5h-42q-14 0 -21 9l-53 62l-72 -62
q-9 -9 -24 -9h-42q-13 0 -21 7t-8 18q0 14 12 26l102 107q11 11 26 11h85q16 0 23 -11z" />
    <glyph glyph-name="edieresis" unicode="&#xeb;" 
d="M358 361q1 4 1 11q0 27 -17.5 45t-45.5 18h-22q-31 0 -56 -21.5t-30 -52.5l-6 -43h169zM464 361l-18 -117q-2 -13 -13 -22.5t-24 -9.5h-244l-7 -42q0 -2 -0.5 -6t-0.5 -6q0 -26 18.5 -44.5t45.5 -18.5h21q24 0 43.5 13.5t27 24.5t9.5 17q10 24 35 24q2 0 8 -2l39 -10
q19 -6 19 -26q0 -7 -3 -13q-25 -58 -79 -96t-116 -38h-21q-67 0 -110.5 43.5t-43.5 108.5q0 9 2 29l30 191q12 74 73.5 127t135.5 53h21q67 0 110.5 -43.5t43.5 -108.5q0 -19 -2 -28zM297 711l-14 -85q-1 -13 -12 -22.5t-24 -9.5h-75q-11 0 -19 8t-8 19q0 3 1 5l13 85
q2 13 13 22t24 9h74q12 0 19.5 -7.5t7.5 -18.5v-5zM498 711l-13 -85q-2 -14 -13 -23t-24 -9h-74q-12 0 -19.5 8t-7.5 19v5l14 85q1 13 12 22t24 9h75q11 0 19 -7.5t8 -18.5q0 -4 -1 -5z" />
    <glyph glyph-name="igrave" unicode="&#xec;" 
d="M461 74l-6 -42q-2 -13 -13 -22.5t-24 -9.5h-382q-12 0 -19.5 8t-7.5 19v5l7 42q2 14 13 23t24 9h159l50 318h-116q-12 0 -20 8t-8 19q0 3 1 5l6 43q2 13 13 22t24 9h191q12 0 19.5 -7.5t7.5 -19.5v-4l-62 -393h117q11 0 19 -8t8 -19q0 -3 -1 -5zM393 624q5 -8 5 -16
q0 -14 -11 -24.5t-27 -10.5h-42q-15 0 -22 9l-89 106q-7 8 -7 19q0 14 11 24.5t27 10.5h64q16 0 23 -11z" />
    <glyph glyph-name="iacute" unicode="&#xed;" 
d="M461 74l-6 -42q-2 -13 -13 -22.5t-24 -9.5h-382q-12 0 -19.5 8t-7.5 19v5l7 42q2 14 13 23t24 9h159l50 318h-116q-12 0 -20 8t-8 19q0 3 1 5l6 43q2 13 13 22t24 9h191q12 0 19.5 -7.5t7.5 -19.5v-4l-62 -393h117q11 0 19 -8t8 -19q0 -3 -1 -5zM464 688l-123 -106
q-9 -9 -23 -9h-43q-28 0 -28 25q0 15 11 26l102 107q11 11 27 11h63q29 0 29 -25q0 -15 -15 -29z" />
    <glyph glyph-name="icircumflex" unicode="&#xee;" 
d="M461 74l-6 -42q-2 -13 -13 -22.5t-24 -9.5h-382q-12 0 -19.5 8t-7.5 19v5l7 42q2 14 13 23t24 9h159l50 318h-116q-12 0 -20 8t-8 19q0 3 1 5l6 43q2 13 13 22t24 9h191q12 0 19.5 -7.5t7.5 -19.5v-4l-62 -393h117q11 0 19 -8t8 -19q0 -3 -1 -5zM499 624q5 -8 5 -16
q0 -14 -11 -24.5t-27 -10.5h-42q-14 0 -21 9l-53 62l-72 -62q-11 -9 -24 -9h-43q-28 0 -28 25q0 14 12 26l101 107q11 11 27 11h85q16 0 23 -11z" />
    <glyph glyph-name="idieresis" unicode="&#xef;" 
d="M461 74l-6 -42q-2 -13 -13 -22.5t-24 -9.5h-382q-12 0 -19.5 8t-7.5 19v5l7 42q2 14 13 23t24 9h159l50 318h-116q-12 0 -20 8t-8 19q0 3 1 5l6 43q2 13 13 22t24 9h191q12 0 19.5 -7.5t7.5 -19.5v-4l-62 -393h117q11 0 19 -8t8 -19q0 -3 -1 -5zM329 711l-14 -85
q-1 -13 -12 -22.5t-25 -9.5h-74q-12 0 -19.5 8t-7.5 19v5l14 85q2 13 13 22t24 9h74q12 0 19.5 -7.5t7.5 -18.5v-5zM530 711l-13 -85q-2 -13 -13 -22.5t-24 -9.5h-74q-12 0 -19.5 8t-7.5 19v5l13 85q2 13 13 22t24 9h75q11 0 19 -7.5t8 -18.5q0 -4 -1 -5z" />
    <glyph glyph-name="eth" unicode="&#xf0;" 
d="M350 361q0 2 0.5 6t0.5 5q0 27 -18 45t-46 18h-21q-31 0 -56.5 -21.5t-29.5 -52.5l-30 -191q-1 -4 -1 -12q0 -27 18 -45t45 -18h21q31 0 56.5 22t29.5 53zM575 647l-6 -42q-2 -13 -13 -22.5t-24 -9.5h-43l-85 -541q-2 -13 -13 -22.5t-24 -9.5h-43q-13 0 -21 10
q-44 -21 -86 -21h-22q-66 0 -110 43.5t-44 108.5q0 14 3 29l30 191q12 74 73 127t136 53h21q38 0 72 -16l7 48h-63q-12 0 -20 8t-8 19v2q1 2 1 3l7 42q1 13 12 22.5t24 9.5h64l5 32q2 13 13 22t24 9h42q12 0 20 -7.5t8 -18.5v-3l-1 -2l-5 -32h43q11 0 19 -8t8 -19
q0 -3 -1 -5z" />
    <glyph glyph-name="ntilde" unicode="&#xf1;" 
d="M468 361l-52 -329q-1 -13 -12 -22.5t-24 -9.5h-43q-12 0 -19.5 8t-7.5 19v5l52 329q1 4 1 11q0 27 -17.5 45t-45.5 18h-21q-31 0 -56.5 -21.5t-29.5 -52.5l-52 -329q-2 -13 -13 -22.5t-24 -9.5h-43q-11 0 -19 8t-8 19q0 3 1 5l73 467q2 13 13 22t24 9h43q14 0 21 -9
q42 20 87 20h21q67 0 110.5 -43.5t43.5 -108.5q0 -15 -3 -28zM491 668q-7 -46 -41.5 -72t-79.5 -26q-46 0 -82 27q-18 14 -32 14q-10 0 -13 -6q-13 -28 -36 -28h-28q-28 0 -28 23l1 2v3q7 45 41.5 71.5t78.5 26.5q46 0 82 -27q19 -14 32 -14q10 0 13 6q14 28 37 28h27
q12 0 20 -6.5t8 -16.5v-5z" />
    <glyph glyph-name="ograve" unicode="&#xf2;" 
d="M358 361q1 4 1 11q0 27 -17.5 45t-45.5 18h-22q-31 0 -56 -21.5t-30 -52.5l-30 -191q0 -2 -0.5 -6t-0.5 -6q0 -26 18.5 -44.5t45.5 -18.5h21q31 0 56 22t30 53zM464 361l-30 -191q-12 -75 -73 -128t-136 -53h-21q-67 0 -110.5 43.5t-43.5 108.5q0 9 2 29l30 191
q12 74 73.5 127t135.5 53h21q67 0 111 -43.5t44 -108.5q0 -15 -3 -28zM372 624q5 -8 5 -16q0 -14 -11 -24.5t-27 -10.5h-43q-14 0 -21 9l-89 106q-7 8 -7 19q0 14 11 24.5t27 10.5h64q16 0 23 -11z" />
    <glyph glyph-name="oacute" unicode="&#xf3;" 
d="M358 361q1 4 1 11q0 27 -17.5 45t-45.5 18h-22q-31 0 -56 -21.5t-30 -52.5l-30 -191q0 -2 -0.5 -6t-0.5 -6q0 -26 18.5 -44.5t45.5 -18.5h21q31 0 56 22t30 53zM464 361l-30 -191q-12 -75 -73 -128t-136 -53h-21q-67 0 -110.5 43.5t-43.5 108.5q0 9 2 29l30 191
q12 74 73.5 127t135.5 53h21q67 0 111 -43.5t44 -108.5q0 -15 -3 -28zM464 688l-123 -106q-9 -9 -23 -9h-43q-28 0 -28 25q0 15 11 26l102 107q11 11 27 11h63q29 0 29 -25q0 -15 -15 -29z" />
    <glyph glyph-name="ocircumflex" unicode="&#xf4;" 
d="M358 361q1 4 1 11q0 27 -17.5 45t-45.5 18h-22q-31 0 -56 -21.5t-30 -52.5l-30 -191q0 -2 -0.5 -6t-0.5 -6q0 -26 18.5 -44.5t45.5 -18.5h21q31 0 56 22t30 53zM464 361l-30 -191q-12 -75 -73 -128t-136 -53h-21q-67 0 -110.5 43.5t-43.5 108.5q0 9 2 29l30 191
q12 74 73.5 127t135.5 53h21q67 0 111 -43.5t44 -108.5q0 -15 -3 -28zM467 624q5 -6 5 -16q0 -14 -11 -24.5t-27 -10.5h-42q-14 0 -21 9l-53 62l-72 -62q-9 -9 -24 -9h-42q-13 0 -21 7t-8 18q0 14 12 26l102 107q11 11 26 11h85q16 0 23 -11z" />
    <glyph glyph-name="otilde" unicode="&#xf5;" 
d="M358 361q1 4 1 11q0 27 -17.5 45t-45.5 18h-22q-31 0 -56 -21.5t-30 -52.5l-30 -191q0 -2 -0.5 -6t-0.5 -6q0 -26 18.5 -44.5t45.5 -18.5h21q31 0 56 22t30 53zM464 361l-30 -191q-12 -75 -73 -128t-136 -53h-21q-67 0 -110.5 43.5t-43.5 108.5q0 9 2 29l30 191
q12 74 73.5 127t135.5 53h21q67 0 111 -43.5t44 -108.5q0 -15 -3 -28zM486 668q-7 -46 -41.5 -72t-78.5 -26q-46 0 -82 27q-18 14 -32 14q-10 0 -13 -6q-13 -28 -36 -28h-28q-28 0 -28 23q0 3 1 5q7 45 41.5 71.5t78.5 26.5t82 -27q18 -14 32 -14q10 0 13 6q12 28 36 28h28
q12 0 20 -6.5t8 -16.5q0 -3 -1 -5z" />
    <glyph glyph-name="odieresis" unicode="&#xf6;" 
d="M358 361q1 4 1 11q0 27 -17.5 45t-45.5 18h-22q-31 0 -56 -21.5t-30 -52.5l-30 -191q0 -2 -0.5 -6t-0.5 -6q0 -26 18.5 -44.5t45.5 -18.5h21q31 0 56 22t30 53zM464 361l-30 -191q-12 -75 -73 -128t-136 -53h-21q-67 0 -110.5 43.5t-43.5 108.5q0 9 2 29l30 191
q12 74 73.5 127t135.5 53h21q67 0 111 -43.5t44 -108.5q0 -15 -3 -28zM297 711l-14 -85q-1 -13 -12 -22.5t-24 -9.5h-75q-11 0 -19 8t-8 19q0 3 1 5l13 85q2 13 13 22t24 9h74q12 0 19.5 -7.5t7.5 -18.5v-5zM498 711l-13 -85q-2 -14 -13 -23t-24 -9h-74q-12 0 -19.5 8
t-7.5 19v5l14 85q1 13 12 22t24 9h75q11 0 19 -7.5t8 -18.5q0 -4 -1 -5z" />
    <glyph glyph-name="divide" unicode="&#xf7;" 
d="M314 148l-13 -84q-2 -13 -13 -22.5t-24 -9.5h-85q-12 0 -19.5 8t-7.5 19v5l13 84q2 13 13 22.5t24 9.5h85q12 0 19.5 -8t7.5 -19v-5zM433 297l-7 -42q-2 -14 -13 -23t-24 -9h-275q-12 0 -20 8t-8 19v2q1 2 1 3l7 42q1 13 12 22.5t24 9.5h276q12 0 19.5 -8t7.5 -19v-5z
M368 488l-14 -85q-2 -13 -13 -22.5t-24 -9.5h-84q-12 0 -20 8t-8 19q0 1 0.5 2.5t0.5 2.5l13 85q2 13 13 22.5t24 9.5h85q12 0 19.5 -8t7.5 -19v-5z" />
    <glyph glyph-name="oslash" unicode="&#xf8;" 
d="M312 433q-10 2 -16 2h-22q-31 0 -56 -21.5t-30 -52.5l-30 -191q0 -2 -0.5 -6t-0.5 -6q0 -7 2 -17zM358 361q1 4 1 11t-2 17l-153 -292q12 -2 17 -2h21q31 0 56 22t30 53zM464 361l-30 -191q-12 -75 -73 -128t-136 -53h-21q-26 0 -52 8l-22 -42q-4 -7 -11 -7h-1l-2 1
l-38 14q-5 3 -5 9q0 3 1 5l26 50q-50 44 -50 114q0 9 2 29l30 191q12 74 73.5 127t135.5 53h21q26 0 52 -8l22 42q4 7 12 7q2 0 3 -1l37 -14q6 -1 6 -9v-2q-1 -2 -1 -3l-26 -49q50 -45 50 -115q0 -15 -3 -28z" />
    <glyph glyph-name="ugrave" unicode="&#xf9;" 
d="M482 499l-74 -467q-2 -13 -13 -22.5t-24 -9.5h-42q-14 0 -22 10q-44 -21 -86 -21h-21q-67 0 -110.5 43.5t-43.5 108.5q0 19 2 29l52 329q2 13 13 22t24 9h42q12 0 19.5 -8t7.5 -19v-4l-52 -329q-1 -4 -1 -12q0 -27 18 -45t45 -18h22q31 0 56 22t30 53l52 329q2 13 13 22
t24 9h42q12 0 19.5 -8t7.5 -19v-4zM378 624q5 -6 5 -16q0 -14 -11 -24.5t-27 -10.5h-42q-14 0 -21 9l-90 106q-7 8 -7 19q0 14 11 24.5t27 10.5h64q16 0 23 -11z" />
    <glyph glyph-name="uacute" unicode="&#xfa;" 
d="M482 499l-74 -467q-2 -13 -13 -22.5t-24 -9.5h-42q-14 0 -22 10q-44 -21 -86 -21h-21q-67 0 -110.5 43.5t-43.5 108.5q0 19 2 29l52 329q2 13 13 22t24 9h42q12 0 19.5 -8t7.5 -19v-4l-52 -329q-1 -4 -1 -12q0 -27 18 -45t45 -18h22q31 0 56 22t30 53l52 329q2 13 13 22
t24 9h42q12 0 19.5 -8t7.5 -19v-4zM450 688l-123 -106q-11 -9 -24 -9h-43q-28 0 -28 25q0 14 12 26l101 107q11 11 27 11h64q28 0 28 -25q0 -16 -14 -29z" />
    <glyph glyph-name="ucircumflex" unicode="&#xfb;" 
d="M482 499l-74 -467q-2 -13 -13 -22.5t-24 -9.5h-42q-14 0 -22 10q-44 -21 -86 -21h-21q-67 0 -110.5 43.5t-43.5 108.5q0 19 2 29l52 329q2 13 13 22t24 9h42q12 0 19.5 -8t7.5 -19v-4l-52 -329q-1 -4 -1 -12q0 -27 18 -45t45 -18h22q31 0 56 22t30 53l52 329q2 13 13 22
t24 9h42q12 0 19.5 -8t7.5 -19v-4zM463 624q5 -8 5 -16q0 -14 -11 -24.5t-27 -10.5h-42q-14 0 -21 9l-53 62l-72 -62q-11 -9 -24 -9h-43q-28 0 -28 25q0 14 12 26l101 107q11 11 27 11h85q16 0 23 -11z" />
    <glyph glyph-name="udieresis" unicode="&#xfc;" 
d="M482 499l-74 -467q-2 -13 -13 -22.5t-24 -9.5h-42q-14 0 -22 10q-44 -21 -86 -21h-21q-67 0 -110.5 43.5t-43.5 108.5q0 19 2 29l52 329q2 13 13 22t24 9h42q12 0 19.5 -8t7.5 -19v-4l-52 -329q-1 -4 -1 -12q0 -27 18 -45t45 -18h22q31 0 56 22t30 53l52 329q2 13 13 22
t24 9h42q12 0 19.5 -8t7.5 -19v-4zM293 711l-14 -85q-1 -13 -12 -22.5t-25 -9.5h-74q-12 0 -19.5 8t-7.5 19v5l14 85q2 13 13 22t24 9h74q12 0 19.5 -7.5t7.5 -18.5v-5zM494 711l-13 -85q-2 -13 -13 -22.5t-24 -9.5h-74q-12 0 -19.5 8t-7.5 19v5l13 85q2 13 13 22t24 9h74
q12 0 20 -7.5t8 -18.5q0 -1 -1 -3v-2z" />
    <glyph glyph-name="yacute" unicode="&#xfd;" 
d="M484 490q-190 -437 -235 -537q-19 -41 -43.5 -67.5t-56 -37.5t-57 -14.5t-62.5 -3.5h-21q-12 0 -19.5 8t-7.5 19v5l7 43q2 13 13 22t24 9h21h25q30 0 46.5 8t30.5 35q1 2 27 56l-66 454v5q0 14 11 25t26 11h45q10 0 17.5 -6.5t9.5 -15.5l37 -306l128 305q4 10 14 16.5
t20 6.5h42q13 0 20.5 -7.5t7.5 -18.5q0 -7 -4 -14zM464 688l-123 -106q-9 -9 -23 -9h-43q-28 0 -28 25q0 15 11 26l102 107q11 11 27 11h63q29 0 29 -25q0 -15 -15 -29z" />
    <glyph glyph-name="thorn" unicode="&#xfe;" 
d="M367 361q0 2 0.5 6t0.5 5q0 27 -18 45t-46 18h-21q-31 0 -56.5 -21.5t-29.5 -52.5l-30 -191q-1 -4 -1 -12q0 -27 18 -45t45 -18h21q31 0 56.5 22t29.5 53zM473 361l-31 -191q-11 -75 -72.5 -128t-135.5 -53h-22q-37 0 -71 16l-30 -185q-1 -13 -12 -22.5t-25 -9.5h-42
q-12 0 -19.5 8t-7.5 19v5l141 891q2 13 13 22t24 9h43q11 0 19 -7.5t8 -18.5q0 -4 -1 -5l-29 -186q38 16 77 16h21q67 0 110.5 -43.5t43.5 -108.5q0 -10 -2 -28z" />
    <glyph glyph-name="ydieresis" unicode="&#xff;" 
d="M484 490q-190 -437 -235 -537q-19 -41 -43.5 -67.5t-56 -37.5t-57 -14.5t-62.5 -3.5h-21q-12 0 -19.5 8t-7.5 19v5l7 43q2 13 13 22t24 9h21h25q30 0 46.5 8t30.5 35q1 2 27 56l-66 454v5q0 14 11 25t26 11h45q10 0 17.5 -6.5t9.5 -15.5l37 -306l128 305q4 10 14 16.5
t20 6.5h42q13 0 20.5 -7.5t7.5 -18.5q0 -7 -4 -14zM304 689l-13 -84q-2 -13 -13 -22.5t-24 -9.5h-74q-12 0 -20 8t-8 19v2q1 2 1 3l13 84q2 13 13 22.5t24 9.5h74q12 0 20 -8t8 -19l-1 -2v-3zM506 689l-14 -84q-1 -13 -12 -22.5t-25 -9.5h-74q-12 0 -19.5 8t-7.5 19v5l14 84
q2 14 13 23t24 9h74q12 0 19.5 -8t7.5 -19v-5z" />
    <glyph glyph-name="dotlessi" unicode="&#x131;" 
d="M338 435l-64 -403q-1 -13 -12 -22.5t-25 -9.5h-42q-12 0 -19.5 8t-7.5 19v5l64 403q2 13 13 22.5t24 9.5h42q12 0 20 -8t8 -19q0 -1 -0.5 -2.5t-0.5 -2.5z" />
    <glyph glyph-name="Lslash" unicode="&#x141;" 
d="M440 74l-7 -42q-1 -13 -12 -22.5t-24 -9.5h-297q-12 0 -20 8t-8 19q0 3 1 5l36 230l-11 -6q-12 -4 -17 -4q-19 0 -25 16l-15 37q-2 3 -2 10q0 23 20 33l70 37l51 326q2 13 13 22t24 9h43q11 0 19 -7.5t8 -18.5q0 -4 -1 -5l-42 -265l76 40q7 4 16 4q19 0 26 -16l15 -36
q2 -8 2 -11q0 -22 -21 -33l-133 -70l-34 -218h222q12 0 19.5 -8t7.5 -19v-5z" />
    <glyph glyph-name="lslash" unicode="&#x142;" 
d="M462 438q2 -8 2 -11q0 -22 -21 -33l-110 -58l-36 -230h106q11 0 19 -8t8 -19q0 -3 -1 -5l-6 -42q-2 -13 -13 -22.5t-24 -9.5h-350q-12 0 -19.5 8t-7.5 19v5l7 42q2 14 13 23t24 9h138l26 169l-34 -19q-12 -4 -17 -4q-19 0 -25 16l-15 37q-3 5 -3 10q0 23 21 33l93 49
l38 239h-96q-12 0 -19.5 8t-7.5 19v5l7 43q2 13 13 22t24 9h170q11 0 19 -7.5t8 -18.5q0 -4 -1 -5l-40 -253l53 28q7 4 16 4q19 0 25 -16z" />
    <glyph glyph-name="OE" unicode="&#x152;" 
d="M280 605q0 1 0.5 3t0.5 3q0 16 -10.5 26t-26.5 10q-17 0 -31.5 -12.5t-17.5 -29.5l-74 -467v-7q0 -15 10 -25.5t26 -10.5q18 0 32.5 12.5t16.5 30.5zM552 711l-7 -43q-2 -13 -13 -22.5t-24 -9.5h-117l-33 -212h95q12 0 19.5 -8t7.5 -19v-5l-7 -42q-2 -13 -13 -22.5
t-24 -9.5h-95l-34 -212h117q12 0 19.5 -8t7.5 -19v-5l-7 -42q-2 -13 -13 -22.5t-24 -9.5h-191q-8 0 -12 3q-31 -14 -64 -14q-55 0 -91 36t-36 89q0 8 2 24l74 467q10 61 60 104.5t112 43.5q31 0 60 -13q4 2 13 2h191q11 0 19 -7.5t8 -18.5v-5z" />
    <glyph glyph-name="oe" unicode="&#x153;" 
d="M225 392q1 3 1 7q0 15 -10 25.5t-26 10.5q-18 0 -32.5 -12.5t-17.5 -30.5l-40 -254v-7q0 -15 10 -25.5t26 -10.5q17 0 31.5 12.5t17.5 30.5zM416 392q1 3 1 7q0 15 -10 25.5t-26 10.5q-18 0 -32.5 -12.5t-17.5 -30.5l-11 -74h84zM522 392l-23 -148q-2 -13 -13 -22.5
t-24 -9.5h-159l-12 -74v-7q0 -15 10 -25.5t26 -10.5q17 0 31.5 12.5t17.5 30.5q2 13 13 22.5t24 9.5h42q12 0 19.5 -8t7.5 -19v-5q-10 -62 -60.5 -105.5t-111.5 -43.5q-55 0 -90 35q-46 -35 -101 -35t-91 36t-36 89q0 8 2 24l40 254q10 62 60.5 105.5t111.5 43.5
q55 0 90 -35q48 35 101 35q55 0 91 -35.5t36 -89.5q0 -16 -2 -24z" />
    <glyph glyph-name="Scaron" unicode="&#x160;" 
d="M498 573l-4 -21q-1 -13 -12 -22.5t-24 -9.5h-43q-12 0 -19.5 8t-7.5 19v5l4 21q0 2 0.5 6t0.5 5q0 27 -18 45t-46 18h-21q-31 0 -56 -21.5t-30 -52.5l-5 -32q-1 -5 -1 -14q0 -30 24.5 -54.5t59 -44t69.5 -42t59.5 -60.5t24.5 -88q0 -16 -3 -36l-5 -32q-12 -75 -73.5 -128
t-135.5 -53h-43q-67 0 -110.5 43.5t-43.5 108.5q0 14 3 29l3 21q2 13 13 22.5t24 9.5h42q12 0 19.5 -8t7.5 -19v-5l-3 -21q-1 -4 -1 -12q0 -27 18 -45t45 -18h43q31 0 56 22t30 53l5 32q0 2 0.5 7.5t0.5 8.5q0 33 -24.5 58.5t-59.5 45t-69.5 41.5t-59 58.5t-24.5 84.5
q0 17 3 35l5 32q12 74 73 127t136 53h21q67 0 110.5 -43.5t43.5 -108.5q0 -10 -2 -28zM511 901l-102 -106q-10 -12 -26 -12h-85q-16 0 -23 12l-68 106q-5 6 -5 16q0 14 11 24.5t27 10.5h42q14 0 21 -9l53 -62l72 62q9 9 24 9h42q13 0 21 -7t8 -18q0 -14 -12 -26z" />
    <glyph glyph-name="scaron" unicode="&#x161;" 
d="M466 371q-2 -13 -13 -22.5t-24 -9.5h-42q-12 0 -20 8t-8 19q0 1 1 3v2q0 2 0.5 5.5t0.5 5.5q0 23 -17 38t-48 15h-11q-35 0 -57 -16.5t-27 -43.5v-4q0 -18 25 -30t61 -21.5t72 -23t61 -42t25 -70.5q0 -7 -2 -25q-12 -76 -73 -123t-134 -47h-32q-66 0 -111 38.5t-45 103.5
q0 8 2 28l2 11q2 13 13 22.5t24 9.5h42q12 0 20 -8t8 -19q0 -1 -1 -3v-2l-1 -11q-1 -3 -1 -10q0 -24 17 -39t48 -15h32q33 0 56 18.5t28 45.5v5q0 18 -25 30t-61 21.5t-72 23t-61 41.5t-25 70q0 9 2 25q12 76 72.5 121t134.5 45h10q66 0 111 -38.5t45 -102.5q0 -9 -2 -29z
M478 691l-102 -106q-10 -12 -27 -12h-85q-15 0 -22 12l-69 106q-5 8 -5 16q0 14 11.5 24.5t27.5 10.5h42q14 0 21 -9l52 -62l73 62q9 9 24 9h42q13 0 21 -7t8 -18q0 -14 -12 -26z" />
    <glyph glyph-name="Ydieresis" unicode="&#x178;" 
d="M527 699l-207 -375l-46 -292q-1 -13 -12 -22.5t-25 -9.5h-42q-12 0 -19.5 8t-7.5 19v5l46 292l-87 375q-1 3 -1 8q0 14 11 24.5t26 10.5h46q9 0 17 -6t9 -14l54 -264l137 264q11 20 33 20h45q13 0 20.5 -7t7.5 -18q0 -8 -5 -18zM330 921l-13 -85q-2 -13 -13 -22.5
t-24 -9.5h-74q-12 0 -19.5 8t-7.5 19v5l13 85q2 13 13 22.5t24 9.5h74q12 0 20 -8t8 -19q0 -3 -1 -5zM532 921l-14 -85q-2 -13 -13 -22.5t-24 -9.5h-74q-11 0 -19 8t-8 19v5l14 85q2 13 13 22.5t24 9.5h74q12 0 19.5 -8t7.5 -19v-5z" />
    <glyph glyph-name="Zcaron" unicode="&#x17d;" 
d="M520 711l-7 -43q0 -10 -12 -30l-333 -532h245q12 0 19.5 -8t7.5 -19v-5l-7 -42q-1 -13 -12 -22.5t-24 -9.5h-340q-12 0 -19.5 8t-7.5 19v5l6 37q3 17 14 35l332 532h-214q-11 0 -19 8t-8 19q0 4 1 5l6 43q2 13 13 22t24 9h308q12 0 19.5 -7.5t7.5 -18.5v-5zM511 901
l-102 -106q-10 -12 -26 -12h-85q-16 0 -23 12l-68 106q-5 6 -5 16q0 14 11 24.5t27 10.5h42q14 0 21 -9l53 -62l72 62q9 9 24 9h42q13 0 21 -7t8 -18q0 -14 -12 -26z" />
    <glyph glyph-name="zcaron" unicode="&#x17e;" 
d="M486 499l-8 -50q-2 -11 -9 -18l-285 -325h229q12 0 19.5 -8t7.5 -19v-5l-7 -42q-1 -13 -12 -22.5t-24 -9.5h-340q-12 0 -19.5 8t-7.5 19v5l8 49q2 10 9 19l290 324h-202q-12 0 -19.5 8t-7.5 19v5l7 43q2 13 13 22t24 9h307q12 0 19.5 -8t7.5 -19v-4zM478 691l-102 -106
q-10 -12 -27 -12h-85q-15 0 -22 12l-69 106q-5 8 -5 16q0 14 11.5 24.5t27.5 10.5h42q14 0 21 -9l52 -62l73 62q9 9 24 9h42q13 0 21 -7t8 -18q0 -14 -12 -26z" />
    <glyph glyph-name="florin" unicode="&#x192;" 
d="M551 573l-7 -43q-2 -13 -13 -22t-24 -9h-42q-12 0 -19.5 7.5t-7.5 18.5v5l7 43q1 6 1 16q0 27 -14.5 42.5t-38.5 15.5h-21q-28 0 -49 -20t-27 -54l-10 -64h96q11 0 19 -8t8 -19q0 -3 -1 -5l-6 -42q-2 -13 -13 -22.5t-24 -9.5h-96l-77 -488q-8 -52 -51 -89.5t-96 -37.5
q-12 0 -19.5 8t-7.5 19v5l7 42q2 13 13 22.5t24 9.5q20 0 24 21l77 488h-53q-11 0 -19 8t-8 19q0 3 1 5l6 42q2 13 13 22.5t24 9.5h53l10 64q12 73 67.5 126.5t131.5 53.5h21q67 0 105 -42.5t38 -106.5q0 -21 -2 -31z" />
    <glyph glyph-name="circumflex" unicode="&#x2c6;" 
d="M467 624q5 -6 5 -16q0 -14 -11 -24.5t-27 -10.5h-42q-14 0 -21 9l-53 62l-72 -62q-9 -9 -24 -9h-42q-13 0 -21 7t-8 18q0 14 12 26l102 107q11 11 26 11h85q16 0 23 -11z" />
    <glyph glyph-name="caron" unicode="&#x2c7;" 
d="M478 691l-102 -106q-12 -12 -27 -12h-85q-14 0 -22 12l-69 106q-5 8 -5 16q0 14 11.5 24.5t27.5 10.5h42q14 0 21 -9l52 -62l73 62q9 9 24 9h42q13 0 21 -7t8 -18q0 -14 -12 -26z" />
    <glyph glyph-name="breve" unicode="&#x2d8;" 
d="M477 711q-9 -57 -55.5 -97.5t-103.5 -40.5h-22q-51 0 -84 33t-33 83q0 14 1 22q2 13 13 22t24 9h43q11 0 19 -7.5t8 -18.5q0 -4 -1 -5v-5q0 -12 7.5 -19.5t19.5 -7.5h21q13 0 24 9t13 23q2 13 13 22t24 9h42q12 0 20 -7.5t8 -18.5q0 -4 -1 -5z" />
    <glyph glyph-name="dotaccent" unicode="&#x2d9;" 
d="M403 711l-13 -85q-2 -13 -13 -22.5t-24 -9.5h-85q-12 0 -19.5 8t-7.5 19v5l14 85q1 13 12 22t24 9h85q12 0 19.5 -7.5t7.5 -18.5v-5z" />
    <glyph glyph-name="ring" unicode="&#x2da;" 
d="M353 668q1 1 1 4q0 7 -5.5 12t-12.5 5q-20 0 -24 -21v-3q0 -17 17 -17q9 0 16 6t8 14zM439 668q-8 -44 -44 -75t-79 -31q-40 0 -65.5 26t-25.5 64q0 6 2 16q7 44 42.5 75t79.5 31q40 0 65.5 -25.5t25.5 -63.5q0 -11 -1 -17z" />
    <glyph glyph-name="ogonek" unicode="&#x2db;" 
d="M295 -72q2 -8 2 -14q0 -24 -13.5 -43t-48.5 -19h-44q-17 0 -29.5 10t-15.5 26l-29 165h157z" />
    <glyph glyph-name="tilde" unicode="&#x2dc;" 
d="M486 668q-7 -46 -41.5 -72t-78.5 -26q-46 0 -82 27q-18 14 -32 14q-10 0 -13 -6q-13 -28 -36 -28h-28q-28 0 -28 23q0 3 1 5q7 45 41.5 71.5t78.5 26.5t82 -27q18 -14 32 -14q10 0 13 6q12 28 36 28h28q12 0 20 -6.5t8 -16.5q0 -3 -1 -5z" />
    <glyph glyph-name="hungarumlaut" unicode="&#x2dd;" 
d="M330 688l-123 -106q-9 -9 -24 -9h-42q-13 0 -21 7t-8 18q0 14 12 26l102 107q11 11 27 11h63q29 0 29 -25q0 -15 -15 -29zM513 688l-123 -106q-11 -9 -24 -9h-43q-28 0 -28 25q0 14 12 26l101 107q11 11 27 11h64q28 0 28 -25q0 -16 -14 -29z" />
    <glyph glyph-name="Delta" unicode="&#x394;" 
d="M333 106l-26 469l-174 -469h200zM442 103v-4l-11 -67q-1 -13 -12 -22.5t-25 -9.5h-356q-12 0 -19.5 8t-7.5 19v5l11 67l1 4l229 614q4 10 14 17.5t21 7.5h94q11 0 18.5 -7.5t8.5 -17.5z" />
    <glyph glyph-name="Omega" unicode="&#x3a9;" 
d="M530 573l-47 -297q-17 -99 -109 -153l-3 -17h64q11 0 19 -8t8 -19q0 -3 -1 -5l-6 -42q-2 -13 -13 -22.5t-24 -9.5h-138q-12 0 -19.5 8t-7.5 19v5l22 139q3 16 17.5 25.5t31 14t32.5 21t21 44.5l47 297q0 2 0.5 6t0.5 6q0 26 -18 44t-46 18h-85q-31 0 -56 -21.5t-30 -52.5
l-47 -297q-1 -6 -1 -16q0 -21 11 -33.5t24 -17t24 -12.5t11 -21q0 -3 -1 -5l-22 -139q-1 -13 -12 -22.5t-24 -9.5h-138q-12 0 -20 8t-8 19q0 1 0.5 2.5t0.5 2.5l7 42q1 13 12 22.5t24 9.5h64l3 17q-63 44 -63 124q0 9 2 29l47 297q12 74 73 127t136 53h85q67 0 110.5 -43.5
t43.5 -108.5q0 -10 -2 -28z" />
    <glyph glyph-name="pi" unicode="&#x3c0;" 
d="M507 499l-6 -43q-2 -13 -13 -22.5t-24 -9.5h-32l-51 -318h32q12 0 19.5 -8t7.5 -19v-5l-7 -42q-1 -13 -12 -22.5t-24 -9.5h-107q-11 0 -19 8t-8 19q0 3 1 5l62 392h-74l-63 -392q-1 -13 -12 -22.5t-24 -9.5h-43q-12 0 -19.5 8t-7.5 19v5l63 392h-43q-12 0 -19.5 8
t-7.5 19v5l7 43q2 13 13 22t24 9h361q11 0 19 -7.5t8 -19.5q0 -3 -1 -4z" />
    <glyph glyph-name="endash" unicode="&#x2013;" 
d="M412 297l-7 -42q-2 -14 -13 -23t-24 -9h-233q-12 0 -19.5 8t-7.5 19v5l7 42q2 13 13 22.5t24 9.5h233q12 0 19.5 -8t7.5 -19v-5z" />
    <glyph glyph-name="emdash" unicode="&#x2014;" 
d="M500 297l-6 -42q-2 -13 -13 -22.5t-24 -9.5h-411q-12 0 -19.5 8t-7.5 19v5l7 42q2 13 13 22.5t24 9.5h411q11 0 19 -8t8 -19q0 -3 -1 -5z" />
    <glyph glyph-name="quoteleft" unicode="&#x2018;" 
d="M414 711l-7 -43q-2 -13 -13 -22.5t-24 -9.5t-24 -9t-13 -22l-2 -11h32q12 0 19.5 -8t7.5 -19v-5l-17 -106q-2 -13 -13 -22.5t-24 -9.5h-106q-11 0 -19 8t-8 19q0 3 1 5l23 149q9 57 56 97t104 40q12 0 19.5 -7.5t7.5 -18.5v-5z" />
    <glyph glyph-name="quoteright" unicode="&#x2019;" 
d="M414 711l-24 -149q-9 -57 -55.5 -97.5t-104.5 -40.5q-11 0 -19 8t-8 19q0 3 1 5l6 43q2 13 13 22t24 9t24 9.5t13 22.5l2 11h-32q-12 0 -19.5 8t-7.5 19v5l17 106q2 13 13 22t24 9h106q12 0 19.5 -7.5t7.5 -18.5v-5z" />
    <glyph glyph-name="quotesinglbase" unicode="&#x201a;" 
d="M323 138l-24 -149q-9 -57 -55.5 -97t-103.5 -40q-12 0 -20 7.5t-8 18.5v3l1 2l7 43q1 13 12 22.5t24 9.5q14 0 25 9t12 22l2 11h-32q-12 0 -19.5 8t-7.5 19v5l17 106q2 13 13 22.5t24 9.5h106q12 0 19.5 -8t7.5 -19v-5z" />
    <glyph glyph-name="quotedblleft" unicode="&#x201c;" 
d="M297 711l-7 -43q-2 -13 -13 -22.5t-24 -9.5t-24 -9t-13 -22l-1 -11h32q11 0 19 -8t8 -19q0 -3 -1 -5l-16 -106q-2 -13 -13 -22.5t-24 -9.5h-106q-12 0 -19.5 8t-7.5 19v5l23 149q9 57 56 97t104 40q12 0 19.5 -7.5t7.5 -18.5v-5zM530 711l-6 -43q-2 -13 -13 -22.5
t-24 -9.5t-24 -9t-13 -22l-2 -11h32q12 0 19.5 -8t7.5 -19v-5l-17 -106q-2 -13 -13 -22.5t-24 -9.5h-106q-12 0 -19.5 8t-7.5 19v5l24 149q9 57 55.5 97t104.5 40q11 0 19 -7.5t8 -18.5q0 -4 -1 -5z" />
    <glyph glyph-name="quotedblright" unicode="&#x201d;" 
d="M297 711l-24 -149q-9 -57 -55.5 -97.5t-103.5 -40.5q-12 0 -19.5 8t-7.5 19v5l7 43q1 13 12 22t24 9t24 9.5t13 22.5l2 11h-32q-11 0 -19 8t-8 19v5l17 106q2 13 13 22t24 9h106q12 0 19.5 -7.5t7.5 -18.5v-5zM530 711l-23 -149q-9 -57 -56 -97.5t-104 -40.5
q-12 0 -19.5 8t-7.5 19v5l7 43q2 13 13 22t24 9t24 9.5t13 22.5l1 11h-31q-12 0 -20 8t-8 19l1 2v3l17 106q1 13 12 22t24 9h107q11 0 19 -7.5t8 -18.5q0 -4 -1 -5z" />
    <glyph glyph-name="quotedblbase" unicode="&#x201e;" 
d="M206 138l-23 -149q-9 -57 -56 -97t-104 -40q-12 0 -19.5 7.5t-7.5 18.5v5l7 43q2 13 13 22.5t24 9.5t24 9t13 22l1 11h-32q-11 0 -19 8t-8 19q0 3 1 5l17 106q1 13 12 22.5t24 9.5h106q12 0 20 -8t8 -19q0 -1 -0.5 -2.5t-0.5 -2.5zM440 138l-24 -149q-9 -57 -56 -97
t-104 -40q-11 0 -19 7.5t-8 18.5q0 4 1 5l6 43q2 13 13 22.5t24 9.5t24 9t13 22l2 11h-32q-12 0 -19.5 8t-7.5 19v5l17 106q2 13 13 22.5t24 9.5h106q12 0 19.5 -8t7.5 -19v-5z" />
    <glyph glyph-name="dagger" unicode="&#x2020;" 
d="M518 499l-7 -43q-2 -13 -13 -22.5t-24 -9.5h-138l-62 -392q-1 -13 -12 -22.5t-25 -9.5h-42q-12 0 -19.5 8t-7.5 19v5l62 392h-138q-11 0 -19 8t-8 19q0 3 1 5l6 43q2 13 13 22t24 9h138l29 181q1 13 12 22t25 9h42q12 0 19.5 -7.5t7.5 -18.5v-5l-29 -181h138
q12 0 19.5 -7.5t7.5 -19.5v-4z" />
    <glyph glyph-name="daggerdbl" unicode="&#x2021;" 
d="M518 499l-7 -43q-2 -13 -13 -22.5t-24 -9.5h-138l-50 -318h138q12 0 19.5 -8t7.5 -19v-5l-7 -42q-2 -14 -13 -23t-24 -9h-138l-28 -180q-2 -13 -13 -22.5t-24 -9.5h-43q-11 0 -19 8t-8 19q0 3 1 5l28 180h-138q-11 0 -19 8t-8 19v5l7 42q2 13 13 22.5t24 9.5h138l50 318
h-138q-11 0 -19 8t-8 19q0 3 1 5l6 43q2 13 13 22t24 9h138l29 181q1 13 12 22t25 9h42q12 0 19.5 -7.5t7.5 -18.5v-5l-29 -181h138q12 0 19.5 -8t7.5 -19v-4z" />
    <glyph glyph-name="bullet" unicode="&#x2022;" 
d="M413 371q-9 -57 -56 -97.5t-104 -40.5q-51 0 -84.5 33.5t-33.5 83.5q0 7 2 21q9 57 56 97.5t104 40.5q51 0 84.5 -33t33.5 -83q0 -6 -2 -22z" />
    <glyph glyph-name="ellipsis" unicode="&#x2026;" 
d="M121 138l-16 -106q-2 -13 -13 -22.5t-24 -9.5h-85q-12 0 -19.5 8t-7.5 19v5l17 106q2 13 13 22.5t24 9.5h85q11 0 19 -8t8 -19q0 -3 -1 -5zM312 138l-17 -106q-1 -13 -12 -22.5t-24 -9.5h-85q-12 0 -19.5 8t-7.5 19v5l17 106q2 13 13 22.5t24 9.5h85q11 0 19 -8t8 -19
q0 -3 -1 -5zM503 138l-17 -106q-1 -13 -12 -22.5t-24 -9.5h-85q-12 0 -19.5 8t-7.5 19v5l17 106q2 13 13 22.5t24 9.5h84q12 0 20 -8t8 -19q0 -1 -0.5 -2.5t-0.5 -2.5z" />
    <glyph glyph-name="perthousand" unicode="&#x2030;" 
d="M291 207l1 2q0 14 -14 14h-21q-15 0 -19 -16l-20 -127v-3q0 -13 14 -13h21q16 0 18 16zM419 207v2q0 14 -14 14h-21q-16 0 -18 -16l-21 -127v-3q0 -13 14 -13h21q15 0 19 16zM215 663v2q0 14 -13 14h-21q-17 0 -19 -16l-20 -127v-3q0 -13 13 -13h22q16 0 18 16zM493 207
l-20 -127q-6 -38 -37 -64.5t-68 -26.5h-21q-29 0 -50 18q-28 -18 -56 -18h-21q-34 0 -55.5 21.5t-21.5 54.5q0 10 1 15l20 127q6 37 36.5 63.5t68.5 26.5h21q30 0 50 -17q26 17 56 17h21q33 0 55 -21.5t22 -54.5q0 -9 -1 -14zM401 506q4 -4 4 -11q0 -11 -9 -19l-312 -269
q-6 -6 -16 -6q-8 0 -14 6l-25 30q-4 4 -4 12q0 11 9 18l312 269q6 6 16 6q8 0 14 -6zM289 663l-20 -127q-6 -38 -36.5 -64t-67.5 -26h-21q-34 0 -55.5 21.5t-21.5 53.5q0 10 1 15l20 127q6 37 36.5 63.5t67.5 26.5h22q33 0 55 -22t22 -54q0 -4 -2 -14z" />
    <glyph glyph-name="guilsinglleft" unicode="&#x2039;" 
d="M401 396l-108 -131l66 -131q4 -8 4 -14q0 -14 -11 -24.5t-27 -10.5h-49q-18 0 -24 14l-68 133q-3 4 -3 15q0 2 1 3l4 31q3 11 9 17l109 133q10 14 29 14h49q28 0 28 -25q0 -12 -9 -24z" />
    <glyph glyph-name="guilsinglright" unicode="&#x203a;" 
d="M335 281l-5 -31q-2 -10 -8 -18l-110 -133q-12 -14 -29 -14h-48q-13 0 -21 7t-8 18q0 13 10 24l108 131l-67 131q-3 8 -3 14q0 14 11 24.5t27 10.5h48q18 0 25 -14l67 -133q3 -4 3 -14v-3z" />
    <glyph glyph-name="fraction" unicode="&#x2044;" 
d="M517 699l-383 -679q-11 -20 -33 -20h-46q-27 0 -27 26q0 10 5 18l383 679q11 19 33 19h46q12 0 19.5 -7t7.5 -18t-5 -18z" />
    <glyph glyph-name="Euro" unicode="&#x20ac;" 
d="M519 573l-3 -21q-2 -13 -13 -22.5t-24 -9.5h-43q-11 0 -19 8t-8 19q0 3 1 5l3 21q1 4 1 11q0 27 -17.5 45t-45.5 18h-32q-31 0 -56.5 -21.5t-29.5 -52.5l-14 -87l127 33q1 0 3.5 0.5t4.5 0.5q11 0 18.5 -7t8.5 -17l5 -41v-3q0 -12 -8.5 -22.5t-20.5 -13.5l-155 -40
l-9 -52l138 36q2 0 4.5 0.5t3.5 0.5q11 0 18.5 -7t8.5 -17l5 -41v-3q0 -12 -8 -22.5t-21 -13.5l-166 -43l-7 -44q-1 -4 -1 -12q0 -27 18 -45t45 -18h32q31 0 56.5 22t29.5 53l5 32q2 13 13 22t24 9h42q12 0 20 -7.5t8 -19.5q0 -3 -1 -4l-5 -32q-12 -75 -73 -128t-136 -53
h-31q-67 0 -111 43.5t-44 108.5q0 14 3 29l2 16l-22 -6q-1 0 -4 -0.5t-4 -0.5q-11 0 -18.5 7t-8.5 17l-5 41v3q0 12 8.5 22.5t20.5 13.5l51 13l8 52l-33 -9q-2 0 -4.5 -0.5t-3.5 -0.5q-11 0 -19 7t-9 17l-4 41v3q0 12 8 22.5t21 13.5l61 16l19 115q11 74 72.5 127t135.5 53
h32q67 0 110.5 -43.5t43.5 -108.5q0 -19 -2 -28z" />
    <glyph glyph-name="trademark" unicode="&#x2122;" 
d="M277 721l-3 -21q-2 -8 -9 -14.5t-16 -6.5h-53l-33 -212q-1 -9 -8.5 -15t-16.5 -6h-21q-7 0 -12.5 5t-5.5 13v3l34 212h-53q-18 0 -18 18v3l3 21q4 22 25 22h170q8 0 13 -5.5t5 -12.5q0 -3 -1 -4zM596 721l-41 -254q-1 -9 -8.5 -15t-15.5 -6h-21q-8 0 -13.5 5t-5.5 13
q0 2 1 3l19 123l-55 -129q-8 -15 -23 -15h-48q-16 0 -18 15l-15 129l-19 -123q-1 -9 -9 -15t-16 -6h-21q-18 0 -18 18v3l40 254q4 22 25 22h50q7 0 12 -5t6 -11l22 -187l80 187q8 16 23 16h51q8 0 13 -5.5t5 -12.5v-4z" />
    <glyph glyph-name="partialdiff" unicode="&#x2202;" 
d="M353 329q1 4 1 12q0 27 -18 44.5t-45 17.5h-22q-31 0 -56 -21.5t-30 -52.5l-25 -159q0 -2 -0.5 -6t-0.5 -6q0 -26 18.5 -44.5t45.5 -18.5h21q31 0 56 22t30 53zM496 562l-62 -392q-12 -75 -73 -128t-136 -53h-21q-67 0 -110.5 43.5t-43.5 108.5q0 9 2 29l25 159
q12 74 73.5 127t135.5 53h21q38 0 72 -16l11 69q1 4 1 12q0 26 -17.5 44t-45.5 18h-64q-12 0 -19.5 8t-7.5 19v5l7 43q2 13 13 22.5t24 9.5h63q67 0 110.5 -43.5t43.5 -108.5q0 -19 -2 -29z" />
    <glyph glyph-name="product" unicode="&#x220f;" 
d="M415 610l-238 -217l-42 -261l238 218zM537 711l-62 -390q-2 -12 -12 -22l-316 -289q-10 -10 -25 -10h-82q-12 0 -19.5 8t-7.5 19v5l62 390q2 12 12 22l316 288q10 10 25 10h82q12 0 19.5 -7.5t7.5 -18.5v-5z" />
    <glyph glyph-name="summation" unicode="&#x2211;" 
d="M520 711l-20 -128q-2 -13 -13 -22t-24 -9h-43q-11 0 -19 7.5t-8 19.5v4l9 53h-156l94 -233q1 -3 1 -12v-4l-5 -32q-2 -10 -6 -15l-168 -234h156l10 64q2 13 13 22.5t24 9.5h42q12 0 19.5 -8t7.5 -19v-5l-22 -138q-2 -14 -13 -23t-24 -9h-318q-12 0 -19.5 8t-7.5 19v5
l11 69q3 10 7 16l183 254l-103 255q-1 3 -1 12v3l11 70q2 13 13 22t24 9h318q12 0 19.5 -7.5t7.5 -18.5v-5z" />
    <glyph glyph-name="minus" unicode="&#x2212;" 
d="M433 297l-7 -42q-2 -14 -13 -23t-24 -9h-275q-12 0 -20 8t-8 19v2q1 2 1 3l7 42q1 13 12 22.5t24 9.5h276q12 0 19.5 -8t7.5 -19v-5z" />
    <glyph glyph-name="radical" unicode="&#x221a;" 
d="M562 711l-7 -43q-1 -13 -12 -22.5t-24 -9.5h-113l-211 -610q-4 -11 -14.5 -18.5t-20.5 -7.5h-54h-28h-15q-11 0 -19 8t-8 19l2 318q0 15 11 26t26 11h43q11 0 19 -8t8 -19l-3 -174l183 536q4 10 14.5 17.5t21.5 7.5h174q12 0 20 -7.5t8 -18.5q0 -1 -1 -3v-2z" />
    <glyph glyph-name="infinity" unicode="&#x221e;" 
d="M203 276q-29 32 -55 32q-8 0 -15.5 -6.5t-8.5 -15.5l-4 -21v-3q0 -8 5 -13t13 -5q28 0 65 32zM399 286q1 2 1 4q0 8 -5 13t-13 5q-26 0 -65 -32q26 -32 55 -32q20 0 24 21zM484 286l-3 -21q-7 -44 -43 -75t-80 -31q-61 0 -108 55q-64 -55 -125 -55q-39 0 -65 25.5
t-26 63.5q0 3 0.5 8.5t0.5 8.5l4 21q7 44 43 75t80 31q61 0 108 -54q61 54 125 54q40 0 65.5 -25.5t25.5 -63.5q0 -5 -2 -17z" />
    <glyph glyph-name="integral" unicode="&#x222b;" 
d="M551 573l-7 -43q-2 -13 -13 -22t-24 -9h-42q-12 0 -19.5 7.5t-7.5 18.5v5l7 43q1 6 1 16q0 27 -14.5 42.5t-38.5 15.5h-21q-28 0 -49 -20t-27 -54l-104 -658q-8 -52 -51 -89.5t-96 -37.5q-12 0 -19.5 8t-7.5 19v5l7 42q2 13 13 22.5t24 9.5q20 0 24 21l104 658
q12 73 67.5 126.5t131.5 53.5h21q67 0 105 -42.5t38 -106.5q0 -21 -2 -31z" />
    <glyph glyph-name="approxequal" unicode="&#x2248;" 
d="M462 212l-3 -21q-8 -46 -50.5 -81t-95.5 -35q-65 0 -113 57q-22 26 -41 26q-18 0 -25 -20l-4 -11q-11 -32 -37 -32h-42q-12 0 -19.5 8t-7.5 19v5l4 21q7 46 49.5 81t95.5 35q65 0 114 -57q21 -26 40 -26q18 0 25 21l4 10q11 32 37 32h42q12 0 19.5 -8t7.5 -19v-5z
M496 424l-4 -21q-7 -46 -49.5 -81t-95.5 -35q-66 0 -114 57q-22 26 -40 26t-25 -20l-4 -11q-11 -31 -37 -31h-42q-12 0 -20 7.5t-8 19.5q0 1 0.5 2t0.5 2l3 22q8 46 51 80.5t95 34.5q66 0 113 -57q22 -25 41 -25q18 0 25 20l3 10q13 32 37 32h43q11 0 19 -8t8 -19v-5z" />
    <glyph glyph-name="notequal" unicode="&#x2260;" 
d="M446 382l-6 -43q-2 -13 -13 -22t-24 -9h-93l-33 -64h116q11 0 19 -8t8 -19v-5l-7 -42q-2 -13 -13 -22.5t-24 -9.5h-154l-28 -53q-3 -6 -11 -6h-3l-38 15q-5 2 -5 8q0 4 1 5l16 31h-54q-12 0 -19.5 8t-7.5 19v5l7 42q2 13 13 22.5t24 9.5h92l34 64h-116q-12 0 -19.5 7.5
t-7.5 19.5v4l7 43q2 13 13 22.5t24 9.5h154l27 52q5 7 12 7q2 0 3 -1l38 -14q5 -2 5 -9q0 -3 -1 -5l-16 -30h54q11 0 19 -8t8 -19q0 -3 -1 -5z" />
    <glyph glyph-name="lessequal" unicode="&#x2264;" 
d="M404 117l-6 -43q-2 -13 -13 -22.5t-24 -9.5h-276q-12 0 -19.5 8t-7.5 19v5l7 43q2 13 13 22t24 9h276q11 0 19 -7.5t8 -18.5q0 -4 -1 -5zM463 489l-7 -44q-3 -22 -26 -30l-171 -65l151 -65q17 -7 17 -25q0 -3 -1 -5l-7 -44q-2 -12 -12 -22t-23 -10q-6 0 -12 3l-258 111
q-17 7 -17 26q0 2 1 4l8 54q2 11 10 19t16 11l294 112q8 2 12 2q12 0 19 -8.5t7 -19.5q0 -3 -1 -4z" />
    <glyph glyph-name="greaterequal" unicode="&#x2265;" 
d="M404 117l-6 -43q-2 -13 -13 -22.5t-24 -9.5h-276q-12 0 -19.5 8t-7.5 19v5l7 43q2 13 13 22t24 9h276q11 0 19 -7.5t8 -18.5q0 -4 -1 -5zM446 377l-9 -54q-3 -22 -26 -30l-293 -111q-8 -3 -13 -3q-12 0 -18.5 8.5t-6.5 19.5v4l7 44q3 22 26 30l171 65l-150 65
q-17 6 -17 25v5l7 44q2 11 12 21.5t23 10.5q4 0 12 -2l258 -112q17 -7 17 -25v-5z" />
    <glyph glyph-name="lozenge" unicode="&#x25ca;" 
d="M393 371l-79 245l-158 -246q6 -11 80 -244zM502 387l-5 -31q0 -6 -5 -14l-208 -324q-11 -18 -31 -18h-73q-8 0 -16 5.5t-10 12.5l-105 324q-2 4 -2 10l1 2v2l5 31q0 7 5 14l208 324q11 17 31 17h73q20 0 26 -17l105 -324q2 -4 2 -11l-1 -1v-2z" />
    <glyph glyph-name="apple" unicode="&#xf8ff;" 
d="M330 180q0 2 0.5 6t0.5 6q0 26 -18.5 44.5t-45.5 18.5h-21q-31 0 -56.5 -22t-29.5 -53l-2 -10q0 -2 -0.5 -6t-0.5 -6q0 -26 18.5 -44.5t45.5 -18.5h21q31 0 56 22t30 53zM392 573q0 2 0.5 6t0.5 5q0 27 -18 45t-46 18h-21q-31 0 -56 -21.5t-30 -52.5l-2 -11q0 -2 -0.5 -6
t-0.5 -6q0 -26 18 -44t46 -18h21q31 0 56.5 21.5t29.5 52.5zM436 180l-2 -10q-12 -75 -73 -128t-136 -53h-21q-67 0 -110.5 43.5t-43.5 108.5q0 9 2 29l2 10q12 75 73 128t136 53h21q67 0 110.5 -43.5t43.5 -108.5q0 -9 -2 -29zM498 573l-2 -11q-12 -74 -73 -127t-136 -53
h-21q-67 0 -110.5 43.5t-43.5 108.5q0 10 2 28l2 11q12 74 73 127t136 53h21q67 0 110.5 -43.5t43.5 -108.5q0 -10 -2 -28z" />
    <glyph glyph-name="fi" unicode="&#xfb01;" 
d="M508 573q-1 -13 -12 -22.5t-24 -9.5h-43q-12 0 -19.5 8t-7.5 19v5q2 12 2 16q0 27 -14.5 42.5t-38.5 15.5h-43q-27 0 -48.5 -20t-26.5 -54l-10 -64h244q11 0 19 -8t8 -19q0 -3 -1 -5l-58 -371h42q12 0 19.5 -8t7.5 -19v-5l-7 -42q-2 -14 -13 -23t-24 -9h-180
q-12 0 -19.5 8t-7.5 19v5l7 42q2 14 13 23t24 9h31l47 297h-169l-47 -297h32q11 0 19 -8t8 -19q0 -3 -1 -5l-6 -42q-2 -13 -13 -22.5t-24 -9.5h-181q-11 0 -19 8t-8 19q0 3 1 5l6 42q2 13 13 22.5t24 9.5h43l47 297h-43q-11 0 -19 8t-8 19q0 3 1 5l6 42q2 13 13 22.5t24 9.5
h43l10 64q11 73 66 126.5t132 53.5h42q68 0 106 -42.5t38 -106.5q0 -16 -3 -31z" />
    <glyph glyph-name="fl" unicode="&#xfb02;" 
d="M402 573q2 12 2 16q0 27 -14.5 42.5t-38.5 15.5h-43q-27 0 -48.5 -20t-26.5 -54l-10 -64h95q12 0 19.5 -8t7.5 -19v-5l-7 -42q-2 -13 -13 -22.5t-24 -9.5h-95l-47 -297h169zM508 573l-73 -467h42q12 0 19.5 -8t7.5 -19v-5l-7 -42q-2 -14 -13 -23t-24 -9h-488q-11 0 -19 8
t-8 19v5l7 42q2 13 13 22.5t24 9.5h64l47 297h-43q-11 0 -19 8t-8 19q0 3 1 5l6 42q2 13 13 22.5t24 9.5h43l10 64q11 73 66 126.5t132 53.5h42q68 0 106 -42.5t38 -106.5q0 -16 -3 -31z" />
    <glyph glyph-name="HT" 
 />
    <glyph glyph-name="LF" 
 />
    <glyph glyph-name="CR" 
 />
    <glyph glyph-name="DLE" 
 />
    <glyph glyph-name="DC1" 
 />
    <glyph glyph-name="DC2" 
 />
    <glyph glyph-name="DC3" 
 />
    <glyph glyph-name="DC4" 
 />
    <glyph glyph-name="RS" 
 />
    <glyph glyph-name="US" 
 />
    <glyph glyph-name="DEL" 
 />
    <glyph glyph-name="NUL" 
 />
  </font>
</defs>
</svg>
